G04 EAGLE Gerber RS-274X export*
G75*
%MOMM*%
%FSLAX34Y34*%
%LPD*%
%INBottom Copper*%
%IPPOS*%
%AMOC8*
5,1,8,0,0,1.08239X$1,22.5*%
G01*
%ADD10C,2.286000*%
%ADD11C,1.778000*%
%ADD12C,1.108000*%
%ADD13C,1.508000*%
%ADD14C,1.524000*%
%ADD15C,3.116000*%
%ADD16R,1.219200X2.235200*%
%ADD17R,3.600000X2.200000*%
%ADD18R,1.500000X1.300000*%
%ADD19C,0.322400*%
%ADD20R,1.300000X1.500000*%
%ADD21C,2.100000*%
%ADD22C,2.250000*%
%ADD23C,1.208000*%
%ADD24P,1.429621X8X22.500000*%
%ADD25C,1.000000*%
%ADD26C,0.756400*%

G36*
X592985Y-424834D02*
X592985Y-424834D01*
X593094Y-424836D01*
X602640Y-424469D01*
X602664Y-424467D01*
X602690Y-424467D01*
X603212Y-424414D01*
X622079Y-421496D01*
X622197Y-421470D01*
X622317Y-421453D01*
X622560Y-421390D01*
X622696Y-421360D01*
X622752Y-421340D01*
X622825Y-421321D01*
X641024Y-415554D01*
X641137Y-415510D01*
X641253Y-415475D01*
X641483Y-415376D01*
X641614Y-415325D01*
X641666Y-415297D01*
X641735Y-415267D01*
X658839Y-406786D01*
X658944Y-406725D01*
X659053Y-406673D01*
X659266Y-406539D01*
X659386Y-406470D01*
X659433Y-406434D01*
X659497Y-406394D01*
X675104Y-395398D01*
X675198Y-395322D01*
X675298Y-395254D01*
X675488Y-395089D01*
X675597Y-395002D01*
X675638Y-394959D01*
X675695Y-394910D01*
X689437Y-381658D01*
X689519Y-381568D01*
X689607Y-381486D01*
X689770Y-381294D01*
X689864Y-381191D01*
X689898Y-381143D01*
X689947Y-381085D01*
X701502Y-365888D01*
X701569Y-365787D01*
X701644Y-365692D01*
X701775Y-365478D01*
X701852Y-365362D01*
X701879Y-365309D01*
X701918Y-365244D01*
X711015Y-348460D01*
X711066Y-348350D01*
X711125Y-348244D01*
X711222Y-348013D01*
X711281Y-347886D01*
X711299Y-347830D01*
X711328Y-347760D01*
X717752Y-329782D01*
X717786Y-329666D01*
X717828Y-329553D01*
X717889Y-329309D01*
X717927Y-329175D01*
X717936Y-329116D01*
X717954Y-329043D01*
X721556Y-310294D01*
X721571Y-310174D01*
X721596Y-310056D01*
X721618Y-309806D01*
X721636Y-309667D01*
X721636Y-309608D01*
X721642Y-309533D01*
X722336Y-290454D01*
X722335Y-290429D01*
X722337Y-290404D01*
X722324Y-289879D01*
X721572Y-280356D01*
X721560Y-280274D01*
X721553Y-280165D01*
X721201Y-277171D01*
X661583Y229583D01*
X661571Y229649D01*
X661563Y229733D01*
X659842Y241321D01*
X659815Y241448D01*
X659755Y241767D01*
X654228Y264525D01*
X654216Y264563D01*
X654209Y264603D01*
X654050Y265103D01*
X645814Y287026D01*
X645797Y287063D01*
X645785Y287101D01*
X645567Y287579D01*
X634741Y308346D01*
X634720Y308381D01*
X634703Y308417D01*
X634429Y308865D01*
X621173Y328172D01*
X621149Y328204D01*
X621127Y328238D01*
X620801Y328649D01*
X605309Y346213D01*
X605281Y346241D01*
X605256Y346273D01*
X604882Y346642D01*
X587381Y362204D01*
X587350Y362229D01*
X587321Y362257D01*
X586906Y362578D01*
X567652Y375912D01*
X567618Y375933D01*
X567586Y375957D01*
X567135Y376226D01*
X560983Y379464D01*
X551486Y384463D01*
X551486Y384464D01*
X546411Y387135D01*
X546375Y387151D01*
X546340Y387172D01*
X545860Y387384D01*
X523970Y395709D01*
X523932Y395721D01*
X523895Y395737D01*
X523392Y395890D01*
X500657Y401508D01*
X500617Y401516D01*
X500579Y401527D01*
X500061Y401618D01*
X476813Y404448D01*
X476684Y404455D01*
X476361Y404482D01*
X464651Y404837D01*
X464585Y404835D01*
X464500Y404839D01*
X52337Y404839D01*
X52120Y404825D01*
X51902Y404820D01*
X51805Y404806D01*
X51707Y404799D01*
X51493Y404758D01*
X51277Y404726D01*
X51183Y404699D01*
X51086Y404680D01*
X50879Y404612D01*
X50669Y404553D01*
X50579Y404514D01*
X50485Y404483D01*
X50288Y404390D01*
X50088Y404305D01*
X50003Y404255D01*
X49914Y404213D01*
X49730Y404095D01*
X49543Y403985D01*
X49465Y403925D01*
X49382Y403872D01*
X49214Y403732D01*
X49042Y403599D01*
X48972Y403530D01*
X48896Y403467D01*
X48749Y403307D01*
X48594Y403153D01*
X48533Y403076D01*
X48466Y403003D01*
X48340Y402827D01*
X48206Y402655D01*
X48155Y402570D01*
X48098Y402490D01*
X47995Y402298D01*
X47884Y402111D01*
X47844Y402020D01*
X47798Y401934D01*
X47719Y401731D01*
X47633Y401531D01*
X47605Y401436D01*
X47570Y401344D01*
X47517Y401133D01*
X47457Y400923D01*
X47442Y400826D01*
X47418Y400730D01*
X47393Y400514D01*
X47359Y400299D01*
X47356Y400201D01*
X47345Y400103D01*
X47347Y399885D01*
X47341Y399667D01*
X47351Y399569D01*
X47352Y399470D01*
X47382Y399255D01*
X47403Y399038D01*
X47425Y398942D01*
X47438Y398844D01*
X47495Y398634D01*
X47543Y398422D01*
X47581Y398316D01*
X47603Y398234D01*
X47652Y398115D01*
X47719Y397927D01*
X48521Y395991D01*
X48521Y391009D01*
X46615Y386408D01*
X43092Y382885D01*
X38491Y380979D01*
X35321Y380979D01*
X35104Y380965D01*
X34886Y380960D01*
X34788Y380946D01*
X34690Y380939D01*
X34476Y380898D01*
X34261Y380866D01*
X34166Y380839D01*
X34069Y380820D01*
X33862Y380752D01*
X33653Y380693D01*
X33562Y380654D01*
X33469Y380623D01*
X33272Y380530D01*
X33072Y380445D01*
X32987Y380395D01*
X32897Y380353D01*
X32714Y380235D01*
X32526Y380125D01*
X32448Y380065D01*
X32365Y380012D01*
X32198Y379872D01*
X32025Y379739D01*
X31956Y379670D01*
X31880Y379607D01*
X31732Y379447D01*
X31577Y379293D01*
X31517Y379216D01*
X31450Y379143D01*
X31323Y378966D01*
X31189Y378795D01*
X31139Y378710D01*
X31082Y378630D01*
X30978Y378438D01*
X30867Y378251D01*
X30828Y378160D01*
X30781Y378074D01*
X30703Y377871D01*
X30616Y377671D01*
X30589Y377576D01*
X30553Y377484D01*
X30501Y377273D01*
X30440Y377063D01*
X30425Y376966D01*
X30402Y376870D01*
X30376Y376654D01*
X30343Y376439D01*
X30340Y376340D01*
X30329Y376243D01*
X30331Y376025D01*
X30325Y375807D01*
X30334Y375709D01*
X30335Y375610D01*
X30365Y375395D01*
X30386Y375178D01*
X30408Y375082D01*
X30422Y374984D01*
X30479Y374774D01*
X30527Y374562D01*
X30565Y374456D01*
X30587Y374374D01*
X30636Y374255D01*
X30702Y374067D01*
X31561Y371994D01*
X31561Y357006D01*
X30448Y354319D01*
X28391Y352262D01*
X25704Y351149D01*
X22796Y351149D01*
X20109Y352262D01*
X18052Y354319D01*
X16939Y357006D01*
X16939Y371994D01*
X18052Y374681D01*
X20109Y376738D01*
X23383Y378094D01*
X23603Y378160D01*
X23663Y378186D01*
X23725Y378207D01*
X23952Y378314D01*
X24181Y378415D01*
X24237Y378449D01*
X24296Y378477D01*
X24508Y378613D01*
X24722Y378742D01*
X24773Y378783D01*
X24829Y378818D01*
X25021Y378979D01*
X25218Y379134D01*
X25264Y379181D01*
X25314Y379223D01*
X25484Y379407D01*
X25660Y379586D01*
X25699Y379638D01*
X25744Y379687D01*
X25890Y379890D01*
X26041Y380090D01*
X26074Y380147D01*
X26112Y380200D01*
X26231Y380421D01*
X26356Y380638D01*
X26382Y380699D01*
X26413Y380756D01*
X26503Y380990D01*
X26600Y381221D01*
X26617Y381285D01*
X26641Y381346D01*
X26701Y381589D01*
X26767Y381831D01*
X26777Y381896D01*
X26792Y381960D01*
X26821Y382208D01*
X26857Y382457D01*
X26858Y382522D01*
X26865Y382587D01*
X26863Y382837D01*
X26867Y383089D01*
X26859Y383154D01*
X26859Y383220D01*
X26824Y383467D01*
X26797Y383717D01*
X26781Y383781D01*
X26772Y383846D01*
X26707Y384087D01*
X26648Y384331D01*
X26624Y384393D01*
X26607Y384456D01*
X26512Y384687D01*
X26423Y384922D01*
X26392Y384980D01*
X26367Y385040D01*
X26243Y385258D01*
X26125Y385479D01*
X26087Y385533D01*
X26055Y385590D01*
X25904Y385790D01*
X25759Y385995D01*
X25710Y386050D01*
X25675Y386096D01*
X25578Y386196D01*
X25408Y386385D01*
X25385Y386408D01*
X23479Y391009D01*
X23479Y395991D01*
X24281Y397927D01*
X24352Y398132D01*
X24430Y398336D01*
X24454Y398432D01*
X24486Y398525D01*
X24530Y398738D01*
X24582Y398950D01*
X24593Y399048D01*
X24613Y399144D01*
X24630Y399361D01*
X24655Y399577D01*
X24654Y399676D01*
X24661Y399774D01*
X24651Y399992D01*
X24648Y400210D01*
X24635Y400307D01*
X24630Y400406D01*
X24592Y400620D01*
X24562Y400836D01*
X24536Y400931D01*
X24519Y401028D01*
X24454Y401236D01*
X24397Y401446D01*
X24359Y401537D01*
X24330Y401631D01*
X24239Y401829D01*
X24156Y402030D01*
X24108Y402116D01*
X24067Y402206D01*
X23952Y402391D01*
X23844Y402580D01*
X23785Y402659D01*
X23733Y402743D01*
X23596Y402911D01*
X23465Y403086D01*
X23396Y403156D01*
X23334Y403233D01*
X23177Y403383D01*
X23025Y403540D01*
X22948Y403601D01*
X22877Y403669D01*
X22702Y403798D01*
X22531Y403934D01*
X22447Y403986D01*
X22368Y404044D01*
X22178Y404150D01*
X21992Y404264D01*
X21902Y404304D01*
X21816Y404352D01*
X21614Y404433D01*
X21415Y404522D01*
X21321Y404551D01*
X21229Y404587D01*
X21019Y404642D01*
X20810Y404706D01*
X20713Y404722D01*
X20618Y404747D01*
X20402Y404775D01*
X20187Y404812D01*
X20075Y404818D01*
X19991Y404828D01*
X19862Y404829D01*
X19663Y404839D01*
X-19663Y404839D01*
X-19880Y404825D01*
X-20098Y404820D01*
X-20195Y404806D01*
X-20293Y404799D01*
X-20507Y404758D01*
X-20723Y404726D01*
X-20817Y404699D01*
X-20914Y404680D01*
X-21121Y404612D01*
X-21331Y404553D01*
X-21421Y404514D01*
X-21515Y404483D01*
X-21712Y404390D01*
X-21912Y404305D01*
X-21997Y404255D01*
X-22086Y404213D01*
X-22270Y404095D01*
X-22457Y403985D01*
X-22535Y403925D01*
X-22618Y403872D01*
X-22786Y403732D01*
X-22958Y403599D01*
X-23028Y403530D01*
X-23104Y403467D01*
X-23251Y403307D01*
X-23406Y403153D01*
X-23467Y403076D01*
X-23534Y403003D01*
X-23660Y402827D01*
X-23794Y402655D01*
X-23845Y402570D01*
X-23902Y402490D01*
X-24005Y402298D01*
X-24116Y402111D01*
X-24156Y402020D01*
X-24202Y401934D01*
X-24281Y401731D01*
X-24367Y401531D01*
X-24395Y401436D01*
X-24430Y401344D01*
X-24483Y401133D01*
X-24543Y400923D01*
X-24558Y400826D01*
X-24582Y400730D01*
X-24607Y400514D01*
X-24641Y400299D01*
X-24644Y400201D01*
X-24655Y400103D01*
X-24653Y399885D01*
X-24659Y399667D01*
X-24649Y399569D01*
X-24648Y399470D01*
X-24618Y399255D01*
X-24597Y399038D01*
X-24575Y398942D01*
X-24562Y398844D01*
X-24505Y398634D01*
X-24457Y398422D01*
X-24419Y398316D01*
X-24397Y398234D01*
X-24348Y398115D01*
X-24281Y397927D01*
X-23479Y395991D01*
X-23479Y391009D01*
X-25385Y386408D01*
X-25408Y386385D01*
X-25574Y386197D01*
X-25744Y386013D01*
X-25782Y385960D01*
X-25826Y385911D01*
X-25967Y385703D01*
X-26112Y385500D01*
X-26143Y385442D01*
X-26180Y385388D01*
X-26294Y385164D01*
X-26413Y384944D01*
X-26437Y384882D01*
X-26466Y384824D01*
X-26550Y384588D01*
X-26641Y384354D01*
X-26656Y384290D01*
X-26679Y384228D01*
X-26732Y383984D01*
X-26792Y383740D01*
X-26800Y383675D01*
X-26814Y383611D01*
X-26837Y383361D01*
X-26865Y383113D01*
X-26865Y383047D01*
X-26871Y382981D01*
X-26861Y382730D01*
X-26859Y382480D01*
X-26850Y382415D01*
X-26847Y382350D01*
X-26806Y382102D01*
X-26772Y381854D01*
X-26755Y381791D01*
X-26744Y381726D01*
X-26673Y381485D01*
X-26607Y381244D01*
X-26582Y381184D01*
X-26564Y381120D01*
X-26462Y380891D01*
X-26367Y380660D01*
X-26334Y380602D01*
X-26308Y380542D01*
X-26178Y380328D01*
X-26055Y380110D01*
X-26015Y380057D01*
X-25981Y380001D01*
X-25826Y379805D01*
X-25675Y379604D01*
X-25630Y379557D01*
X-25589Y379506D01*
X-25410Y379331D01*
X-25235Y379150D01*
X-25184Y379109D01*
X-25137Y379063D01*
X-24937Y378912D01*
X-24742Y378756D01*
X-24686Y378721D01*
X-24633Y378682D01*
X-24416Y378557D01*
X-24202Y378426D01*
X-24142Y378400D01*
X-24085Y378367D01*
X-23854Y378270D01*
X-23625Y378168D01*
X-23563Y378149D01*
X-23502Y378124D01*
X-23360Y378085D01*
X-20109Y376738D01*
X-18052Y374681D01*
X-16939Y371994D01*
X-16939Y357006D01*
X-18052Y354319D01*
X-20109Y352262D01*
X-22796Y351149D01*
X-25704Y351149D01*
X-28391Y352262D01*
X-30448Y354319D01*
X-31561Y357006D01*
X-31561Y371994D01*
X-30702Y374067D01*
X-30632Y374273D01*
X-30553Y374476D01*
X-30530Y374572D01*
X-30498Y374665D01*
X-30454Y374878D01*
X-30402Y375090D01*
X-30390Y375188D01*
X-30370Y375284D01*
X-30354Y375501D01*
X-30329Y375717D01*
X-30330Y375816D01*
X-30322Y375914D01*
X-30333Y376132D01*
X-30335Y376350D01*
X-30349Y376447D01*
X-30354Y376546D01*
X-30392Y376760D01*
X-30422Y376976D01*
X-30448Y377071D01*
X-30465Y377168D01*
X-30530Y377376D01*
X-30587Y377586D01*
X-30624Y377677D01*
X-30654Y377771D01*
X-30744Y377969D01*
X-30827Y378170D01*
X-30876Y378256D01*
X-30917Y378346D01*
X-31032Y378531D01*
X-31139Y378720D01*
X-31199Y378799D01*
X-31251Y378883D01*
X-31388Y379052D01*
X-31519Y379226D01*
X-31587Y379296D01*
X-31649Y379373D01*
X-31807Y379523D01*
X-31959Y379680D01*
X-32036Y379741D01*
X-32107Y379809D01*
X-32282Y379938D01*
X-32452Y380074D01*
X-32536Y380126D01*
X-32616Y380184D01*
X-32806Y380290D01*
X-32992Y380404D01*
X-33082Y380444D01*
X-33168Y380492D01*
X-33370Y380573D01*
X-33569Y380662D01*
X-33663Y380691D01*
X-33754Y380727D01*
X-33965Y380782D01*
X-34173Y380846D01*
X-34271Y380862D01*
X-34366Y380887D01*
X-34582Y380915D01*
X-34797Y380952D01*
X-34909Y380958D01*
X-34993Y380968D01*
X-35122Y380969D01*
X-35321Y380979D01*
X-38491Y380979D01*
X-43092Y382885D01*
X-46615Y386408D01*
X-48521Y391009D01*
X-48521Y395991D01*
X-47719Y397927D01*
X-47648Y398132D01*
X-47570Y398336D01*
X-47546Y398432D01*
X-47514Y398525D01*
X-47470Y398738D01*
X-47418Y398950D01*
X-47407Y399048D01*
X-47387Y399144D01*
X-47370Y399361D01*
X-47345Y399577D01*
X-47346Y399676D01*
X-47339Y399774D01*
X-47349Y399992D01*
X-47352Y400210D01*
X-47365Y400307D01*
X-47370Y400406D01*
X-47408Y400620D01*
X-47438Y400836D01*
X-47464Y400931D01*
X-47481Y401028D01*
X-47546Y401236D01*
X-47603Y401446D01*
X-47641Y401537D01*
X-47670Y401631D01*
X-47761Y401829D01*
X-47844Y402030D01*
X-47892Y402116D01*
X-47933Y402206D01*
X-48048Y402391D01*
X-48156Y402580D01*
X-48215Y402659D01*
X-48267Y402743D01*
X-48404Y402911D01*
X-48535Y403086D01*
X-48604Y403156D01*
X-48666Y403233D01*
X-48823Y403383D01*
X-48975Y403540D01*
X-49052Y403601D01*
X-49123Y403669D01*
X-49298Y403798D01*
X-49469Y403934D01*
X-49553Y403986D01*
X-49632Y404044D01*
X-49822Y404150D01*
X-50008Y404264D01*
X-50098Y404304D01*
X-50184Y404352D01*
X-50386Y404433D01*
X-50585Y404522D01*
X-50679Y404551D01*
X-50771Y404587D01*
X-50981Y404642D01*
X-51190Y404706D01*
X-51287Y404722D01*
X-51382Y404747D01*
X-51598Y404775D01*
X-51813Y404812D01*
X-51925Y404818D01*
X-52009Y404828D01*
X-52138Y404829D01*
X-52337Y404839D01*
X-464500Y404839D01*
X-464566Y404835D01*
X-464652Y404837D01*
X-476361Y404482D01*
X-476490Y404470D01*
X-476814Y404448D01*
X-500062Y401618D01*
X-500102Y401610D01*
X-500141Y401607D01*
X-500657Y401508D01*
X-523392Y395890D01*
X-523431Y395878D01*
X-523470Y395870D01*
X-523970Y395709D01*
X-545860Y387384D01*
X-545897Y387367D01*
X-545935Y387355D01*
X-546412Y387135D01*
X-567135Y376226D01*
X-567169Y376205D01*
X-567206Y376188D01*
X-567424Y376053D01*
X-567546Y375984D01*
X-567592Y375950D01*
X-567653Y375912D01*
X-586906Y362578D01*
X-586938Y362553D01*
X-586971Y362532D01*
X-587193Y362355D01*
X-587305Y362271D01*
X-587338Y362239D01*
X-587382Y362204D01*
X-604882Y346642D01*
X-604911Y346613D01*
X-604942Y346588D01*
X-605309Y346213D01*
X-620801Y328650D01*
X-620826Y328618D01*
X-620854Y328589D01*
X-621173Y328172D01*
X-634429Y308865D01*
X-634450Y308831D01*
X-634474Y308799D01*
X-634741Y308347D01*
X-645567Y287580D01*
X-645583Y287543D01*
X-645603Y287508D01*
X-645813Y287027D01*
X-654050Y265104D01*
X-654062Y265065D01*
X-654078Y265028D01*
X-654228Y264525D01*
X-659755Y241767D01*
X-659778Y241640D01*
X-659842Y241322D01*
X-661563Y229734D01*
X-661568Y229668D01*
X-661583Y229584D01*
X-721201Y-277171D01*
X-721553Y-280165D01*
X-721558Y-280248D01*
X-721572Y-280356D01*
X-722324Y-289879D01*
X-722324Y-289904D01*
X-722327Y-289929D01*
X-722336Y-290454D01*
X-721642Y-309533D01*
X-721630Y-309653D01*
X-721628Y-309774D01*
X-721593Y-310023D01*
X-721579Y-310162D01*
X-721566Y-310219D01*
X-721556Y-310294D01*
X-717954Y-329043D01*
X-717924Y-329160D01*
X-717903Y-329279D01*
X-717831Y-329520D01*
X-717796Y-329655D01*
X-717774Y-329710D01*
X-717752Y-329782D01*
X-711328Y-347760D01*
X-711280Y-347871D01*
X-711241Y-347986D01*
X-711133Y-348212D01*
X-711078Y-348340D01*
X-711048Y-348391D01*
X-711015Y-348460D01*
X-701918Y-365244D01*
X-701854Y-365347D01*
X-701798Y-365454D01*
X-701656Y-365662D01*
X-701582Y-365780D01*
X-701545Y-365825D01*
X-701502Y-365888D01*
X-689947Y-381085D01*
X-689867Y-381177D01*
X-689796Y-381274D01*
X-689624Y-381457D01*
X-689533Y-381563D01*
X-689489Y-381602D01*
X-689437Y-381658D01*
X-675695Y-394910D01*
X-675603Y-394988D01*
X-675517Y-395073D01*
X-675320Y-395228D01*
X-675213Y-395319D01*
X-675163Y-395351D01*
X-675104Y-395398D01*
X-659497Y-406394D01*
X-659394Y-406457D01*
X-659296Y-406528D01*
X-659078Y-406651D01*
X-658959Y-406724D01*
X-658905Y-406749D01*
X-658839Y-406786D01*
X-641735Y-415267D01*
X-641624Y-415314D01*
X-641516Y-415369D01*
X-641281Y-415457D01*
X-641152Y-415511D01*
X-641095Y-415527D01*
X-641024Y-415554D01*
X-622825Y-421321D01*
X-622708Y-421350D01*
X-622593Y-421389D01*
X-622348Y-421440D01*
X-622212Y-421474D01*
X-622153Y-421481D01*
X-622079Y-421496D01*
X-603212Y-424414D01*
X-603187Y-424416D01*
X-603163Y-424422D01*
X-602640Y-424469D01*
X-593094Y-424836D01*
X-593012Y-424834D01*
X-592902Y-424839D01*
X592902Y-424839D01*
X592985Y-424834D01*
G37*
%LPC*%
G36*
X-14055Y-135611D02*
X-14055Y-135611D01*
X-16558Y-134574D01*
X-18474Y-132658D01*
X-19511Y-130155D01*
X-19511Y-127445D01*
X-18474Y-124942D01*
X-16558Y-123026D01*
X-13136Y-121609D01*
X-12950Y-121518D01*
X-12740Y-121425D01*
X-12684Y-121391D01*
X-12625Y-121363D01*
X-12594Y-121343D01*
X-12569Y-121330D01*
X-12398Y-121218D01*
X-12199Y-121098D01*
X-12148Y-121057D01*
X-12092Y-121022D01*
X-12063Y-120997D01*
X-12041Y-120983D01*
X-11888Y-120852D01*
X-11704Y-120706D01*
X-11658Y-120659D01*
X-11607Y-120617D01*
X-11581Y-120588D01*
X-11561Y-120571D01*
X-11427Y-120424D01*
X-11261Y-120254D01*
X-11222Y-120201D01*
X-11177Y-120153D01*
X-11154Y-120121D01*
X-11137Y-120102D01*
X-11024Y-119941D01*
X-10880Y-119750D01*
X-10847Y-119693D01*
X-10809Y-119640D01*
X-10790Y-119604D01*
X-10775Y-119584D01*
X-10685Y-119411D01*
X-10565Y-119202D01*
X-10540Y-119141D01*
X-10508Y-119084D01*
X-10494Y-119046D01*
X-10482Y-119024D01*
X-10415Y-118842D01*
X-10322Y-118619D01*
X-10304Y-118555D01*
X-10280Y-118494D01*
X-10271Y-118454D01*
X-10262Y-118431D01*
X-10218Y-118244D01*
X-10154Y-118009D01*
X-10145Y-117944D01*
X-10129Y-117880D01*
X-10124Y-117839D01*
X-10119Y-117816D01*
X-10099Y-117625D01*
X-10064Y-117384D01*
X-10063Y-117318D01*
X-10056Y-117253D01*
X-10056Y-117211D01*
X-10054Y-117187D01*
X-10058Y-116996D01*
X-10055Y-116752D01*
X-10062Y-116686D01*
X-10063Y-116620D01*
X-10068Y-116579D01*
X-10069Y-116555D01*
X-10098Y-116366D01*
X-10125Y-116123D01*
X-10140Y-116059D01*
X-10149Y-115994D01*
X-10160Y-115954D01*
X-10164Y-115930D01*
X-10216Y-115745D01*
X-10273Y-115509D01*
X-10297Y-115447D01*
X-10314Y-115384D01*
X-10330Y-115346D01*
X-10336Y-115322D01*
X-10412Y-115144D01*
X-10498Y-114918D01*
X-10529Y-114860D01*
X-10554Y-114800D01*
X-10575Y-114764D01*
X-10585Y-114741D01*
X-10683Y-114573D01*
X-10796Y-114361D01*
X-10834Y-114307D01*
X-10867Y-114250D01*
X-10891Y-114217D01*
X-10904Y-114195D01*
X-11024Y-114040D01*
X-11162Y-113845D01*
X-11211Y-113790D01*
X-11246Y-113744D01*
X-11274Y-113715D01*
X-11290Y-113695D01*
X-11370Y-113614D01*
X-11513Y-113455D01*
X-18433Y-106535D01*
X-18523Y-106456D01*
X-18606Y-106370D01*
X-18760Y-106247D01*
X-18908Y-106117D01*
X-19006Y-106050D01*
X-19100Y-105976D01*
X-19268Y-105873D01*
X-19431Y-105763D01*
X-19537Y-105709D01*
X-19639Y-105646D01*
X-19819Y-105566D01*
X-19995Y-105477D01*
X-20107Y-105437D01*
X-20216Y-105388D01*
X-20404Y-105331D01*
X-20590Y-105264D01*
X-20706Y-105239D01*
X-20821Y-105204D01*
X-21015Y-105171D01*
X-21207Y-105129D01*
X-21326Y-105118D01*
X-21444Y-105098D01*
X-21698Y-105085D01*
X-21837Y-105072D01*
X-21895Y-105075D01*
X-21968Y-105071D01*
X-63547Y-105071D01*
X-65852Y-104116D01*
X-176826Y6858D01*
X-177781Y9163D01*
X-177781Y62037D01*
X-176826Y64342D01*
X-161797Y79371D01*
X-161740Y79436D01*
X-161677Y79495D01*
X-161531Y79673D01*
X-161380Y79845D01*
X-161331Y79917D01*
X-161276Y79984D01*
X-161154Y80178D01*
X-161025Y80368D01*
X-160986Y80446D01*
X-160940Y80519D01*
X-160797Y80819D01*
X-160739Y80932D01*
X-160729Y80960D01*
X-160714Y80993D01*
X-160157Y82336D01*
X-157656Y84837D01*
X-156343Y85381D01*
X-156118Y85492D01*
X-155890Y85596D01*
X-155834Y85631D01*
X-155775Y85660D01*
X-155566Y85797D01*
X-155353Y85930D01*
X-155302Y85971D01*
X-155247Y86007D01*
X-155057Y86170D01*
X-154863Y86328D01*
X-154817Y86376D01*
X-154768Y86419D01*
X-154600Y86604D01*
X-154427Y86786D01*
X-154387Y86839D01*
X-154343Y86888D01*
X-154200Y87093D01*
X-154052Y87295D01*
X-154020Y87352D01*
X-153982Y87406D01*
X-153866Y87628D01*
X-153744Y87847D01*
X-153719Y87908D01*
X-153689Y87966D01*
X-153602Y88201D01*
X-153508Y88433D01*
X-153492Y88497D01*
X-153469Y88559D01*
X-153412Y88803D01*
X-153349Y89045D01*
X-153340Y89110D01*
X-153325Y89174D01*
X-153299Y89424D01*
X-153267Y89672D01*
X-153267Y89737D01*
X-153260Y89803D01*
X-153266Y90053D01*
X-153266Y90304D01*
X-153274Y90369D01*
X-153275Y90435D01*
X-153313Y90682D01*
X-153344Y90931D01*
X-153360Y90995D01*
X-153370Y91060D01*
X-153439Y91301D01*
X-153501Y91544D01*
X-153525Y91605D01*
X-153543Y91668D01*
X-153641Y91899D01*
X-153734Y92131D01*
X-153765Y92189D01*
X-153791Y92249D01*
X-153918Y92465D01*
X-154039Y92685D01*
X-154077Y92738D01*
X-154111Y92795D01*
X-154263Y92993D01*
X-154411Y93196D01*
X-154456Y93243D01*
X-154496Y93295D01*
X-154673Y93473D01*
X-154845Y93655D01*
X-154896Y93697D01*
X-154942Y93743D01*
X-155140Y93897D01*
X-155334Y94056D01*
X-155389Y94091D01*
X-155441Y94132D01*
X-155656Y94259D01*
X-155869Y94393D01*
X-155935Y94424D01*
X-155985Y94454D01*
X-156113Y94509D01*
X-156343Y94619D01*
X-157656Y95163D01*
X-160157Y97664D01*
X-161511Y100932D01*
X-161511Y104468D01*
X-160157Y107736D01*
X-157622Y110272D01*
X-157572Y110297D01*
X-157337Y110413D01*
X-157292Y110443D01*
X-157243Y110468D01*
X-157028Y110616D01*
X-156809Y110760D01*
X-156768Y110796D01*
X-156723Y110827D01*
X-156528Y111001D01*
X-156329Y111172D01*
X-156293Y111212D01*
X-156252Y111249D01*
X-156081Y111447D01*
X-155905Y111641D01*
X-155874Y111685D01*
X-155839Y111727D01*
X-155694Y111944D01*
X-155544Y112159D01*
X-155519Y112208D01*
X-155489Y112253D01*
X-155372Y112487D01*
X-155251Y112719D01*
X-155232Y112770D01*
X-155208Y112819D01*
X-155122Y113066D01*
X-155031Y113312D01*
X-155018Y113365D01*
X-155001Y113416D01*
X-154947Y113673D01*
X-154887Y113927D01*
X-154882Y113981D01*
X-154870Y114035D01*
X-154849Y114296D01*
X-154822Y114556D01*
X-154824Y114611D01*
X-154819Y114665D01*
X-154831Y114927D01*
X-154837Y115188D01*
X-154846Y115242D01*
X-154848Y115296D01*
X-154893Y115554D01*
X-154932Y115813D01*
X-154947Y115865D01*
X-154956Y115919D01*
X-155033Y116169D01*
X-155105Y116421D01*
X-155126Y116471D01*
X-155142Y116523D01*
X-155250Y116762D01*
X-155353Y117002D01*
X-155381Y117049D01*
X-155403Y117099D01*
X-155540Y117322D01*
X-155673Y117548D01*
X-155706Y117591D01*
X-155734Y117637D01*
X-155898Y117841D01*
X-156058Y118048D01*
X-156097Y118087D01*
X-156131Y118129D01*
X-156319Y118311D01*
X-156504Y118496D01*
X-156547Y118530D01*
X-156586Y118568D01*
X-156797Y118724D01*
X-157003Y118885D01*
X-157050Y118912D01*
X-157094Y118945D01*
X-157540Y119203D01*
X-157547Y119207D01*
X-157548Y119207D01*
X-157945Y119410D01*
X-159239Y120350D01*
X-160370Y121481D01*
X-161310Y122775D01*
X-161476Y123101D01*
X-145000Y123101D01*
X-144816Y123112D01*
X-144631Y123114D01*
X-144501Y123132D01*
X-144370Y123141D01*
X-144188Y123175D01*
X-144005Y123201D01*
X-143878Y123235D01*
X-143749Y123260D01*
X-143573Y123317D01*
X-143394Y123366D01*
X-143273Y123415D01*
X-143148Y123456D01*
X-142981Y123536D01*
X-142810Y123606D01*
X-142696Y123671D01*
X-142577Y123727D01*
X-142421Y123827D01*
X-142260Y123918D01*
X-142155Y123997D01*
X-142045Y124068D01*
X-141902Y124187D01*
X-141755Y124298D01*
X-141660Y124389D01*
X-141559Y124473D01*
X-141559Y124474D01*
X-141433Y124609D01*
X-141301Y124737D01*
X-141300Y124738D01*
X-141218Y124841D01*
X-141129Y124937D01*
X-141021Y125087D01*
X-140906Y125232D01*
X-140837Y125344D01*
X-140761Y125451D01*
X-140673Y125613D01*
X-140576Y125771D01*
X-140522Y125891D01*
X-140460Y126007D01*
X-140393Y126179D01*
X-140318Y126348D01*
X-140280Y126474D01*
X-140232Y126596D01*
X-140188Y126776D01*
X-140134Y126953D01*
X-140112Y127083D01*
X-140081Y127210D01*
X-140059Y127393D01*
X-140028Y127576D01*
X-140020Y127730D01*
X-140007Y127838D01*
X-140009Y127947D01*
X-140001Y128100D01*
X-140001Y138261D01*
X-136580Y138261D01*
X-135001Y138011D01*
X-133480Y137516D01*
X-132055Y136790D01*
X-130761Y135850D01*
X-129630Y134719D01*
X-128690Y133425D01*
X-127854Y131785D01*
X-127842Y131754D01*
X-127796Y131672D01*
X-127785Y131650D01*
X-127777Y131636D01*
X-127724Y131521D01*
X-127626Y131363D01*
X-127537Y131201D01*
X-127459Y131095D01*
X-127390Y130984D01*
X-127273Y130840D01*
X-127164Y130690D01*
X-127074Y130595D01*
X-126991Y130493D01*
X-126858Y130366D01*
X-126730Y130231D01*
X-126629Y130148D01*
X-126534Y130057D01*
X-126385Y129947D01*
X-126241Y129830D01*
X-126131Y129760D01*
X-126025Y129682D01*
X-125863Y129592D01*
X-125706Y129493D01*
X-125588Y129438D01*
X-125473Y129375D01*
X-125301Y129305D01*
X-125133Y129227D01*
X-125008Y129188D01*
X-124886Y129139D01*
X-124707Y129092D01*
X-124530Y129036D01*
X-124402Y129012D01*
X-124275Y128979D01*
X-124091Y128955D01*
X-123909Y128922D01*
X-123778Y128915D01*
X-123648Y128898D01*
X-123463Y128898D01*
X-123278Y128887D01*
X-123147Y128897D01*
X-123016Y128896D01*
X-122832Y128919D01*
X-122647Y128933D01*
X-122519Y128958D01*
X-122389Y128975D01*
X-122209Y129021D01*
X-122027Y129057D01*
X-121903Y129099D01*
X-121776Y129131D01*
X-121604Y129200D01*
X-121428Y129259D01*
X-121311Y129316D01*
X-121189Y129364D01*
X-121026Y129454D01*
X-120860Y129535D01*
X-120750Y129606D01*
X-120635Y129669D01*
X-120486Y129778D01*
X-120330Y129880D01*
X-120230Y129965D01*
X-120124Y130042D01*
X-119990Y130169D01*
X-119848Y130289D01*
X-119760Y130386D01*
X-119665Y130476D01*
X-119547Y130619D01*
X-119422Y130756D01*
X-119347Y130863D01*
X-119264Y130964D01*
X-119165Y131121D01*
X-119058Y131273D01*
X-118997Y131389D01*
X-118927Y131499D01*
X-118827Y131710D01*
X-118763Y131831D01*
X-118739Y131895D01*
X-118701Y131973D01*
X-117451Y134991D01*
X-115977Y136465D01*
X-115855Y136604D01*
X-115726Y136736D01*
X-115646Y136841D01*
X-115559Y136939D01*
X-115456Y137092D01*
X-115344Y137240D01*
X-115278Y137354D01*
X-115205Y137463D01*
X-115121Y137627D01*
X-115029Y137788D01*
X-114978Y137909D01*
X-114919Y138026D01*
X-114857Y138200D01*
X-114786Y138371D01*
X-114751Y138498D01*
X-114707Y138622D01*
X-114667Y138802D01*
X-114618Y138981D01*
X-114599Y139111D01*
X-114571Y139239D01*
X-114555Y139423D01*
X-114529Y139606D01*
X-114526Y139738D01*
X-114515Y139869D01*
X-114522Y140053D01*
X-114519Y140238D01*
X-114533Y140369D01*
X-114538Y140500D01*
X-114568Y140683D01*
X-114589Y140867D01*
X-114620Y140995D01*
X-114641Y141124D01*
X-114694Y141301D01*
X-114737Y141481D01*
X-114784Y141604D01*
X-114822Y141730D01*
X-114897Y141899D01*
X-114962Y142072D01*
X-115024Y142187D01*
X-115078Y142308D01*
X-115173Y142466D01*
X-115260Y142629D01*
X-115336Y142736D01*
X-115404Y142849D01*
X-115519Y142994D01*
X-115626Y143145D01*
X-115729Y143259D01*
X-115796Y143344D01*
X-115875Y143421D01*
X-115977Y143535D01*
X-117451Y145009D01*
X-118793Y148247D01*
X-118793Y151753D01*
X-117451Y154991D01*
X-115977Y156465D01*
X-115855Y156604D01*
X-115726Y156736D01*
X-115646Y156841D01*
X-115559Y156939D01*
X-115456Y157092D01*
X-115344Y157240D01*
X-115278Y157354D01*
X-115205Y157463D01*
X-115121Y157627D01*
X-115029Y157788D01*
X-114978Y157909D01*
X-114919Y158026D01*
X-114857Y158200D01*
X-114786Y158371D01*
X-114751Y158498D01*
X-114707Y158622D01*
X-114667Y158802D01*
X-114618Y158981D01*
X-114599Y159111D01*
X-114571Y159239D01*
X-114555Y159423D01*
X-114529Y159606D01*
X-114526Y159738D01*
X-114515Y159869D01*
X-114522Y160053D01*
X-114519Y160238D01*
X-114533Y160369D01*
X-114538Y160500D01*
X-114568Y160683D01*
X-114589Y160867D01*
X-114620Y160995D01*
X-114641Y161124D01*
X-114694Y161301D01*
X-114737Y161481D01*
X-114784Y161604D01*
X-114822Y161730D01*
X-114897Y161899D01*
X-114962Y162072D01*
X-115024Y162187D01*
X-115078Y162308D01*
X-115173Y162466D01*
X-115260Y162629D01*
X-115336Y162736D01*
X-115404Y162849D01*
X-115519Y162994D01*
X-115626Y163145D01*
X-115729Y163259D01*
X-115796Y163344D01*
X-115875Y163421D01*
X-115977Y163535D01*
X-117451Y165009D01*
X-118793Y168247D01*
X-118793Y171753D01*
X-117451Y174991D01*
X-115977Y176465D01*
X-115855Y176604D01*
X-115726Y176736D01*
X-115646Y176841D01*
X-115559Y176939D01*
X-115456Y177092D01*
X-115344Y177240D01*
X-115278Y177354D01*
X-115205Y177463D01*
X-115121Y177627D01*
X-115029Y177788D01*
X-114978Y177909D01*
X-114919Y178026D01*
X-114857Y178200D01*
X-114786Y178371D01*
X-114751Y178498D01*
X-114707Y178622D01*
X-114667Y178802D01*
X-114618Y178981D01*
X-114599Y179111D01*
X-114571Y179239D01*
X-114555Y179423D01*
X-114529Y179606D01*
X-114526Y179738D01*
X-114515Y179869D01*
X-114522Y180053D01*
X-114519Y180238D01*
X-114533Y180369D01*
X-114538Y180500D01*
X-114568Y180683D01*
X-114589Y180867D01*
X-114620Y180995D01*
X-114641Y181124D01*
X-114694Y181301D01*
X-114737Y181481D01*
X-114784Y181604D01*
X-114822Y181730D01*
X-114897Y181899D01*
X-114962Y182072D01*
X-115024Y182187D01*
X-115078Y182308D01*
X-115173Y182466D01*
X-115260Y182629D01*
X-115336Y182736D01*
X-115404Y182849D01*
X-115519Y182994D01*
X-115626Y183145D01*
X-115729Y183259D01*
X-115796Y183344D01*
X-115875Y183421D01*
X-115977Y183535D01*
X-117451Y185009D01*
X-118793Y188247D01*
X-118793Y191753D01*
X-117451Y194991D01*
X-115977Y196465D01*
X-115855Y196604D01*
X-115726Y196736D01*
X-115646Y196841D01*
X-115559Y196939D01*
X-115456Y197092D01*
X-115344Y197240D01*
X-115278Y197354D01*
X-115205Y197463D01*
X-115121Y197627D01*
X-115029Y197788D01*
X-114978Y197909D01*
X-114919Y198026D01*
X-114857Y198200D01*
X-114786Y198371D01*
X-114751Y198498D01*
X-114707Y198622D01*
X-114667Y198802D01*
X-114618Y198981D01*
X-114599Y199111D01*
X-114571Y199239D01*
X-114555Y199423D01*
X-114529Y199606D01*
X-114526Y199738D01*
X-114515Y199869D01*
X-114522Y200053D01*
X-114519Y200238D01*
X-114533Y200369D01*
X-114538Y200500D01*
X-114568Y200683D01*
X-114589Y200867D01*
X-114620Y200995D01*
X-114641Y201124D01*
X-114694Y201301D01*
X-114737Y201481D01*
X-114784Y201604D01*
X-114822Y201730D01*
X-114897Y201899D01*
X-114962Y202072D01*
X-115024Y202187D01*
X-115078Y202308D01*
X-115173Y202466D01*
X-115260Y202629D01*
X-115336Y202736D01*
X-115404Y202849D01*
X-115519Y202994D01*
X-115626Y203145D01*
X-115729Y203259D01*
X-115796Y203344D01*
X-115875Y203421D01*
X-115977Y203535D01*
X-117451Y205009D01*
X-118793Y208247D01*
X-118793Y211753D01*
X-117451Y214991D01*
X-114973Y217469D01*
X-111735Y218811D01*
X-108229Y218811D01*
X-104991Y217469D01*
X-102513Y214991D01*
X-101171Y211753D01*
X-101171Y208247D01*
X-102513Y205009D01*
X-103987Y203535D01*
X-104109Y203396D01*
X-104238Y203264D01*
X-104318Y203159D01*
X-104405Y203061D01*
X-104508Y202907D01*
X-104620Y202760D01*
X-104685Y202646D01*
X-104759Y202537D01*
X-104843Y202372D01*
X-104935Y202212D01*
X-104985Y202091D01*
X-105045Y201974D01*
X-105107Y201799D01*
X-105178Y201629D01*
X-105213Y201502D01*
X-105257Y201378D01*
X-105297Y201198D01*
X-105346Y201019D01*
X-105365Y200889D01*
X-105393Y200761D01*
X-105409Y200577D01*
X-105435Y200394D01*
X-105438Y200262D01*
X-105449Y200131D01*
X-105442Y199946D01*
X-105445Y199761D01*
X-105431Y199631D01*
X-105426Y199500D01*
X-105396Y199317D01*
X-105375Y199133D01*
X-105344Y199005D01*
X-105323Y198876D01*
X-105270Y198699D01*
X-105227Y198519D01*
X-105180Y198396D01*
X-105142Y198270D01*
X-105067Y198101D01*
X-105002Y197928D01*
X-104940Y197812D01*
X-104886Y197692D01*
X-104791Y197534D01*
X-104704Y197371D01*
X-104628Y197264D01*
X-104560Y197151D01*
X-104445Y197006D01*
X-104338Y196855D01*
X-104235Y196741D01*
X-104167Y196655D01*
X-104089Y196579D01*
X-103987Y196465D01*
X-102513Y194991D01*
X-101171Y191753D01*
X-101171Y188247D01*
X-102513Y185009D01*
X-102717Y184805D01*
X-102882Y184617D01*
X-103053Y184433D01*
X-103091Y184380D01*
X-103135Y184331D01*
X-103275Y184123D01*
X-103421Y183920D01*
X-103452Y183862D01*
X-103489Y183807D01*
X-103603Y183584D01*
X-103722Y183364D01*
X-103745Y183302D01*
X-103775Y183244D01*
X-103859Y183008D01*
X-103949Y182774D01*
X-103965Y182710D01*
X-103987Y182648D01*
X-104041Y182404D01*
X-104101Y182160D01*
X-104109Y182095D01*
X-104123Y182031D01*
X-104145Y181781D01*
X-104174Y181533D01*
X-104173Y181467D01*
X-104179Y181401D01*
X-104170Y181150D01*
X-104167Y180900D01*
X-104158Y180835D01*
X-104156Y180770D01*
X-104115Y180522D01*
X-104081Y180274D01*
X-104064Y180211D01*
X-104053Y180146D01*
X-103981Y179906D01*
X-103916Y179664D01*
X-103891Y179603D01*
X-103872Y179540D01*
X-103771Y179311D01*
X-103676Y179080D01*
X-103643Y179022D01*
X-103617Y178962D01*
X-103487Y178748D01*
X-103363Y178530D01*
X-103324Y178477D01*
X-103290Y178421D01*
X-103134Y178225D01*
X-102984Y178024D01*
X-102938Y177977D01*
X-102898Y177926D01*
X-102719Y177750D01*
X-102544Y177570D01*
X-102493Y177529D01*
X-102446Y177483D01*
X-102247Y177333D01*
X-102050Y177176D01*
X-101994Y177141D01*
X-101942Y177102D01*
X-101725Y176977D01*
X-101511Y176846D01*
X-101451Y176820D01*
X-101394Y176787D01*
X-101163Y176690D01*
X-100934Y176588D01*
X-100871Y176569D01*
X-100811Y176544D01*
X-100569Y176477D01*
X-100329Y176404D01*
X-100264Y176393D01*
X-100201Y176376D01*
X-99953Y176340D01*
X-99706Y176298D01*
X-99632Y176294D01*
X-99575Y176286D01*
X-99436Y176284D01*
X-99182Y176271D01*
X34614Y176271D01*
X36919Y175316D01*
X43586Y168649D01*
X44328Y166857D01*
X44396Y166720D01*
X44453Y166580D01*
X44535Y166437D01*
X44607Y166289D01*
X44690Y166162D01*
X44766Y166030D01*
X44864Y165898D01*
X44955Y165761D01*
X45054Y165646D01*
X45145Y165524D01*
X45259Y165406D01*
X45366Y165282D01*
X45479Y165180D01*
X45585Y165070D01*
X45713Y164968D01*
X45835Y164858D01*
X45960Y164771D01*
X46079Y164676D01*
X46219Y164590D01*
X46353Y164496D01*
X46488Y164426D01*
X46618Y164346D01*
X46768Y164279D01*
X46913Y164203D01*
X47056Y164150D01*
X47195Y164088D01*
X47352Y164040D01*
X47506Y163983D01*
X47654Y163948D01*
X47800Y163904D01*
X47962Y163877D01*
X48122Y163839D01*
X48273Y163824D01*
X48423Y163798D01*
X48622Y163788D01*
X48750Y163775D01*
X48835Y163777D01*
X48947Y163771D01*
X51253Y163771D01*
X51720Y163577D01*
X52077Y163220D01*
X52271Y162753D01*
X52271Y147247D01*
X52072Y146766D01*
X52070Y146765D01*
X51947Y146611D01*
X51817Y146464D01*
X51750Y146365D01*
X51676Y146272D01*
X51573Y146103D01*
X51463Y145940D01*
X51409Y145834D01*
X51346Y145732D01*
X51266Y145552D01*
X51177Y145376D01*
X51137Y145264D01*
X51088Y145155D01*
X51031Y144967D01*
X50964Y144781D01*
X50939Y144665D01*
X50904Y144550D01*
X50871Y144356D01*
X50829Y144164D01*
X50818Y144045D01*
X50798Y143927D01*
X50785Y143673D01*
X50772Y143534D01*
X50775Y143476D01*
X50771Y143403D01*
X50771Y128503D01*
X49816Y126198D01*
X49548Y125930D01*
X49491Y125865D01*
X49428Y125806D01*
X49282Y125628D01*
X49131Y125456D01*
X49082Y125384D01*
X49027Y125317D01*
X48905Y125123D01*
X48776Y124933D01*
X48737Y124855D01*
X48691Y124782D01*
X48548Y124482D01*
X48490Y124369D01*
X48480Y124341D01*
X48465Y124308D01*
X48432Y124229D01*
X47621Y123418D01*
X46561Y122979D01*
X43428Y122979D01*
X43211Y122965D01*
X42993Y122960D01*
X42895Y122946D01*
X42797Y122939D01*
X42583Y122898D01*
X42368Y122866D01*
X42273Y122839D01*
X42176Y122820D01*
X41969Y122752D01*
X41760Y122693D01*
X41669Y122654D01*
X41576Y122623D01*
X41379Y122530D01*
X41179Y122445D01*
X41094Y122395D01*
X41005Y122353D01*
X40821Y122235D01*
X40633Y122125D01*
X40555Y122065D01*
X40472Y122012D01*
X40305Y121872D01*
X40133Y121739D01*
X40063Y121670D01*
X39987Y121607D01*
X39839Y121447D01*
X39685Y121293D01*
X39624Y121216D01*
X39557Y121143D01*
X39430Y120967D01*
X39296Y120795D01*
X39246Y120710D01*
X39189Y120630D01*
X39085Y120438D01*
X38974Y120251D01*
X38935Y120160D01*
X38888Y120074D01*
X38810Y119870D01*
X38723Y119671D01*
X38696Y119576D01*
X38660Y119484D01*
X38608Y119273D01*
X38548Y119063D01*
X38532Y118966D01*
X38509Y118870D01*
X38484Y118654D01*
X38450Y118439D01*
X38447Y118341D01*
X38436Y118243D01*
X38438Y118025D01*
X38432Y117807D01*
X38441Y117709D01*
X38442Y117610D01*
X38472Y117395D01*
X38493Y117178D01*
X38515Y117082D01*
X38529Y116984D01*
X38586Y116774D01*
X38634Y116562D01*
X38672Y116456D01*
X38694Y116374D01*
X38743Y116255D01*
X38809Y116067D01*
X38965Y115692D01*
X39003Y115614D01*
X39034Y115533D01*
X39142Y115330D01*
X39243Y115124D01*
X39291Y115052D01*
X39331Y114976D01*
X39465Y114788D01*
X39591Y114596D01*
X39647Y114531D01*
X39697Y114460D01*
X39920Y114213D01*
X40002Y114116D01*
X40024Y114097D01*
X40048Y114070D01*
X40316Y113802D01*
X41271Y111497D01*
X41271Y101270D01*
X41282Y101085D01*
X41284Y100900D01*
X41302Y100770D01*
X41311Y100639D01*
X41346Y100458D01*
X41371Y100274D01*
X41405Y100148D01*
X41430Y100018D01*
X41488Y99842D01*
X41536Y99664D01*
X41586Y99543D01*
X41627Y99418D01*
X41706Y99250D01*
X41776Y99080D01*
X41841Y98965D01*
X41897Y98847D01*
X41997Y98691D01*
X42088Y98530D01*
X42167Y98425D01*
X42238Y98314D01*
X42357Y98172D01*
X42468Y98024D01*
X42559Y97930D01*
X42643Y97829D01*
X42779Y97703D01*
X42908Y97570D01*
X43010Y97488D01*
X43107Y97399D01*
X43257Y97291D01*
X43401Y97176D01*
X43514Y97107D01*
X43620Y97031D01*
X43783Y96943D01*
X43941Y96846D01*
X44061Y96793D01*
X44176Y96730D01*
X44349Y96664D01*
X44518Y96588D01*
X44643Y96550D01*
X44766Y96502D01*
X44946Y96458D01*
X45123Y96404D01*
X45252Y96382D01*
X45380Y96351D01*
X45563Y96329D01*
X45746Y96298D01*
X45899Y96290D01*
X46007Y96278D01*
X46116Y96279D01*
X46270Y96271D01*
X70747Y96271D01*
X73052Y95316D01*
X94546Y73822D01*
X94710Y73678D01*
X94868Y73527D01*
X94947Y73469D01*
X95021Y73404D01*
X95201Y73282D01*
X95376Y73152D01*
X95462Y73105D01*
X95544Y73049D01*
X95738Y72951D01*
X95929Y72845D01*
X96020Y72808D01*
X96108Y72764D01*
X96313Y72690D01*
X96515Y72609D01*
X96611Y72584D01*
X96703Y72551D01*
X96916Y72505D01*
X97127Y72449D01*
X97225Y72437D01*
X97321Y72416D01*
X97537Y72396D01*
X97754Y72368D01*
X97852Y72368D01*
X97950Y72359D01*
X98168Y72367D01*
X98386Y72367D01*
X98483Y72379D01*
X98582Y72383D01*
X98797Y72418D01*
X99013Y72445D01*
X99108Y72469D01*
X99205Y72485D01*
X99414Y72548D01*
X99625Y72602D01*
X99717Y72638D01*
X99811Y72666D01*
X100010Y72754D01*
X100213Y72835D01*
X100299Y72882D01*
X100389Y72922D01*
X100576Y73035D01*
X100766Y73140D01*
X100846Y73198D01*
X100930Y73249D01*
X101102Y73384D01*
X101277Y73512D01*
X101349Y73580D01*
X101426Y73641D01*
X101579Y73797D01*
X101737Y73946D01*
X101799Y74022D01*
X101868Y74093D01*
X102000Y74266D01*
X102138Y74435D01*
X102190Y74518D01*
X102250Y74597D01*
X102358Y74786D01*
X102444Y74923D01*
X103987Y76465D01*
X104109Y76604D01*
X104238Y76736D01*
X104318Y76841D01*
X104405Y76939D01*
X104508Y77092D01*
X104620Y77240D01*
X104686Y77354D01*
X104759Y77463D01*
X104843Y77627D01*
X104935Y77788D01*
X104986Y77909D01*
X105045Y78026D01*
X105107Y78200D01*
X105178Y78371D01*
X105213Y78498D01*
X105257Y78622D01*
X105297Y78802D01*
X105346Y78981D01*
X105365Y79111D01*
X105393Y79239D01*
X105409Y79423D01*
X105435Y79606D01*
X105438Y79738D01*
X105449Y79869D01*
X105442Y80053D01*
X105445Y80238D01*
X105431Y80369D01*
X105426Y80500D01*
X105396Y80683D01*
X105375Y80867D01*
X105344Y80995D01*
X105323Y81124D01*
X105270Y81301D01*
X105227Y81481D01*
X105180Y81604D01*
X105142Y81730D01*
X105067Y81899D01*
X105002Y82072D01*
X104940Y82187D01*
X104886Y82308D01*
X104791Y82466D01*
X104704Y82629D01*
X104628Y82736D01*
X104560Y82849D01*
X104445Y82994D01*
X104338Y83145D01*
X104235Y83259D01*
X104168Y83344D01*
X104089Y83421D01*
X103987Y83535D01*
X102513Y85009D01*
X101171Y88247D01*
X101171Y91753D01*
X102513Y94991D01*
X103987Y96465D01*
X104109Y96604D01*
X104238Y96736D01*
X104318Y96841D01*
X104405Y96939D01*
X104508Y97092D01*
X104620Y97240D01*
X104686Y97354D01*
X104759Y97463D01*
X104843Y97627D01*
X104935Y97788D01*
X104986Y97909D01*
X105045Y98026D01*
X105107Y98200D01*
X105178Y98371D01*
X105213Y98498D01*
X105257Y98622D01*
X105297Y98802D01*
X105346Y98981D01*
X105365Y99111D01*
X105393Y99239D01*
X105409Y99423D01*
X105435Y99606D01*
X105438Y99738D01*
X105449Y99869D01*
X105442Y100053D01*
X105445Y100238D01*
X105431Y100369D01*
X105426Y100500D01*
X105396Y100683D01*
X105375Y100867D01*
X105344Y100995D01*
X105323Y101124D01*
X105270Y101301D01*
X105227Y101481D01*
X105180Y101604D01*
X105142Y101730D01*
X105067Y101899D01*
X105002Y102072D01*
X104940Y102187D01*
X104886Y102308D01*
X104791Y102466D01*
X104704Y102629D01*
X104628Y102736D01*
X104560Y102849D01*
X104445Y102994D01*
X104338Y103145D01*
X104235Y103259D01*
X104168Y103344D01*
X104089Y103421D01*
X103987Y103535D01*
X102513Y105009D01*
X101171Y108247D01*
X101171Y111753D01*
X102513Y114991D01*
X103987Y116465D01*
X104109Y116604D01*
X104238Y116736D01*
X104318Y116841D01*
X104405Y116939D01*
X104508Y117092D01*
X104620Y117240D01*
X104686Y117354D01*
X104759Y117463D01*
X104843Y117627D01*
X104935Y117788D01*
X104986Y117909D01*
X105045Y118026D01*
X105107Y118200D01*
X105178Y118371D01*
X105213Y118498D01*
X105257Y118622D01*
X105297Y118802D01*
X105346Y118981D01*
X105365Y119111D01*
X105393Y119239D01*
X105409Y119423D01*
X105435Y119606D01*
X105438Y119738D01*
X105449Y119869D01*
X105442Y120053D01*
X105445Y120238D01*
X105431Y120369D01*
X105426Y120500D01*
X105396Y120683D01*
X105375Y120867D01*
X105344Y120995D01*
X105323Y121124D01*
X105270Y121301D01*
X105227Y121481D01*
X105180Y121604D01*
X105142Y121730D01*
X105067Y121899D01*
X105002Y122072D01*
X104940Y122187D01*
X104886Y122308D01*
X104791Y122466D01*
X104704Y122629D01*
X104628Y122736D01*
X104560Y122849D01*
X104445Y122994D01*
X104338Y123145D01*
X104235Y123259D01*
X104168Y123344D01*
X104089Y123421D01*
X103987Y123535D01*
X102513Y125009D01*
X101171Y128247D01*
X101171Y131753D01*
X102513Y134991D01*
X103987Y136465D01*
X104109Y136604D01*
X104238Y136736D01*
X104318Y136841D01*
X104405Y136939D01*
X104508Y137092D01*
X104620Y137240D01*
X104686Y137354D01*
X104759Y137463D01*
X104843Y137627D01*
X104935Y137788D01*
X104986Y137909D01*
X105045Y138026D01*
X105107Y138200D01*
X105178Y138371D01*
X105213Y138498D01*
X105257Y138622D01*
X105297Y138802D01*
X105346Y138981D01*
X105365Y139111D01*
X105393Y139239D01*
X105409Y139423D01*
X105435Y139606D01*
X105438Y139738D01*
X105449Y139869D01*
X105442Y140053D01*
X105445Y140238D01*
X105431Y140369D01*
X105426Y140500D01*
X105396Y140683D01*
X105375Y140867D01*
X105344Y140995D01*
X105323Y141124D01*
X105270Y141301D01*
X105227Y141481D01*
X105180Y141604D01*
X105142Y141730D01*
X105067Y141899D01*
X105002Y142072D01*
X104940Y142187D01*
X104886Y142308D01*
X104791Y142466D01*
X104704Y142629D01*
X104628Y142736D01*
X104560Y142849D01*
X104445Y142994D01*
X104338Y143145D01*
X104235Y143259D01*
X104168Y143344D01*
X104089Y143421D01*
X103987Y143535D01*
X102513Y145009D01*
X101171Y148247D01*
X101171Y151753D01*
X102513Y154991D01*
X103987Y156465D01*
X104109Y156604D01*
X104238Y156736D01*
X104318Y156841D01*
X104405Y156939D01*
X104508Y157092D01*
X104620Y157240D01*
X104686Y157354D01*
X104759Y157463D01*
X104843Y157627D01*
X104935Y157788D01*
X104986Y157909D01*
X105045Y158026D01*
X105107Y158200D01*
X105178Y158371D01*
X105213Y158498D01*
X105257Y158622D01*
X105297Y158802D01*
X105346Y158981D01*
X105365Y159111D01*
X105393Y159239D01*
X105409Y159423D01*
X105435Y159606D01*
X105438Y159738D01*
X105449Y159869D01*
X105442Y160053D01*
X105445Y160238D01*
X105431Y160369D01*
X105426Y160500D01*
X105396Y160683D01*
X105375Y160867D01*
X105344Y160995D01*
X105323Y161124D01*
X105270Y161301D01*
X105227Y161481D01*
X105180Y161604D01*
X105142Y161730D01*
X105067Y161899D01*
X105002Y162072D01*
X104940Y162187D01*
X104886Y162308D01*
X104791Y162466D01*
X104704Y162629D01*
X104628Y162736D01*
X104560Y162849D01*
X104445Y162994D01*
X104338Y163145D01*
X104235Y163259D01*
X104168Y163344D01*
X104089Y163421D01*
X103987Y163535D01*
X102513Y165009D01*
X101171Y168247D01*
X101171Y171753D01*
X102513Y174991D01*
X103987Y176465D01*
X104109Y176604D01*
X104238Y176736D01*
X104318Y176841D01*
X104405Y176939D01*
X104508Y177092D01*
X104620Y177240D01*
X104686Y177354D01*
X104759Y177463D01*
X104843Y177627D01*
X104935Y177788D01*
X104986Y177909D01*
X105045Y178026D01*
X105107Y178200D01*
X105178Y178371D01*
X105213Y178498D01*
X105257Y178622D01*
X105297Y178802D01*
X105346Y178981D01*
X105365Y179111D01*
X105393Y179239D01*
X105409Y179423D01*
X105435Y179606D01*
X105438Y179738D01*
X105449Y179869D01*
X105442Y180053D01*
X105445Y180238D01*
X105431Y180369D01*
X105426Y180500D01*
X105396Y180683D01*
X105375Y180867D01*
X105344Y180995D01*
X105323Y181124D01*
X105270Y181301D01*
X105227Y181481D01*
X105180Y181604D01*
X105142Y181730D01*
X105067Y181899D01*
X105002Y182072D01*
X104940Y182187D01*
X104886Y182308D01*
X104791Y182466D01*
X104704Y182629D01*
X104628Y182736D01*
X104560Y182849D01*
X104445Y182994D01*
X104338Y183145D01*
X104235Y183259D01*
X104168Y183344D01*
X104089Y183421D01*
X103987Y183535D01*
X102513Y185009D01*
X101171Y188247D01*
X101171Y191753D01*
X102513Y194991D01*
X103987Y196465D01*
X104109Y196604D01*
X104238Y196736D01*
X104318Y196841D01*
X104405Y196939D01*
X104508Y197092D01*
X104620Y197240D01*
X104686Y197354D01*
X104759Y197463D01*
X104843Y197627D01*
X104935Y197788D01*
X104986Y197909D01*
X105045Y198026D01*
X105107Y198200D01*
X105178Y198371D01*
X105213Y198498D01*
X105257Y198622D01*
X105297Y198802D01*
X105346Y198981D01*
X105365Y199111D01*
X105393Y199239D01*
X105409Y199423D01*
X105435Y199606D01*
X105438Y199738D01*
X105449Y199869D01*
X105442Y200053D01*
X105445Y200238D01*
X105431Y200369D01*
X105426Y200500D01*
X105396Y200683D01*
X105375Y200867D01*
X105344Y200995D01*
X105323Y201124D01*
X105270Y201301D01*
X105227Y201481D01*
X105180Y201604D01*
X105142Y201730D01*
X105067Y201899D01*
X105002Y202072D01*
X104940Y202187D01*
X104886Y202308D01*
X104791Y202466D01*
X104704Y202629D01*
X104628Y202736D01*
X104560Y202849D01*
X104445Y202994D01*
X104338Y203145D01*
X104235Y203259D01*
X104168Y203344D01*
X104089Y203421D01*
X103987Y203535D01*
X102513Y205009D01*
X101171Y208247D01*
X101171Y211753D01*
X102513Y214991D01*
X104991Y217469D01*
X108229Y218811D01*
X111735Y218811D01*
X114973Y217469D01*
X117451Y214991D01*
X118793Y211753D01*
X118793Y208247D01*
X117451Y205009D01*
X115977Y203535D01*
X115855Y203396D01*
X115726Y203264D01*
X115646Y203159D01*
X115559Y203061D01*
X115456Y202907D01*
X115344Y202760D01*
X115279Y202646D01*
X115205Y202537D01*
X115121Y202372D01*
X115029Y202212D01*
X114979Y202091D01*
X114919Y201974D01*
X114857Y201799D01*
X114786Y201629D01*
X114751Y201502D01*
X114707Y201378D01*
X114667Y201198D01*
X114618Y201019D01*
X114599Y200889D01*
X114571Y200761D01*
X114555Y200577D01*
X114529Y200394D01*
X114526Y200262D01*
X114515Y200131D01*
X114522Y199946D01*
X114519Y199761D01*
X114533Y199631D01*
X114538Y199500D01*
X114568Y199317D01*
X114589Y199133D01*
X114620Y199005D01*
X114641Y198876D01*
X114694Y198699D01*
X114737Y198519D01*
X114784Y198396D01*
X114822Y198270D01*
X114897Y198101D01*
X114962Y197928D01*
X115024Y197812D01*
X115078Y197692D01*
X115173Y197534D01*
X115260Y197371D01*
X115336Y197264D01*
X115404Y197151D01*
X115519Y197006D01*
X115626Y196855D01*
X115729Y196741D01*
X115797Y196655D01*
X115875Y196579D01*
X115977Y196465D01*
X117451Y194991D01*
X118793Y191753D01*
X118793Y188247D01*
X117451Y185009D01*
X115977Y183535D01*
X115855Y183396D01*
X115726Y183264D01*
X115646Y183159D01*
X115559Y183061D01*
X115456Y182907D01*
X115344Y182760D01*
X115279Y182646D01*
X115205Y182537D01*
X115121Y182372D01*
X115029Y182212D01*
X114979Y182091D01*
X114919Y181974D01*
X114857Y181799D01*
X114786Y181629D01*
X114751Y181502D01*
X114707Y181378D01*
X114667Y181198D01*
X114618Y181019D01*
X114599Y180889D01*
X114571Y180761D01*
X114555Y180577D01*
X114529Y180394D01*
X114526Y180262D01*
X114515Y180131D01*
X114522Y179946D01*
X114519Y179761D01*
X114533Y179631D01*
X114538Y179500D01*
X114568Y179317D01*
X114589Y179133D01*
X114620Y179005D01*
X114641Y178876D01*
X114694Y178699D01*
X114737Y178519D01*
X114784Y178396D01*
X114822Y178270D01*
X114897Y178101D01*
X114962Y177928D01*
X115024Y177812D01*
X115078Y177692D01*
X115173Y177534D01*
X115260Y177371D01*
X115336Y177264D01*
X115404Y177151D01*
X115519Y177006D01*
X115626Y176855D01*
X115729Y176741D01*
X115797Y176655D01*
X115875Y176579D01*
X115977Y176465D01*
X117451Y174991D01*
X118793Y171753D01*
X118793Y168247D01*
X117451Y165009D01*
X115977Y163535D01*
X115855Y163396D01*
X115726Y163264D01*
X115646Y163159D01*
X115559Y163061D01*
X115456Y162907D01*
X115344Y162760D01*
X115279Y162646D01*
X115205Y162537D01*
X115121Y162372D01*
X115029Y162212D01*
X114979Y162091D01*
X114919Y161974D01*
X114857Y161799D01*
X114786Y161629D01*
X114751Y161502D01*
X114707Y161378D01*
X114667Y161198D01*
X114618Y161019D01*
X114599Y160889D01*
X114571Y160761D01*
X114555Y160577D01*
X114529Y160394D01*
X114526Y160262D01*
X114515Y160131D01*
X114522Y159946D01*
X114519Y159761D01*
X114533Y159631D01*
X114538Y159500D01*
X114568Y159317D01*
X114589Y159133D01*
X114620Y159005D01*
X114641Y158876D01*
X114694Y158699D01*
X114737Y158519D01*
X114784Y158396D01*
X114822Y158270D01*
X114897Y158101D01*
X114962Y157928D01*
X115024Y157812D01*
X115078Y157692D01*
X115173Y157534D01*
X115260Y157371D01*
X115336Y157264D01*
X115404Y157151D01*
X115519Y157006D01*
X115626Y156855D01*
X115729Y156741D01*
X115797Y156655D01*
X115875Y156579D01*
X115977Y156465D01*
X117451Y154991D01*
X118793Y151753D01*
X118793Y148247D01*
X117451Y145009D01*
X115977Y143535D01*
X115855Y143396D01*
X115726Y143264D01*
X115646Y143159D01*
X115559Y143061D01*
X115456Y142907D01*
X115344Y142760D01*
X115279Y142646D01*
X115205Y142537D01*
X115121Y142372D01*
X115029Y142212D01*
X114979Y142091D01*
X114919Y141974D01*
X114857Y141799D01*
X114786Y141629D01*
X114751Y141502D01*
X114707Y141378D01*
X114667Y141198D01*
X114618Y141019D01*
X114599Y140889D01*
X114571Y140761D01*
X114555Y140577D01*
X114529Y140394D01*
X114526Y140262D01*
X114515Y140131D01*
X114522Y139946D01*
X114519Y139761D01*
X114533Y139631D01*
X114538Y139500D01*
X114568Y139317D01*
X114589Y139133D01*
X114620Y139005D01*
X114641Y138876D01*
X114694Y138699D01*
X114737Y138519D01*
X114784Y138396D01*
X114822Y138270D01*
X114897Y138101D01*
X114962Y137928D01*
X115024Y137812D01*
X115078Y137692D01*
X115173Y137534D01*
X115260Y137371D01*
X115336Y137264D01*
X115404Y137151D01*
X115519Y137006D01*
X115626Y136855D01*
X115729Y136741D01*
X115797Y136655D01*
X115875Y136579D01*
X115977Y136465D01*
X117451Y134991D01*
X118793Y131753D01*
X118793Y128247D01*
X117451Y125009D01*
X115977Y123535D01*
X115855Y123396D01*
X115726Y123264D01*
X115646Y123159D01*
X115559Y123061D01*
X115456Y122907D01*
X115344Y122760D01*
X115279Y122646D01*
X115205Y122537D01*
X115121Y122372D01*
X115029Y122212D01*
X114979Y122091D01*
X114919Y121974D01*
X114857Y121799D01*
X114786Y121629D01*
X114751Y121502D01*
X114707Y121378D01*
X114667Y121198D01*
X114618Y121019D01*
X114599Y120889D01*
X114571Y120761D01*
X114555Y120577D01*
X114529Y120394D01*
X114526Y120262D01*
X114515Y120131D01*
X114522Y119946D01*
X114519Y119761D01*
X114533Y119631D01*
X114538Y119500D01*
X114568Y119317D01*
X114589Y119133D01*
X114620Y119005D01*
X114641Y118876D01*
X114694Y118699D01*
X114737Y118519D01*
X114784Y118396D01*
X114822Y118270D01*
X114897Y118101D01*
X114962Y117928D01*
X115024Y117812D01*
X115078Y117692D01*
X115173Y117534D01*
X115260Y117371D01*
X115336Y117264D01*
X115404Y117151D01*
X115519Y117006D01*
X115626Y116855D01*
X115729Y116741D01*
X115797Y116655D01*
X115875Y116579D01*
X115977Y116465D01*
X117451Y114991D01*
X118793Y111753D01*
X118793Y108247D01*
X117451Y105009D01*
X115977Y103535D01*
X115855Y103396D01*
X115726Y103264D01*
X115646Y103159D01*
X115559Y103061D01*
X115456Y102907D01*
X115344Y102760D01*
X115279Y102646D01*
X115205Y102537D01*
X115121Y102372D01*
X115029Y102212D01*
X114979Y102091D01*
X114919Y101974D01*
X114857Y101799D01*
X114786Y101629D01*
X114751Y101502D01*
X114707Y101378D01*
X114667Y101198D01*
X114618Y101019D01*
X114599Y100889D01*
X114571Y100761D01*
X114555Y100577D01*
X114529Y100394D01*
X114526Y100262D01*
X114515Y100131D01*
X114522Y99946D01*
X114519Y99761D01*
X114533Y99631D01*
X114538Y99500D01*
X114568Y99317D01*
X114589Y99133D01*
X114620Y99005D01*
X114641Y98876D01*
X114694Y98699D01*
X114737Y98519D01*
X114784Y98396D01*
X114822Y98270D01*
X114897Y98101D01*
X114962Y97928D01*
X115024Y97812D01*
X115078Y97692D01*
X115173Y97534D01*
X115260Y97371D01*
X115336Y97264D01*
X115404Y97151D01*
X115519Y97006D01*
X115626Y96855D01*
X115729Y96741D01*
X115797Y96655D01*
X115875Y96579D01*
X115977Y96465D01*
X117451Y94991D01*
X118793Y91753D01*
X118793Y88247D01*
X117451Y85009D01*
X115977Y83535D01*
X115855Y83396D01*
X115726Y83264D01*
X115646Y83159D01*
X115559Y83061D01*
X115456Y82907D01*
X115344Y82760D01*
X115279Y82646D01*
X115205Y82537D01*
X115121Y82372D01*
X115029Y82212D01*
X114978Y82091D01*
X114919Y81974D01*
X114857Y81799D01*
X114786Y81629D01*
X114751Y81502D01*
X114707Y81378D01*
X114667Y81198D01*
X114618Y81019D01*
X114599Y80889D01*
X114571Y80761D01*
X114555Y80577D01*
X114529Y80394D01*
X114526Y80262D01*
X114515Y80131D01*
X114522Y79946D01*
X114519Y79761D01*
X114533Y79631D01*
X114538Y79500D01*
X114568Y79317D01*
X114589Y79133D01*
X114620Y79005D01*
X114641Y78876D01*
X114694Y78699D01*
X114737Y78519D01*
X114784Y78396D01*
X114822Y78270D01*
X114897Y78101D01*
X114962Y77928D01*
X115024Y77812D01*
X115078Y77692D01*
X115173Y77534D01*
X115260Y77371D01*
X115336Y77264D01*
X115404Y77151D01*
X115519Y77006D01*
X115626Y76855D01*
X115729Y76741D01*
X115797Y76655D01*
X115875Y76579D01*
X115977Y76465D01*
X117451Y74991D01*
X118793Y71753D01*
X118793Y68247D01*
X117451Y65009D01*
X115977Y63535D01*
X115855Y63396D01*
X115726Y63264D01*
X115646Y63159D01*
X115559Y63061D01*
X115456Y62907D01*
X115344Y62760D01*
X115279Y62646D01*
X115205Y62537D01*
X115121Y62372D01*
X115029Y62212D01*
X114979Y62091D01*
X114919Y61974D01*
X114857Y61799D01*
X114786Y61629D01*
X114751Y61502D01*
X114707Y61378D01*
X114667Y61198D01*
X114618Y61019D01*
X114599Y60889D01*
X114571Y60761D01*
X114555Y60577D01*
X114529Y60394D01*
X114526Y60262D01*
X114515Y60131D01*
X114522Y59946D01*
X114519Y59761D01*
X114533Y59631D01*
X114538Y59500D01*
X114568Y59317D01*
X114589Y59133D01*
X114620Y59005D01*
X114641Y58876D01*
X114694Y58699D01*
X114737Y58519D01*
X114784Y58396D01*
X114822Y58270D01*
X114897Y58101D01*
X114962Y57928D01*
X115024Y57812D01*
X115078Y57692D01*
X115173Y57534D01*
X115260Y57371D01*
X115336Y57264D01*
X115404Y57151D01*
X115519Y57006D01*
X115626Y56855D01*
X115729Y56741D01*
X115797Y56655D01*
X115875Y56579D01*
X115977Y56465D01*
X117451Y54991D01*
X118793Y51753D01*
X118793Y48247D01*
X117451Y45009D01*
X115977Y43535D01*
X115855Y43396D01*
X115726Y43264D01*
X115646Y43159D01*
X115559Y43061D01*
X115456Y42907D01*
X115344Y42760D01*
X115279Y42646D01*
X115205Y42537D01*
X115121Y42372D01*
X115029Y42212D01*
X114979Y42091D01*
X114919Y41974D01*
X114857Y41799D01*
X114786Y41629D01*
X114751Y41502D01*
X114707Y41378D01*
X114667Y41198D01*
X114618Y41019D01*
X114599Y40889D01*
X114571Y40761D01*
X114555Y40577D01*
X114529Y40394D01*
X114526Y40262D01*
X114515Y40131D01*
X114522Y39946D01*
X114519Y39761D01*
X114533Y39631D01*
X114538Y39500D01*
X114568Y39317D01*
X114589Y39133D01*
X114620Y39005D01*
X114641Y38876D01*
X114694Y38699D01*
X114737Y38519D01*
X114784Y38396D01*
X114822Y38270D01*
X114897Y38101D01*
X114962Y37928D01*
X115024Y37812D01*
X115078Y37692D01*
X115173Y37534D01*
X115260Y37371D01*
X115336Y37264D01*
X115404Y37151D01*
X115519Y37006D01*
X115626Y36855D01*
X115729Y36741D01*
X115797Y36655D01*
X115875Y36579D01*
X115977Y36465D01*
X117451Y34991D01*
X118793Y31753D01*
X118793Y28247D01*
X117451Y25009D01*
X114973Y22531D01*
X111735Y21189D01*
X107442Y21189D01*
X107257Y21178D01*
X107072Y21176D01*
X106942Y21158D01*
X106811Y21149D01*
X106630Y21114D01*
X106446Y21089D01*
X106320Y21055D01*
X106190Y21030D01*
X106014Y20972D01*
X105836Y20924D01*
X105715Y20874D01*
X105590Y20833D01*
X105422Y20754D01*
X105252Y20684D01*
X105137Y20619D01*
X105019Y20563D01*
X104863Y20463D01*
X104702Y20372D01*
X104597Y20293D01*
X104486Y20222D01*
X104344Y20103D01*
X104196Y19992D01*
X104102Y19901D01*
X104001Y19817D01*
X103875Y19681D01*
X103742Y19552D01*
X103660Y19450D01*
X103571Y19353D01*
X103463Y19203D01*
X103348Y19059D01*
X103279Y18946D01*
X103203Y18840D01*
X103115Y18677D01*
X103018Y18519D01*
X102965Y18399D01*
X102902Y18284D01*
X102836Y18111D01*
X102760Y17942D01*
X102722Y17817D01*
X102674Y17694D01*
X102630Y17514D01*
X102576Y17337D01*
X102554Y17208D01*
X102523Y17080D01*
X102501Y16897D01*
X102470Y16714D01*
X102462Y16561D01*
X102450Y16453D01*
X102451Y16344D01*
X102443Y16190D01*
X102443Y-81052D01*
X102450Y-81171D01*
X102448Y-81291D01*
X102470Y-81487D01*
X102483Y-81683D01*
X102505Y-81800D01*
X102518Y-81919D01*
X102565Y-82110D01*
X102602Y-82304D01*
X102639Y-82417D01*
X102667Y-82533D01*
X102737Y-82717D01*
X102799Y-82904D01*
X102850Y-83012D01*
X102892Y-83124D01*
X102985Y-83297D01*
X103069Y-83476D01*
X103134Y-83576D01*
X103190Y-83681D01*
X103304Y-83842D01*
X103410Y-84008D01*
X103487Y-84100D01*
X103556Y-84197D01*
X103726Y-84386D01*
X103815Y-84493D01*
X103858Y-84532D01*
X103907Y-84587D01*
X140786Y-121466D01*
X140851Y-121523D01*
X140910Y-121586D01*
X141088Y-121732D01*
X141260Y-121884D01*
X141332Y-121932D01*
X141399Y-121987D01*
X141593Y-122109D01*
X141783Y-122238D01*
X141861Y-122278D01*
X141934Y-122324D01*
X142234Y-122467D01*
X142347Y-122524D01*
X142375Y-122534D01*
X142408Y-122550D01*
X143558Y-123026D01*
X145474Y-124942D01*
X146511Y-127445D01*
X146511Y-130155D01*
X145474Y-132658D01*
X143558Y-134574D01*
X141055Y-135611D01*
X138345Y-135611D01*
X135842Y-134574D01*
X133869Y-132601D01*
X133805Y-132471D01*
X133758Y-132399D01*
X133717Y-132322D01*
X133584Y-132135D01*
X133458Y-131943D01*
X133401Y-131877D01*
X133351Y-131807D01*
X133199Y-131638D01*
X133199Y-131637D01*
X133197Y-131636D01*
X133128Y-131559D01*
X133046Y-131463D01*
X133024Y-131444D01*
X133000Y-131417D01*
X129514Y-127930D01*
X129351Y-127787D01*
X129193Y-127636D01*
X129114Y-127578D01*
X129040Y-127513D01*
X128859Y-127390D01*
X128684Y-127261D01*
X128598Y-127213D01*
X128516Y-127158D01*
X128322Y-127059D01*
X128132Y-126954D01*
X128041Y-126917D01*
X127953Y-126872D01*
X127748Y-126799D01*
X127545Y-126718D01*
X127450Y-126693D01*
X127357Y-126660D01*
X127145Y-126613D01*
X126934Y-126558D01*
X126836Y-126546D01*
X126740Y-126524D01*
X126523Y-126505D01*
X126307Y-126477D01*
X126209Y-126477D01*
X126110Y-126468D01*
X125893Y-126476D01*
X125675Y-126475D01*
X125577Y-126488D01*
X125479Y-126491D01*
X125264Y-126527D01*
X125048Y-126554D01*
X124952Y-126578D01*
X124855Y-126594D01*
X124647Y-126656D01*
X124435Y-126710D01*
X124344Y-126747D01*
X124249Y-126775D01*
X124050Y-126863D01*
X123848Y-126943D01*
X123761Y-126991D01*
X123671Y-127031D01*
X123485Y-127143D01*
X123294Y-127248D01*
X123215Y-127306D01*
X123130Y-127357D01*
X122959Y-127493D01*
X122783Y-127621D01*
X122712Y-127688D01*
X122634Y-127750D01*
X122482Y-127905D01*
X122324Y-128055D01*
X122261Y-128131D01*
X122192Y-128201D01*
X122061Y-128375D01*
X121923Y-128543D01*
X121870Y-128627D01*
X121811Y-128705D01*
X121702Y-128894D01*
X121586Y-129078D01*
X121538Y-129180D01*
X121496Y-129253D01*
X121446Y-129373D01*
X121360Y-129552D01*
X120074Y-132658D01*
X118158Y-134574D01*
X115655Y-135611D01*
X112945Y-135611D01*
X110315Y-134521D01*
X110299Y-134510D01*
X110232Y-134455D01*
X110038Y-134333D01*
X109854Y-134209D01*
X103956Y-128311D01*
X103793Y-128167D01*
X103635Y-128017D01*
X103556Y-127958D01*
X103482Y-127893D01*
X103302Y-127771D01*
X103126Y-127642D01*
X103040Y-127594D01*
X102959Y-127539D01*
X102765Y-127440D01*
X102574Y-127334D01*
X102483Y-127297D01*
X102395Y-127253D01*
X102190Y-127180D01*
X101988Y-127098D01*
X101892Y-127074D01*
X101800Y-127040D01*
X101587Y-126994D01*
X101376Y-126939D01*
X101278Y-126926D01*
X101182Y-126905D01*
X100965Y-126886D01*
X100749Y-126858D01*
X100651Y-126857D01*
X100553Y-126848D01*
X100335Y-126857D01*
X100117Y-126856D01*
X100020Y-126868D01*
X99921Y-126872D01*
X99706Y-126907D01*
X99490Y-126934D01*
X99394Y-126959D01*
X99297Y-126975D01*
X99089Y-127037D01*
X98878Y-127091D01*
X98786Y-127127D01*
X98692Y-127155D01*
X98492Y-127244D01*
X98290Y-127324D01*
X98204Y-127371D01*
X98114Y-127411D01*
X97927Y-127524D01*
X97736Y-127629D01*
X97657Y-127687D01*
X97572Y-127738D01*
X97401Y-127873D01*
X97226Y-128001D01*
X97154Y-128069D01*
X97077Y-128130D01*
X96924Y-128286D01*
X96766Y-128435D01*
X96704Y-128512D01*
X96635Y-128582D01*
X96503Y-128755D01*
X96365Y-128924D01*
X96313Y-129007D01*
X96253Y-129086D01*
X96145Y-129274D01*
X96029Y-129459D01*
X95980Y-129561D01*
X95938Y-129634D01*
X95889Y-129753D01*
X95803Y-129933D01*
X94674Y-132658D01*
X92758Y-134574D01*
X90255Y-135611D01*
X87545Y-135611D01*
X85042Y-134574D01*
X83126Y-132658D01*
X82089Y-130155D01*
X82089Y-127445D01*
X83126Y-124942D01*
X85042Y-123026D01*
X87767Y-121897D01*
X87963Y-121801D01*
X88162Y-121713D01*
X88246Y-121662D01*
X88335Y-121619D01*
X88516Y-121500D01*
X88703Y-121387D01*
X88780Y-121326D01*
X88863Y-121271D01*
X89028Y-121130D01*
X89199Y-120994D01*
X89268Y-120924D01*
X89342Y-120860D01*
X89488Y-120698D01*
X89641Y-120543D01*
X89700Y-120464D01*
X89766Y-120391D01*
X89891Y-120213D01*
X90022Y-120039D01*
X90071Y-119953D01*
X90128Y-119872D01*
X90229Y-119680D01*
X90337Y-119491D01*
X90375Y-119400D01*
X90421Y-119312D01*
X90497Y-119108D01*
X90581Y-118907D01*
X90607Y-118812D01*
X90641Y-118720D01*
X90691Y-118508D01*
X90748Y-118298D01*
X90762Y-118200D01*
X90785Y-118104D01*
X90807Y-117888D01*
X90838Y-117672D01*
X90839Y-117574D01*
X90849Y-117476D01*
X90844Y-117258D01*
X90848Y-117040D01*
X90837Y-116942D01*
X90834Y-116844D01*
X90802Y-116629D01*
X90778Y-116412D01*
X90754Y-116316D01*
X90740Y-116219D01*
X90680Y-116009D01*
X90629Y-115798D01*
X90594Y-115706D01*
X90567Y-115611D01*
X90481Y-115411D01*
X90404Y-115207D01*
X90357Y-115120D01*
X90319Y-115029D01*
X90209Y-114841D01*
X90106Y-114649D01*
X90049Y-114569D01*
X89999Y-114484D01*
X89866Y-114311D01*
X89740Y-114134D01*
X89665Y-114051D01*
X89613Y-113983D01*
X89522Y-113892D01*
X89389Y-113744D01*
X77053Y-101408D01*
X74586Y-98941D01*
X73631Y-96636D01*
X73631Y22420D01*
X73613Y22702D01*
X73599Y22985D01*
X73593Y23018D01*
X73591Y23051D01*
X73538Y23329D01*
X73488Y23608D01*
X73478Y23639D01*
X73472Y23671D01*
X73384Y23941D01*
X73299Y24211D01*
X73286Y24241D01*
X73275Y24272D01*
X73154Y24528D01*
X73036Y24786D01*
X73019Y24813D01*
X73005Y24843D01*
X72852Y25082D01*
X72702Y25322D01*
X72682Y25348D01*
X72664Y25376D01*
X72482Y25593D01*
X72303Y25813D01*
X72280Y25836D01*
X72259Y25861D01*
X72051Y26053D01*
X71846Y26249D01*
X71819Y26268D01*
X71795Y26291D01*
X71566Y26456D01*
X71337Y26624D01*
X71308Y26640D01*
X71282Y26659D01*
X71033Y26793D01*
X70785Y26932D01*
X70754Y26944D01*
X70726Y26960D01*
X70461Y27062D01*
X70198Y27167D01*
X70167Y27176D01*
X70136Y27187D01*
X69861Y27255D01*
X69587Y27327D01*
X69554Y27331D01*
X69522Y27339D01*
X69241Y27372D01*
X68960Y27408D01*
X68927Y27408D01*
X68895Y27412D01*
X68612Y27409D01*
X68328Y27410D01*
X68295Y27406D01*
X68262Y27405D01*
X67982Y27367D01*
X67701Y27331D01*
X67669Y27323D01*
X67636Y27319D01*
X67363Y27245D01*
X67088Y27175D01*
X67058Y27163D01*
X67026Y27154D01*
X66765Y27047D01*
X66501Y26942D01*
X66472Y26926D01*
X66442Y26914D01*
X66195Y26773D01*
X65947Y26637D01*
X65921Y26618D01*
X65892Y26601D01*
X65665Y26431D01*
X65436Y26264D01*
X65413Y26242D01*
X65386Y26222D01*
X65182Y26024D01*
X64977Y25830D01*
X64956Y25805D01*
X64932Y25782D01*
X64755Y25560D01*
X64576Y25342D01*
X64558Y25314D01*
X64538Y25288D01*
X64390Y25046D01*
X64239Y24807D01*
X64224Y24774D01*
X64208Y24749D01*
X64157Y24633D01*
X64013Y24333D01*
X63577Y23280D01*
X62735Y22438D01*
X62656Y22348D01*
X62570Y22265D01*
X62447Y22111D01*
X62317Y21964D01*
X62250Y21865D01*
X62176Y21772D01*
X62073Y21603D01*
X61963Y21440D01*
X61909Y21334D01*
X61846Y21232D01*
X61766Y21052D01*
X61677Y20876D01*
X61637Y20764D01*
X61588Y20655D01*
X61531Y20467D01*
X61464Y20281D01*
X61439Y20165D01*
X61404Y20050D01*
X61371Y19856D01*
X61329Y19664D01*
X61318Y19545D01*
X61298Y19427D01*
X61285Y19173D01*
X61272Y19034D01*
X61275Y18976D01*
X61271Y18903D01*
X61271Y17273D01*
X61276Y17187D01*
X61274Y17100D01*
X61283Y17008D01*
X61283Y13750D01*
X60326Y11441D01*
X58559Y9674D01*
X56250Y8717D01*
X53750Y8717D01*
X51441Y9674D01*
X49674Y11441D01*
X48717Y13750D01*
X48717Y17045D01*
X48719Y17081D01*
X48729Y17207D01*
X48727Y17237D01*
X48729Y17273D01*
X48729Y18903D01*
X48722Y19022D01*
X48724Y19141D01*
X48702Y19337D01*
X48689Y19534D01*
X48667Y19651D01*
X48654Y19770D01*
X48607Y19961D01*
X48570Y20154D01*
X48533Y20268D01*
X48505Y20384D01*
X48435Y20568D01*
X48373Y20755D01*
X48322Y20863D01*
X48280Y20975D01*
X48187Y21148D01*
X48103Y21326D01*
X48038Y21427D01*
X47982Y21532D01*
X47868Y21692D01*
X47762Y21859D01*
X47685Y21950D01*
X47616Y22048D01*
X47446Y22236D01*
X47357Y22344D01*
X47314Y22383D01*
X47265Y22438D01*
X46938Y22765D01*
X46848Y22844D01*
X46765Y22930D01*
X46611Y23053D01*
X46464Y23183D01*
X46365Y23250D01*
X46272Y23324D01*
X46103Y23427D01*
X45940Y23537D01*
X45834Y23591D01*
X45732Y23654D01*
X45552Y23734D01*
X45376Y23823D01*
X45264Y23863D01*
X45155Y23912D01*
X44967Y23969D01*
X44781Y24036D01*
X44665Y24061D01*
X44550Y24096D01*
X44356Y24129D01*
X44164Y24171D01*
X44045Y24182D01*
X43927Y24202D01*
X43673Y24215D01*
X43534Y24228D01*
X43476Y24225D01*
X43403Y24229D01*
X41597Y24229D01*
X41478Y24222D01*
X41359Y24224D01*
X41163Y24202D01*
X40966Y24189D01*
X40849Y24167D01*
X40730Y24154D01*
X40539Y24107D01*
X40346Y24070D01*
X40232Y24033D01*
X40116Y24005D01*
X39932Y23935D01*
X39745Y23873D01*
X39637Y23822D01*
X39525Y23780D01*
X39352Y23687D01*
X39174Y23603D01*
X39073Y23538D01*
X38968Y23482D01*
X38807Y23368D01*
X38641Y23262D01*
X38550Y23185D01*
X38452Y23116D01*
X38264Y22946D01*
X38250Y22935D01*
X37753Y22729D01*
X21484Y22729D01*
X21473Y22729D01*
X21463Y22729D01*
X21157Y22709D01*
X20853Y22689D01*
X20843Y22687D01*
X20832Y22687D01*
X20531Y22628D01*
X20232Y22570D01*
X20222Y22567D01*
X20212Y22565D01*
X19923Y22469D01*
X19631Y22373D01*
X19622Y22369D01*
X19612Y22366D01*
X19339Y22235D01*
X19060Y22103D01*
X19051Y22097D01*
X19042Y22093D01*
X18787Y21928D01*
X18528Y21762D01*
X18520Y21755D01*
X18511Y21750D01*
X18278Y21553D01*
X18043Y21357D01*
X18036Y21349D01*
X18028Y21342D01*
X17819Y21116D01*
X17613Y20893D01*
X17606Y20885D01*
X17599Y20877D01*
X17423Y20629D01*
X17244Y20380D01*
X17239Y20371D01*
X17233Y20362D01*
X17088Y20091D01*
X16944Y19824D01*
X16940Y19814D01*
X16935Y19805D01*
X16824Y19515D01*
X16716Y19234D01*
X16713Y19224D01*
X16710Y19214D01*
X16705Y19197D01*
X16462Y18608D01*
X16184Y18192D01*
X15830Y17838D01*
X15414Y17560D01*
X14951Y17369D01*
X14460Y17271D01*
X13113Y17271D01*
X13113Y30988D01*
X13113Y44705D01*
X14566Y44705D01*
X14719Y44668D01*
X14830Y44634D01*
X14831Y44634D01*
X14832Y44634D01*
X14931Y44617D01*
X15067Y44584D01*
X15069Y44584D01*
X15262Y44561D01*
X15455Y44528D01*
X15595Y44521D01*
X15696Y44509D01*
X15812Y44509D01*
X15979Y44501D01*
X30000Y44501D01*
X55000Y44501D01*
X55184Y44512D01*
X55369Y44514D01*
X55499Y44532D01*
X55630Y44541D01*
X55812Y44575D01*
X55995Y44601D01*
X56122Y44635D01*
X56251Y44660D01*
X56427Y44717D01*
X56606Y44766D01*
X56727Y44815D01*
X56852Y44856D01*
X57019Y44936D01*
X57190Y45006D01*
X57304Y45071D01*
X57423Y45127D01*
X57579Y45227D01*
X57740Y45318D01*
X57845Y45397D01*
X57955Y45468D01*
X58098Y45587D01*
X58245Y45698D01*
X58340Y45789D01*
X58441Y45873D01*
X58566Y46009D01*
X58699Y46137D01*
X58781Y46240D01*
X58871Y46336D01*
X58978Y46486D01*
X59094Y46631D01*
X59163Y46744D01*
X59239Y46850D01*
X59327Y47013D01*
X59423Y47171D01*
X59477Y47291D01*
X59539Y47406D01*
X59606Y47579D01*
X59682Y47748D01*
X59720Y47873D01*
X59767Y47996D01*
X59812Y48175D01*
X59865Y48352D01*
X59887Y48482D01*
X59919Y48609D01*
X59940Y48793D01*
X59971Y48976D01*
X59979Y49129D01*
X59992Y49237D01*
X59992Y49238D01*
X59991Y49346D01*
X59999Y49500D01*
X59987Y49684D01*
X59985Y49870D01*
X59967Y50000D01*
X59959Y50131D01*
X59924Y50313D01*
X59899Y50496D01*
X59865Y50623D01*
X59840Y50752D01*
X59782Y50928D01*
X59734Y51106D01*
X59684Y51227D01*
X59643Y51352D01*
X59564Y51520D01*
X59493Y51691D01*
X59429Y51805D01*
X59372Y51924D01*
X59272Y52079D01*
X59181Y52240D01*
X59102Y52345D01*
X59032Y52456D01*
X58913Y52598D01*
X58802Y52746D01*
X58711Y52840D01*
X58626Y52941D01*
X58491Y53067D01*
X58362Y53200D01*
X58259Y53282D01*
X58163Y53371D01*
X58013Y53479D01*
X57868Y53594D01*
X57756Y53663D01*
X57649Y53739D01*
X57487Y53827D01*
X57329Y53924D01*
X57209Y53978D01*
X57093Y54040D01*
X56921Y54107D01*
X56752Y54182D01*
X56626Y54220D01*
X56504Y54268D01*
X56324Y54312D01*
X56147Y54366D01*
X56017Y54388D01*
X55890Y54419D01*
X55707Y54441D01*
X55524Y54472D01*
X55370Y54480D01*
X55262Y54492D01*
X55153Y54491D01*
X55000Y54499D01*
X34999Y54499D01*
X34999Y58541D01*
X35505Y58541D01*
X35755Y58557D01*
X36006Y58566D01*
X36071Y58577D01*
X36136Y58581D01*
X36382Y58628D01*
X36630Y58669D01*
X36692Y58688D01*
X36756Y58700D01*
X36995Y58778D01*
X37236Y58850D01*
X37295Y58876D01*
X37357Y58897D01*
X37584Y59004D01*
X37814Y59106D01*
X37869Y59139D01*
X37928Y59167D01*
X38140Y59303D01*
X38355Y59433D01*
X38406Y59473D01*
X38461Y59508D01*
X38653Y59669D01*
X38850Y59825D01*
X38896Y59872D01*
X38946Y59913D01*
X39116Y60097D01*
X39292Y60277D01*
X39332Y60329D01*
X39376Y60377D01*
X39522Y60580D01*
X39674Y60781D01*
X39706Y60837D01*
X39744Y60890D01*
X39864Y61111D01*
X39989Y61329D01*
X40014Y61389D01*
X40045Y61446D01*
X40135Y61680D01*
X40232Y61912D01*
X40249Y61975D01*
X40273Y62036D01*
X40333Y62279D01*
X40399Y62522D01*
X40409Y62586D01*
X40424Y62650D01*
X40453Y62899D01*
X40489Y63148D01*
X40490Y63213D01*
X40497Y63277D01*
X40495Y63528D01*
X40498Y63780D01*
X40491Y63844D01*
X40490Y63910D01*
X40456Y64158D01*
X40428Y64408D01*
X40413Y64471D01*
X40404Y64536D01*
X40338Y64778D01*
X40279Y65022D01*
X40256Y65083D01*
X40239Y65146D01*
X40144Y65378D01*
X40054Y65613D01*
X40024Y65670D01*
X39999Y65730D01*
X39886Y65929D01*
X38717Y68750D01*
X38717Y71250D01*
X39988Y74317D01*
X40058Y74523D01*
X40137Y74726D01*
X40160Y74822D01*
X40192Y74915D01*
X40236Y75128D01*
X40288Y75340D01*
X40300Y75438D01*
X40320Y75534D01*
X40336Y75751D01*
X40361Y75967D01*
X40360Y76066D01*
X40368Y76164D01*
X40357Y76382D01*
X40355Y76600D01*
X40341Y76697D01*
X40336Y76796D01*
X40298Y77010D01*
X40268Y77226D01*
X40242Y77321D01*
X40225Y77418D01*
X40160Y77626D01*
X40103Y77836D01*
X40066Y77927D01*
X40036Y78021D01*
X39946Y78219D01*
X39863Y78420D01*
X39814Y78506D01*
X39773Y78596D01*
X39658Y78780D01*
X39551Y78970D01*
X39491Y79049D01*
X39439Y79133D01*
X39302Y79301D01*
X39171Y79476D01*
X39103Y79547D01*
X39041Y79623D01*
X38883Y79773D01*
X38731Y79930D01*
X38654Y79991D01*
X38583Y80059D01*
X38408Y80188D01*
X38238Y80324D01*
X38153Y80376D01*
X38074Y80434D01*
X37884Y80540D01*
X37698Y80654D01*
X37608Y80694D01*
X37522Y80742D01*
X37320Y80823D01*
X37121Y80912D01*
X37027Y80941D01*
X36936Y80978D01*
X36724Y81033D01*
X36516Y81096D01*
X36419Y81112D01*
X36324Y81137D01*
X36108Y81165D01*
X35893Y81202D01*
X35781Y81208D01*
X35697Y81218D01*
X35568Y81219D01*
X35369Y81229D01*
X27566Y81229D01*
X27431Y81257D01*
X27144Y81319D01*
X27122Y81321D01*
X27100Y81325D01*
X26807Y81347D01*
X26514Y81373D01*
X26492Y81372D01*
X26470Y81373D01*
X26176Y81359D01*
X25883Y81346D01*
X25861Y81343D01*
X25839Y81342D01*
X25548Y81290D01*
X25260Y81241D01*
X25238Y81235D01*
X25216Y81231D01*
X24936Y81143D01*
X24655Y81058D01*
X24634Y81049D01*
X24613Y81042D01*
X24345Y80919D01*
X24078Y80799D01*
X24057Y80787D01*
X24039Y80779D01*
X23945Y80721D01*
X23626Y80531D01*
X23203Y80248D01*
X22741Y80057D01*
X22250Y79959D01*
X20499Y79959D01*
X20499Y90000D01*
X20499Y100041D01*
X22250Y100041D01*
X22755Y99940D01*
X22798Y99935D01*
X22840Y99924D01*
X23110Y99893D01*
X23381Y99857D01*
X23425Y99856D01*
X23467Y99851D01*
X23740Y99854D01*
X24013Y99852D01*
X24056Y99858D01*
X24100Y99858D01*
X24369Y99895D01*
X24641Y99928D01*
X24683Y99939D01*
X24726Y99944D01*
X24988Y100015D01*
X25254Y100082D01*
X25294Y100098D01*
X25336Y100109D01*
X25588Y100213D01*
X25842Y100313D01*
X25880Y100333D01*
X25920Y100350D01*
X26158Y100485D01*
X26397Y100615D01*
X26432Y100641D01*
X26470Y100662D01*
X26689Y100826D01*
X26910Y100986D01*
X26941Y101015D01*
X26976Y101041D01*
X27172Y101232D01*
X27371Y101418D01*
X27398Y101451D01*
X27430Y101481D01*
X27601Y101695D01*
X27774Y101905D01*
X27797Y101941D01*
X27824Y101975D01*
X27966Y102208D01*
X28113Y102438D01*
X28131Y102478D01*
X28154Y102514D01*
X28265Y102763D01*
X28381Y103011D01*
X28394Y103052D01*
X28412Y103091D01*
X28491Y103352D01*
X28575Y103612D01*
X28583Y103655D01*
X28596Y103696D01*
X28641Y103965D01*
X28692Y104233D01*
X28694Y104277D01*
X28702Y104319D01*
X28729Y104844D01*
X28729Y111497D01*
X29684Y113802D01*
X29952Y114070D01*
X30009Y114135D01*
X30072Y114194D01*
X30217Y114371D01*
X30369Y114544D01*
X30418Y114616D01*
X30473Y114683D01*
X30595Y114877D01*
X30724Y115067D01*
X30763Y115145D01*
X30809Y115218D01*
X30952Y115518D01*
X31010Y115631D01*
X31020Y115659D01*
X31035Y115692D01*
X31191Y116067D01*
X31261Y116273D01*
X31340Y116476D01*
X31363Y116572D01*
X31395Y116665D01*
X31439Y116878D01*
X31491Y117090D01*
X31503Y117187D01*
X31523Y117284D01*
X31539Y117501D01*
X31564Y117717D01*
X31563Y117816D01*
X31571Y117914D01*
X31560Y118132D01*
X31558Y118350D01*
X31544Y118447D01*
X31539Y118546D01*
X31501Y118760D01*
X31471Y118976D01*
X31445Y119071D01*
X31428Y119168D01*
X31363Y119376D01*
X31306Y119586D01*
X31269Y119677D01*
X31239Y119771D01*
X31149Y119969D01*
X31066Y120170D01*
X31017Y120256D01*
X30976Y120346D01*
X30861Y120531D01*
X30754Y120720D01*
X30694Y120799D01*
X30642Y120883D01*
X30505Y121052D01*
X30374Y121226D01*
X30306Y121297D01*
X30244Y121373D01*
X30086Y121523D01*
X29934Y121680D01*
X29857Y121741D01*
X29786Y121809D01*
X29611Y121938D01*
X29441Y122074D01*
X29356Y122126D01*
X29277Y122184D01*
X29087Y122290D01*
X28901Y122404D01*
X28811Y122444D01*
X28725Y122492D01*
X28523Y122573D01*
X28324Y122662D01*
X28230Y122691D01*
X28139Y122727D01*
X27928Y122782D01*
X27719Y122846D01*
X27622Y122862D01*
X27527Y122887D01*
X27311Y122915D01*
X27096Y122952D01*
X26984Y122958D01*
X26900Y122968D01*
X26771Y122969D01*
X26572Y122979D01*
X23439Y122979D01*
X22379Y123418D01*
X21568Y124229D01*
X21535Y124308D01*
X21497Y124386D01*
X21466Y124467D01*
X21358Y124670D01*
X21257Y124876D01*
X21209Y124948D01*
X21169Y125025D01*
X21036Y125212D01*
X20909Y125404D01*
X20853Y125470D01*
X20803Y125540D01*
X20580Y125788D01*
X20498Y125884D01*
X20476Y125903D01*
X20452Y125930D01*
X20184Y126198D01*
X19229Y128503D01*
X19229Y143403D01*
X19222Y143522D01*
X19224Y143641D01*
X19202Y143837D01*
X19189Y144034D01*
X19167Y144151D01*
X19154Y144270D01*
X19107Y144461D01*
X19070Y144654D01*
X19033Y144768D01*
X19005Y144884D01*
X18935Y145068D01*
X18873Y145255D01*
X18822Y145363D01*
X18780Y145475D01*
X18687Y145648D01*
X18603Y145826D01*
X18538Y145927D01*
X18482Y146032D01*
X18368Y146192D01*
X18262Y146359D01*
X18185Y146450D01*
X18116Y146548D01*
X17946Y146736D01*
X17857Y146844D01*
X17814Y146883D01*
X17765Y146938D01*
X17438Y147265D01*
X17348Y147344D01*
X17265Y147430D01*
X17111Y147553D01*
X16964Y147683D01*
X16865Y147750D01*
X16772Y147824D01*
X16603Y147927D01*
X16440Y148037D01*
X16334Y148091D01*
X16232Y148154D01*
X16052Y148234D01*
X15876Y148323D01*
X15764Y148363D01*
X15655Y148412D01*
X15467Y148469D01*
X15281Y148536D01*
X15165Y148561D01*
X15050Y148596D01*
X14856Y148629D01*
X14664Y148671D01*
X14545Y148682D01*
X14427Y148702D01*
X14173Y148715D01*
X14034Y148728D01*
X13976Y148725D01*
X13903Y148729D01*
X-3730Y148729D01*
X-3915Y148718D01*
X-4100Y148716D01*
X-4230Y148698D01*
X-4361Y148689D01*
X-4542Y148654D01*
X-4726Y148629D01*
X-4852Y148595D01*
X-4982Y148570D01*
X-5158Y148512D01*
X-5336Y148464D01*
X-5457Y148414D01*
X-5582Y148373D01*
X-5750Y148294D01*
X-5920Y148224D01*
X-6035Y148159D01*
X-6153Y148103D01*
X-6309Y148003D01*
X-6470Y147912D01*
X-6575Y147833D01*
X-6686Y147762D01*
X-6828Y147643D01*
X-6976Y147532D01*
X-7070Y147441D01*
X-7171Y147357D01*
X-7297Y147221D01*
X-7430Y147092D01*
X-7512Y146990D01*
X-7601Y146893D01*
X-7709Y146743D01*
X-7824Y146599D01*
X-7893Y146486D01*
X-7969Y146380D01*
X-8057Y146217D01*
X-8154Y146059D01*
X-8207Y145939D01*
X-8270Y145824D01*
X-8337Y145651D01*
X-8412Y145482D01*
X-8450Y145357D01*
X-8498Y145234D01*
X-8542Y145054D01*
X-8596Y144877D01*
X-8618Y144748D01*
X-8649Y144620D01*
X-8671Y144437D01*
X-8702Y144254D01*
X-8710Y144101D01*
X-8722Y143993D01*
X-8721Y143884D01*
X-8729Y143730D01*
X-8729Y47079D01*
X-8713Y46829D01*
X-8704Y46579D01*
X-8693Y46514D01*
X-8689Y46448D01*
X-8642Y46202D01*
X-8601Y45955D01*
X-8583Y45892D01*
X-8570Y45828D01*
X-8492Y45589D01*
X-8420Y45349D01*
X-8394Y45289D01*
X-8373Y45227D01*
X-8266Y45000D01*
X-8165Y44771D01*
X-8131Y44715D01*
X-8103Y44656D01*
X-7967Y44444D01*
X-7838Y44230D01*
X-7797Y44179D01*
X-7762Y44123D01*
X-7601Y43931D01*
X-7446Y43735D01*
X-7399Y43689D01*
X-7357Y43638D01*
X-7173Y43468D01*
X-6994Y43292D01*
X-6942Y43253D01*
X-6893Y43208D01*
X-6690Y43062D01*
X-6490Y42911D01*
X-6433Y42878D01*
X-6380Y42840D01*
X-6160Y42721D01*
X-5942Y42596D01*
X-5881Y42571D01*
X-5824Y42539D01*
X-5590Y42449D01*
X-5359Y42353D01*
X-5295Y42335D01*
X-5234Y42311D01*
X-4991Y42251D01*
X-4749Y42185D01*
X-4684Y42176D01*
X-4620Y42160D01*
X-4372Y42131D01*
X-4123Y42095D01*
X-4058Y42094D01*
X-3993Y42087D01*
X-3743Y42089D01*
X-3491Y42086D01*
X-3426Y42093D01*
X-3360Y42094D01*
X-3112Y42128D01*
X-2863Y42156D01*
X-2799Y42171D01*
X-2734Y42180D01*
X-2492Y42245D01*
X-2249Y42304D01*
X-2187Y42328D01*
X-2124Y42345D01*
X-1892Y42440D01*
X-1658Y42529D01*
X-1600Y42560D01*
X-1540Y42585D01*
X-1322Y42709D01*
X-1101Y42827D01*
X-1047Y42865D01*
X-990Y42898D01*
X-789Y43048D01*
X-585Y43193D01*
X-531Y43242D01*
X-484Y43277D01*
X-384Y43374D01*
X-195Y43544D01*
X398Y44138D01*
X814Y44416D01*
X1277Y44607D01*
X1768Y44705D01*
X3115Y44705D01*
X3115Y30988D01*
X3115Y17271D01*
X1768Y17271D01*
X1277Y17369D01*
X814Y17560D01*
X398Y17838D01*
X45Y18192D01*
X-84Y18385D01*
X-111Y18420D01*
X-133Y18457D01*
X-303Y18671D01*
X-468Y18888D01*
X-498Y18918D01*
X-525Y18952D01*
X-721Y19144D01*
X-912Y19337D01*
X-946Y19364D01*
X-977Y19394D01*
X-1194Y19559D01*
X-1409Y19728D01*
X-1447Y19750D01*
X-1481Y19776D01*
X-1718Y19912D01*
X-1952Y20052D01*
X-1991Y20069D01*
X-2029Y20091D01*
X-2281Y20196D01*
X-2531Y20305D01*
X-2572Y20318D01*
X-2612Y20334D01*
X-2876Y20407D01*
X-3137Y20484D01*
X-3180Y20491D01*
X-3222Y20502D01*
X-3492Y20541D01*
X-3761Y20584D01*
X-3805Y20585D01*
X-3848Y20592D01*
X-4121Y20596D01*
X-4393Y20605D01*
X-4436Y20601D01*
X-4480Y20601D01*
X-4751Y20571D01*
X-5022Y20546D01*
X-5065Y20536D01*
X-5108Y20531D01*
X-5372Y20467D01*
X-5639Y20408D01*
X-5680Y20393D01*
X-5722Y20383D01*
X-5977Y20286D01*
X-6234Y20193D01*
X-6272Y20173D01*
X-6313Y20158D01*
X-6553Y20029D01*
X-6796Y19905D01*
X-6832Y19880D01*
X-6870Y19860D01*
X-7093Y19702D01*
X-7318Y19548D01*
X-7350Y19519D01*
X-7386Y19494D01*
X-7776Y19143D01*
X-8184Y18735D01*
X-8651Y18541D01*
X-21349Y18541D01*
X-21816Y18735D01*
X-22300Y19219D01*
X-22355Y19302D01*
X-22487Y19515D01*
X-22528Y19566D01*
X-22564Y19620D01*
X-22728Y19811D01*
X-22886Y20005D01*
X-22933Y20050D01*
X-22976Y20100D01*
X-23162Y20269D01*
X-23343Y20441D01*
X-23396Y20480D01*
X-23445Y20524D01*
X-23651Y20668D01*
X-23852Y20816D01*
X-23909Y20848D01*
X-23963Y20885D01*
X-24186Y21002D01*
X-24404Y21124D01*
X-24465Y21148D01*
X-24523Y21179D01*
X-24759Y21266D01*
X-24991Y21359D01*
X-25054Y21376D01*
X-25116Y21399D01*
X-25360Y21456D01*
X-25603Y21519D01*
X-25667Y21527D01*
X-25731Y21542D01*
X-25981Y21568D01*
X-26229Y21600D01*
X-26295Y21600D01*
X-26360Y21607D01*
X-26611Y21601D01*
X-26862Y21602D01*
X-26926Y21594D01*
X-26992Y21592D01*
X-27240Y21554D01*
X-27489Y21523D01*
X-27552Y21507D01*
X-27617Y21497D01*
X-27858Y21429D01*
X-28101Y21367D01*
X-28162Y21342D01*
X-28225Y21325D01*
X-28455Y21226D01*
X-28689Y21134D01*
X-28746Y21102D01*
X-28806Y21076D01*
X-29023Y20950D01*
X-29242Y20829D01*
X-29295Y20790D01*
X-29352Y20757D01*
X-29551Y20604D01*
X-29753Y20456D01*
X-29800Y20411D01*
X-29852Y20371D01*
X-30030Y20194D01*
X-30212Y20022D01*
X-30254Y19972D01*
X-30300Y19925D01*
X-30454Y19727D01*
X-30614Y19534D01*
X-30648Y19478D01*
X-30689Y19426D01*
X-30808Y19225D01*
X-31298Y18735D01*
X-31765Y18541D01*
X-44463Y18541D01*
X-44930Y18735D01*
X-45287Y19092D01*
X-45679Y20039D01*
X-45761Y20205D01*
X-45833Y20375D01*
X-45900Y20488D01*
X-45958Y20606D01*
X-46059Y20761D01*
X-46153Y20920D01*
X-46233Y21024D01*
X-46305Y21134D01*
X-46426Y21274D01*
X-46539Y21421D01*
X-46632Y21514D01*
X-46717Y21614D01*
X-46854Y21738D01*
X-46985Y21869D01*
X-47088Y21950D01*
X-47186Y22038D01*
X-47338Y22144D01*
X-47483Y22257D01*
X-47596Y22324D01*
X-47704Y22399D01*
X-47868Y22485D01*
X-48027Y22579D01*
X-48148Y22631D01*
X-48264Y22692D01*
X-48438Y22757D01*
X-48607Y22830D01*
X-48733Y22867D01*
X-48857Y22912D01*
X-49037Y22955D01*
X-49215Y23006D01*
X-49344Y23026D01*
X-49472Y23056D01*
X-49656Y23075D01*
X-49839Y23104D01*
X-49970Y23107D01*
X-50101Y23121D01*
X-50286Y23116D01*
X-50471Y23122D01*
X-50602Y23109D01*
X-50733Y23106D01*
X-50916Y23078D01*
X-51100Y23060D01*
X-51228Y23031D01*
X-51358Y23011D01*
X-51536Y22961D01*
X-51716Y22919D01*
X-51861Y22868D01*
X-51966Y22838D01*
X-52066Y22795D01*
X-52211Y22744D01*
X-52247Y22729D01*
X-67753Y22729D01*
X-68234Y22928D01*
X-68235Y22930D01*
X-68389Y23053D01*
X-68536Y23183D01*
X-68635Y23250D01*
X-68728Y23324D01*
X-68897Y23427D01*
X-69060Y23537D01*
X-69166Y23591D01*
X-69268Y23654D01*
X-69448Y23734D01*
X-69624Y23823D01*
X-69736Y23863D01*
X-69845Y23912D01*
X-70033Y23969D01*
X-70219Y24036D01*
X-70335Y24061D01*
X-70450Y24096D01*
X-70644Y24129D01*
X-70836Y24171D01*
X-70955Y24182D01*
X-71073Y24202D01*
X-71327Y24215D01*
X-71466Y24228D01*
X-71524Y24225D01*
X-71597Y24229D01*
X-73403Y24229D01*
X-73522Y24222D01*
X-73641Y24224D01*
X-73837Y24202D01*
X-74034Y24189D01*
X-74151Y24167D01*
X-74270Y24154D01*
X-74461Y24107D01*
X-74654Y24070D01*
X-74768Y24033D01*
X-74884Y24005D01*
X-75068Y23935D01*
X-75255Y23873D01*
X-75363Y23822D01*
X-75475Y23780D01*
X-75648Y23687D01*
X-75826Y23603D01*
X-75927Y23538D01*
X-76032Y23482D01*
X-76192Y23368D01*
X-76359Y23262D01*
X-76450Y23185D01*
X-76548Y23116D01*
X-76736Y22946D01*
X-76844Y22857D01*
X-76883Y22814D01*
X-76938Y22765D01*
X-77265Y22438D01*
X-77344Y22348D01*
X-77430Y22265D01*
X-77553Y22111D01*
X-77683Y21964D01*
X-77750Y21865D01*
X-77824Y21772D01*
X-77927Y21603D01*
X-78037Y21440D01*
X-78091Y21334D01*
X-78154Y21232D01*
X-78234Y21052D01*
X-78323Y20876D01*
X-78363Y20764D01*
X-78412Y20655D01*
X-78469Y20467D01*
X-78536Y20281D01*
X-78561Y20165D01*
X-78596Y20050D01*
X-78629Y19856D01*
X-78671Y19664D01*
X-78682Y19545D01*
X-78702Y19427D01*
X-78715Y19173D01*
X-78728Y19034D01*
X-78725Y18976D01*
X-78729Y18903D01*
X-78729Y17273D01*
X-78724Y17187D01*
X-78726Y17100D01*
X-78717Y17008D01*
X-78717Y13750D01*
X-79674Y11441D01*
X-81441Y9674D01*
X-83750Y8717D01*
X-86250Y8717D01*
X-88559Y9674D01*
X-90326Y11441D01*
X-91283Y13750D01*
X-91283Y17045D01*
X-91281Y17081D01*
X-91271Y17207D01*
X-91273Y17237D01*
X-91271Y17273D01*
X-91271Y18903D01*
X-91278Y19022D01*
X-91276Y19141D01*
X-91298Y19337D01*
X-91311Y19534D01*
X-91333Y19651D01*
X-91346Y19770D01*
X-91393Y19961D01*
X-91430Y20154D01*
X-91467Y20268D01*
X-91495Y20384D01*
X-91565Y20568D01*
X-91627Y20755D01*
X-91678Y20863D01*
X-91720Y20975D01*
X-91813Y21148D01*
X-91897Y21326D01*
X-91962Y21427D01*
X-92018Y21532D01*
X-92132Y21692D01*
X-92238Y21859D01*
X-92315Y21950D01*
X-92384Y22048D01*
X-92554Y22236D01*
X-92643Y22344D01*
X-92686Y22383D01*
X-92735Y22438D01*
X-93577Y23280D01*
X-93838Y23909D01*
X-93933Y24104D01*
X-94022Y24303D01*
X-94072Y24388D01*
X-94116Y24476D01*
X-94235Y24658D01*
X-94348Y24844D01*
X-94409Y24922D01*
X-94464Y25004D01*
X-94605Y25169D01*
X-94741Y25340D01*
X-94811Y25409D01*
X-94875Y25484D01*
X-95037Y25630D01*
X-95192Y25782D01*
X-95271Y25842D01*
X-95344Y25908D01*
X-95522Y26032D01*
X-95696Y26164D01*
X-95782Y26213D01*
X-95862Y26269D01*
X-96055Y26370D01*
X-96244Y26479D01*
X-96335Y26517D01*
X-96422Y26562D01*
X-96627Y26638D01*
X-96828Y26722D01*
X-96923Y26748D01*
X-97015Y26782D01*
X-97227Y26832D01*
X-97437Y26890D01*
X-97534Y26904D01*
X-97630Y26926D01*
X-97847Y26948D01*
X-98063Y26979D01*
X-98161Y26981D01*
X-98259Y26991D01*
X-98477Y26986D01*
X-98695Y26989D01*
X-98793Y26978D01*
X-98891Y26976D01*
X-99107Y26943D01*
X-99323Y26919D01*
X-99419Y26896D01*
X-99516Y26881D01*
X-99726Y26821D01*
X-99937Y26770D01*
X-100029Y26735D01*
X-100124Y26708D01*
X-100325Y26623D01*
X-100528Y26545D01*
X-100615Y26499D01*
X-100706Y26460D01*
X-100894Y26350D01*
X-101086Y26247D01*
X-101166Y26190D01*
X-101251Y26141D01*
X-101424Y26008D01*
X-101601Y25882D01*
X-101684Y25807D01*
X-101752Y25755D01*
X-101843Y25664D01*
X-101991Y25530D01*
X-104991Y22531D01*
X-108229Y21189D01*
X-111735Y21189D01*
X-114973Y22531D01*
X-117451Y25009D01*
X-118793Y28247D01*
X-118793Y31753D01*
X-117451Y34991D01*
X-115977Y36465D01*
X-115855Y36604D01*
X-115726Y36736D01*
X-115646Y36841D01*
X-115559Y36939D01*
X-115456Y37092D01*
X-115344Y37240D01*
X-115278Y37354D01*
X-115205Y37463D01*
X-115121Y37627D01*
X-115029Y37788D01*
X-114978Y37909D01*
X-114919Y38026D01*
X-114857Y38200D01*
X-114786Y38371D01*
X-114751Y38498D01*
X-114707Y38622D01*
X-114667Y38802D01*
X-114618Y38981D01*
X-114599Y39111D01*
X-114571Y39239D01*
X-114555Y39423D01*
X-114529Y39606D01*
X-114526Y39738D01*
X-114515Y39869D01*
X-114522Y40053D01*
X-114519Y40238D01*
X-114533Y40369D01*
X-114538Y40500D01*
X-114568Y40683D01*
X-114589Y40867D01*
X-114620Y40995D01*
X-114641Y41124D01*
X-114694Y41301D01*
X-114737Y41481D01*
X-114784Y41604D01*
X-114822Y41730D01*
X-114897Y41899D01*
X-114962Y42072D01*
X-115024Y42187D01*
X-115078Y42308D01*
X-115173Y42466D01*
X-115260Y42629D01*
X-115336Y42736D01*
X-115404Y42849D01*
X-115519Y42994D01*
X-115626Y43145D01*
X-115729Y43259D01*
X-115796Y43344D01*
X-115875Y43421D01*
X-115977Y43535D01*
X-117451Y45009D01*
X-118793Y48247D01*
X-118793Y48408D01*
X-118811Y48690D01*
X-118825Y48974D01*
X-118831Y49006D01*
X-118833Y49039D01*
X-118886Y49317D01*
X-118936Y49596D01*
X-118946Y49627D01*
X-118952Y49660D01*
X-119040Y49930D01*
X-119125Y50199D01*
X-119138Y50229D01*
X-119149Y50260D01*
X-119270Y50517D01*
X-119388Y50774D01*
X-119405Y50802D01*
X-119419Y50832D01*
X-119573Y51071D01*
X-119722Y51311D01*
X-119742Y51336D01*
X-119760Y51364D01*
X-119942Y51582D01*
X-120120Y51801D01*
X-120144Y51824D01*
X-120165Y51849D01*
X-120373Y52042D01*
X-120578Y52237D01*
X-120604Y52257D01*
X-120629Y52279D01*
X-120858Y52444D01*
X-121087Y52612D01*
X-121116Y52628D01*
X-121142Y52647D01*
X-121392Y52782D01*
X-121639Y52920D01*
X-121669Y52932D01*
X-121698Y52948D01*
X-121963Y53050D01*
X-122226Y53156D01*
X-122257Y53164D01*
X-122288Y53176D01*
X-122562Y53244D01*
X-122837Y53315D01*
X-122870Y53320D01*
X-122902Y53327D01*
X-123182Y53360D01*
X-123464Y53397D01*
X-123497Y53397D01*
X-123529Y53400D01*
X-123812Y53397D01*
X-124096Y53398D01*
X-124129Y53394D01*
X-124162Y53394D01*
X-124441Y53355D01*
X-124723Y53320D01*
X-124755Y53312D01*
X-124788Y53307D01*
X-125060Y53234D01*
X-125336Y53163D01*
X-125366Y53151D01*
X-125398Y53142D01*
X-125659Y53035D01*
X-125923Y52930D01*
X-125952Y52914D01*
X-125982Y52902D01*
X-126229Y52762D01*
X-126477Y52625D01*
X-126503Y52606D01*
X-126532Y52590D01*
X-126759Y52419D01*
X-126988Y52253D01*
X-127011Y52230D01*
X-127038Y52210D01*
X-127242Y52013D01*
X-127447Y51819D01*
X-127468Y51793D01*
X-127492Y51771D01*
X-127669Y51549D01*
X-127848Y51330D01*
X-127866Y51303D01*
X-127886Y51277D01*
X-128034Y51034D01*
X-128185Y50795D01*
X-128200Y50762D01*
X-128216Y50737D01*
X-128267Y50622D01*
X-128411Y50321D01*
X-129843Y46864D01*
X-132344Y44363D01*
X-135643Y42996D01*
X-135780Y42929D01*
X-135920Y42871D01*
X-136063Y42790D01*
X-136211Y42718D01*
X-136338Y42634D01*
X-136470Y42559D01*
X-136602Y42460D01*
X-136739Y42370D01*
X-136854Y42271D01*
X-136976Y42180D01*
X-137094Y42065D01*
X-137218Y41959D01*
X-137320Y41846D01*
X-137430Y41740D01*
X-137532Y41612D01*
X-137642Y41490D01*
X-137729Y41365D01*
X-137824Y41246D01*
X-137910Y41106D01*
X-138004Y40971D01*
X-138074Y40837D01*
X-138154Y40707D01*
X-138221Y40557D01*
X-138297Y40411D01*
X-138350Y40268D01*
X-138412Y40130D01*
X-138460Y39973D01*
X-138517Y39819D01*
X-138552Y39670D01*
X-138596Y39525D01*
X-138623Y39363D01*
X-138661Y39203D01*
X-138676Y39052D01*
X-138702Y38902D01*
X-138712Y38703D01*
X-138725Y38574D01*
X-138723Y38490D01*
X-138729Y38377D01*
X-138729Y18968D01*
X-138722Y18849D01*
X-138724Y18730D01*
X-138702Y18534D01*
X-138689Y18337D01*
X-138667Y18220D01*
X-138654Y18102D01*
X-138607Y17910D01*
X-138570Y17717D01*
X-138533Y17603D01*
X-138505Y17487D01*
X-138435Y17303D01*
X-138373Y17116D01*
X-138322Y17008D01*
X-138280Y16897D01*
X-138187Y16723D01*
X-138103Y16545D01*
X-138038Y16444D01*
X-137982Y16339D01*
X-137868Y16179D01*
X-137762Y16012D01*
X-137685Y15921D01*
X-137616Y15823D01*
X-137446Y15635D01*
X-137357Y15527D01*
X-137314Y15488D01*
X-137265Y15433D01*
X-50767Y-71065D01*
X-50677Y-71144D01*
X-50594Y-71230D01*
X-50440Y-71353D01*
X-50292Y-71483D01*
X-50194Y-71550D01*
X-50100Y-71624D01*
X-49932Y-71727D01*
X-49769Y-71837D01*
X-49663Y-71891D01*
X-49561Y-71954D01*
X-49381Y-72034D01*
X-49205Y-72123D01*
X-49093Y-72163D01*
X-48984Y-72212D01*
X-48796Y-72269D01*
X-48610Y-72336D01*
X-48494Y-72361D01*
X-48379Y-72396D01*
X-48185Y-72429D01*
X-47993Y-72471D01*
X-47874Y-72482D01*
X-47756Y-72502D01*
X-47502Y-72515D01*
X-47363Y-72528D01*
X-47305Y-72525D01*
X-47232Y-72529D01*
X-653Y-72529D01*
X1652Y-73484D01*
X43416Y-115248D01*
X44371Y-117553D01*
X44371Y-125147D01*
X44376Y-125234D01*
X44374Y-125320D01*
X44396Y-125549D01*
X44411Y-125778D01*
X44427Y-125863D01*
X44435Y-125949D01*
X44487Y-126173D01*
X44530Y-126399D01*
X44557Y-126481D01*
X44576Y-126565D01*
X44687Y-126879D01*
X44727Y-126999D01*
X44739Y-127026D01*
X44751Y-127060D01*
X44911Y-127445D01*
X44911Y-130155D01*
X43874Y-132658D01*
X41958Y-134574D01*
X39455Y-135611D01*
X36745Y-135611D01*
X34242Y-134574D01*
X32326Y-132658D01*
X31289Y-130155D01*
X31289Y-127445D01*
X31449Y-127060D01*
X31477Y-126978D01*
X31512Y-126899D01*
X31579Y-126680D01*
X31653Y-126462D01*
X31671Y-126377D01*
X31696Y-126295D01*
X31734Y-126068D01*
X31781Y-125843D01*
X31787Y-125757D01*
X31802Y-125671D01*
X31819Y-125339D01*
X31829Y-125213D01*
X31827Y-125183D01*
X31829Y-125147D01*
X31829Y-123468D01*
X31822Y-123349D01*
X31824Y-123230D01*
X31802Y-123034D01*
X31789Y-122837D01*
X31767Y-122720D01*
X31754Y-122602D01*
X31707Y-122410D01*
X31670Y-122217D01*
X31633Y-122103D01*
X31605Y-121987D01*
X31535Y-121803D01*
X31473Y-121616D01*
X31422Y-121508D01*
X31380Y-121397D01*
X31287Y-121223D01*
X31203Y-121045D01*
X31138Y-120944D01*
X31082Y-120839D01*
X30968Y-120679D01*
X30862Y-120512D01*
X30785Y-120421D01*
X30716Y-120323D01*
X30546Y-120135D01*
X30457Y-120027D01*
X30414Y-119988D01*
X30365Y-119933D01*
X-3033Y-86535D01*
X-3123Y-86456D01*
X-3206Y-86370D01*
X-3360Y-86247D01*
X-3508Y-86117D01*
X-3606Y-86050D01*
X-3700Y-85976D01*
X-3868Y-85873D01*
X-4031Y-85763D01*
X-4137Y-85709D01*
X-4239Y-85646D01*
X-4419Y-85566D01*
X-4595Y-85477D01*
X-4707Y-85437D01*
X-4816Y-85388D01*
X-5004Y-85331D01*
X-5190Y-85264D01*
X-5306Y-85239D01*
X-5421Y-85204D01*
X-5615Y-85171D01*
X-5807Y-85129D01*
X-5926Y-85118D01*
X-6044Y-85098D01*
X-6298Y-85085D01*
X-6437Y-85072D01*
X-6495Y-85075D01*
X-6568Y-85071D01*
X-10092Y-85071D01*
X-10341Y-85087D01*
X-10592Y-85096D01*
X-10657Y-85107D01*
X-10723Y-85111D01*
X-10968Y-85158D01*
X-11216Y-85199D01*
X-11279Y-85218D01*
X-11343Y-85230D01*
X-11582Y-85308D01*
X-11822Y-85380D01*
X-11882Y-85406D01*
X-11944Y-85427D01*
X-12171Y-85534D01*
X-12400Y-85635D01*
X-12456Y-85669D01*
X-12515Y-85697D01*
X-12727Y-85833D01*
X-12941Y-85962D01*
X-12992Y-86003D01*
X-13048Y-86038D01*
X-13240Y-86199D01*
X-13436Y-86354D01*
X-13482Y-86401D01*
X-13533Y-86443D01*
X-13703Y-86627D01*
X-13879Y-86806D01*
X-13918Y-86858D01*
X-13963Y-86907D01*
X-14109Y-87110D01*
X-14260Y-87310D01*
X-14293Y-87367D01*
X-14331Y-87420D01*
X-14450Y-87641D01*
X-14575Y-87858D01*
X-14600Y-87919D01*
X-14632Y-87976D01*
X-14722Y-88210D01*
X-14818Y-88441D01*
X-14836Y-88505D01*
X-14860Y-88566D01*
X-14920Y-88809D01*
X-14986Y-89051D01*
X-14995Y-89116D01*
X-15011Y-89180D01*
X-15040Y-89428D01*
X-15076Y-89676D01*
X-15077Y-89742D01*
X-15084Y-89807D01*
X-15082Y-90057D01*
X-15085Y-90308D01*
X-15078Y-90374D01*
X-15077Y-90440D01*
X-15043Y-90687D01*
X-15015Y-90937D01*
X-15000Y-91001D01*
X-14991Y-91066D01*
X-14926Y-91307D01*
X-14867Y-91551D01*
X-14843Y-91613D01*
X-14826Y-91676D01*
X-14731Y-91907D01*
X-14642Y-92142D01*
X-14611Y-92200D01*
X-14586Y-92260D01*
X-14462Y-92478D01*
X-14344Y-92699D01*
X-14306Y-92753D01*
X-14273Y-92810D01*
X-14123Y-93011D01*
X-13978Y-93215D01*
X-13929Y-93269D01*
X-13894Y-93316D01*
X-13797Y-93416D01*
X-13627Y-93605D01*
X-11281Y-95951D01*
X14551Y-121783D01*
X14616Y-121840D01*
X14676Y-121903D01*
X14853Y-122049D01*
X15025Y-122201D01*
X15097Y-122249D01*
X15164Y-122304D01*
X15358Y-122426D01*
X15549Y-122555D01*
X15626Y-122595D01*
X15699Y-122641D01*
X15999Y-122784D01*
X16113Y-122841D01*
X16140Y-122851D01*
X16173Y-122867D01*
X16558Y-123026D01*
X18474Y-124942D01*
X19511Y-127445D01*
X19511Y-130155D01*
X18474Y-132658D01*
X16558Y-134574D01*
X14055Y-135611D01*
X11345Y-135611D01*
X8842Y-134574D01*
X6926Y-132658D01*
X6767Y-132273D01*
X6729Y-132196D01*
X6698Y-132115D01*
X6589Y-131912D01*
X6488Y-131706D01*
X6441Y-131633D01*
X6400Y-131557D01*
X6267Y-131369D01*
X6141Y-131178D01*
X6084Y-131112D01*
X6034Y-131041D01*
X5811Y-130794D01*
X5729Y-130698D01*
X5707Y-130678D01*
X5683Y-130651D01*
X2645Y-127613D01*
X2467Y-127456D01*
X2324Y-127320D01*
X2303Y-127305D01*
X2273Y-127277D01*
X2220Y-127239D01*
X2171Y-127195D01*
X1973Y-127061D01*
X1815Y-126945D01*
X1793Y-126933D01*
X1760Y-126909D01*
X1702Y-126878D01*
X1647Y-126841D01*
X1433Y-126732D01*
X1263Y-126637D01*
X1240Y-126628D01*
X1204Y-126608D01*
X1142Y-126585D01*
X1084Y-126555D01*
X856Y-126474D01*
X677Y-126402D01*
X653Y-126396D01*
X614Y-126380D01*
X550Y-126365D01*
X488Y-126343D01*
X251Y-126290D01*
X65Y-126242D01*
X41Y-126239D01*
X0Y-126229D01*
X-65Y-126221D01*
X-129Y-126207D01*
X-372Y-126185D01*
X-562Y-126161D01*
X-586Y-126161D01*
X-627Y-126156D01*
X-693Y-126157D01*
X-759Y-126151D01*
X-1003Y-126160D01*
X-1194Y-126159D01*
X-1218Y-126162D01*
X-1260Y-126163D01*
X-1324Y-126172D01*
X-1390Y-126174D01*
X-1631Y-126214D01*
X-1821Y-126237D01*
X-1844Y-126243D01*
X-1886Y-126249D01*
X-1949Y-126266D01*
X-2014Y-126277D01*
X-2247Y-126346D01*
X-2434Y-126394D01*
X-2456Y-126403D01*
X-2496Y-126414D01*
X-2557Y-126439D01*
X-2620Y-126458D01*
X-2842Y-126556D01*
X-3021Y-126627D01*
X-3043Y-126639D01*
X-3080Y-126654D01*
X-3138Y-126687D01*
X-3198Y-126713D01*
X-3404Y-126838D01*
X-3575Y-126932D01*
X-3595Y-126947D01*
X-3630Y-126967D01*
X-3683Y-127006D01*
X-3739Y-127040D01*
X-3926Y-127188D01*
X-4086Y-127305D01*
X-4104Y-127322D01*
X-4136Y-127346D01*
X-4183Y-127392D01*
X-4234Y-127432D01*
X-4400Y-127602D01*
X-4545Y-127739D01*
X-4562Y-127759D01*
X-4590Y-127786D01*
X-4631Y-127837D01*
X-4677Y-127884D01*
X-4818Y-128071D01*
X-4946Y-128227D01*
X-4961Y-128250D01*
X-4984Y-128279D01*
X-5019Y-128336D01*
X-5058Y-128388D01*
X-5174Y-128589D01*
X-5283Y-128762D01*
X-5296Y-128790D01*
X-5314Y-128819D01*
X-5341Y-128879D01*
X-5373Y-128936D01*
X-5426Y-129063D01*
X-5509Y-129236D01*
X-6926Y-132658D01*
X-8842Y-134574D01*
X-11345Y-135611D01*
X-14055Y-135611D01*
G37*
%LPD*%
%LPC*%
G36*
X-653444Y-361161D02*
X-653444Y-361161D01*
X-660098Y-359378D01*
X-666063Y-355934D01*
X-670934Y-351063D01*
X-674378Y-345098D01*
X-676161Y-338444D01*
X-676161Y-331556D01*
X-674378Y-324902D01*
X-670934Y-318937D01*
X-666063Y-314066D01*
X-660098Y-310622D01*
X-653444Y-308839D01*
X-646556Y-308839D01*
X-639902Y-310622D01*
X-633937Y-314066D01*
X-629066Y-318937D01*
X-625622Y-324902D01*
X-623839Y-331556D01*
X-623839Y-338444D01*
X-625622Y-345098D01*
X-629066Y-351063D01*
X-633937Y-355934D01*
X-639902Y-359378D01*
X-646556Y-361161D01*
X-653444Y-361161D01*
G37*
%LPD*%
%LPC*%
G36*
X646556Y-361161D02*
X646556Y-361161D01*
X639902Y-359378D01*
X633937Y-355934D01*
X629066Y-351063D01*
X625622Y-345098D01*
X623839Y-338444D01*
X623839Y-331556D01*
X625622Y-324902D01*
X629066Y-318937D01*
X633937Y-314066D01*
X639902Y-310622D01*
X646556Y-308839D01*
X653444Y-308839D01*
X660098Y-310622D01*
X666063Y-314066D01*
X670934Y-318937D01*
X674378Y-324902D01*
X676161Y-331556D01*
X676161Y-338444D01*
X674378Y-345098D01*
X670934Y-351063D01*
X666063Y-355934D01*
X660098Y-359378D01*
X653444Y-361161D01*
X646556Y-361161D01*
G37*
%LPD*%
%LPC*%
G36*
X546556Y288839D02*
X546556Y288839D01*
X539902Y290622D01*
X533937Y294066D01*
X529066Y298937D01*
X525622Y304902D01*
X523839Y311556D01*
X523839Y318444D01*
X525622Y325098D01*
X529066Y331063D01*
X533937Y335934D01*
X539902Y339378D01*
X546556Y341161D01*
X553444Y341161D01*
X560098Y339378D01*
X566063Y335934D01*
X570934Y331063D01*
X574378Y325098D01*
X576161Y318444D01*
X576161Y311556D01*
X574378Y304902D01*
X570934Y298937D01*
X566063Y294066D01*
X560098Y290622D01*
X553444Y288839D01*
X546556Y288839D01*
G37*
%LPD*%
%LPC*%
G36*
X-553444Y288839D02*
X-553444Y288839D01*
X-560098Y290622D01*
X-566063Y294066D01*
X-570934Y298937D01*
X-574378Y304902D01*
X-576161Y311556D01*
X-576161Y318444D01*
X-574378Y325098D01*
X-570934Y331063D01*
X-566063Y335934D01*
X-560098Y339378D01*
X-553444Y341161D01*
X-546556Y341161D01*
X-539902Y339378D01*
X-533937Y335934D01*
X-529066Y331063D01*
X-525622Y325098D01*
X-523839Y318444D01*
X-523839Y311556D01*
X-525622Y304902D01*
X-529066Y298937D01*
X-533937Y294066D01*
X-539902Y290622D01*
X-546556Y288839D01*
X-553444Y288839D01*
G37*
%LPD*%
%LPC*%
G36*
X-356352Y282569D02*
X-356352Y282569D01*
X-362545Y285135D01*
X-367285Y289875D01*
X-369851Y296068D01*
X-369851Y333932D01*
X-367285Y340125D01*
X-362545Y344865D01*
X-356352Y347431D01*
X-349648Y347431D01*
X-343455Y344865D01*
X-338715Y340125D01*
X-336149Y333932D01*
X-336149Y296068D01*
X-338715Y289875D01*
X-343455Y285135D01*
X-349648Y282569D01*
X-356352Y282569D01*
G37*
%LPD*%
%LPC*%
G36*
X443648Y282569D02*
X443648Y282569D01*
X437455Y285135D01*
X432715Y289875D01*
X430149Y296068D01*
X430149Y333932D01*
X432715Y340125D01*
X437455Y344865D01*
X443648Y347431D01*
X450352Y347431D01*
X456545Y344865D01*
X461285Y340125D01*
X463851Y333932D01*
X463851Y296068D01*
X461285Y289875D01*
X456545Y285135D01*
X450352Y282569D01*
X443648Y282569D01*
G37*
%LPD*%
%LPC*%
G36*
X349648Y282569D02*
X349648Y282569D01*
X343455Y285135D01*
X338715Y289875D01*
X336149Y296068D01*
X336149Y333932D01*
X338715Y340125D01*
X343455Y344865D01*
X349648Y347431D01*
X356352Y347431D01*
X362545Y344865D01*
X367285Y340125D01*
X369851Y333932D01*
X369851Y296068D01*
X367285Y289875D01*
X362545Y285135D01*
X356352Y282569D01*
X349648Y282569D01*
G37*
%LPD*%
%LPC*%
G36*
X-450352Y282569D02*
X-450352Y282569D01*
X-456545Y285135D01*
X-461285Y289875D01*
X-463851Y296068D01*
X-463851Y333932D01*
X-461285Y340125D01*
X-456545Y344865D01*
X-450352Y347431D01*
X-443648Y347431D01*
X-437455Y344865D01*
X-432715Y340125D01*
X-430149Y333932D01*
X-430149Y296068D01*
X-432715Y289875D01*
X-437455Y285135D01*
X-443648Y282569D01*
X-450352Y282569D01*
G37*
%LPD*%
%LPC*%
G36*
X230000Y249999D02*
X230000Y249999D01*
X207456Y249999D01*
X207779Y250780D01*
X208634Y252261D01*
X209674Y253617D01*
X210883Y254826D01*
X212239Y255866D01*
X212941Y256271D01*
X213140Y256404D01*
X213344Y256530D01*
X213403Y256579D01*
X213467Y256621D01*
X213648Y256778D01*
X213834Y256929D01*
X213887Y256985D01*
X213945Y257035D01*
X214105Y257213D01*
X214270Y257387D01*
X214316Y257448D01*
X214367Y257505D01*
X214503Y257703D01*
X214645Y257896D01*
X214682Y257962D01*
X214726Y258026D01*
X214836Y258238D01*
X214953Y258448D01*
X214982Y258519D01*
X215017Y258587D01*
X215099Y258812D01*
X215189Y259034D01*
X215208Y259108D01*
X215234Y259180D01*
X215288Y259414D01*
X215348Y259646D01*
X215358Y259722D01*
X215375Y259796D01*
X215399Y260035D01*
X215430Y260273D01*
X215430Y260349D01*
X215437Y260426D01*
X215430Y260665D01*
X215431Y260905D01*
X215422Y260981D01*
X215419Y261057D01*
X215383Y261294D01*
X215353Y261532D01*
X215334Y261606D01*
X215322Y261682D01*
X215256Y261912D01*
X215196Y262144D01*
X215168Y262216D01*
X215147Y262289D01*
X215051Y262509D01*
X214963Y262732D01*
X214926Y262799D01*
X214896Y262869D01*
X214774Y263076D01*
X214658Y263286D01*
X214613Y263348D01*
X214574Y263413D01*
X214427Y263602D01*
X214286Y263796D01*
X214233Y263852D01*
X214186Y263912D01*
X214016Y264082D01*
X213852Y264256D01*
X213793Y264304D01*
X213738Y264359D01*
X213548Y264505D01*
X213363Y264657D01*
X213298Y264698D01*
X213238Y264745D01*
X213031Y264866D01*
X212915Y264938D01*
X209521Y268332D01*
X207729Y272659D01*
X207729Y277341D01*
X209521Y281668D01*
X212832Y284979D01*
X217159Y286771D01*
X242841Y286771D01*
X247168Y284979D01*
X250479Y281668D01*
X252271Y277341D01*
X252271Y272659D01*
X250479Y268332D01*
X247096Y264950D01*
X247078Y264941D01*
X246878Y264809D01*
X246674Y264684D01*
X246615Y264636D01*
X246551Y264593D01*
X246368Y264437D01*
X246182Y264287D01*
X246129Y264232D01*
X246071Y264182D01*
X245910Y264004D01*
X245744Y263831D01*
X245698Y263770D01*
X245647Y263713D01*
X245510Y263516D01*
X245367Y263324D01*
X245329Y263257D01*
X245285Y263195D01*
X245174Y262982D01*
X245056Y262773D01*
X245028Y262702D01*
X244992Y262635D01*
X244909Y262410D01*
X244818Y262188D01*
X244799Y262114D01*
X244772Y262042D01*
X244718Y261809D01*
X244656Y261577D01*
X244646Y261501D01*
X244628Y261426D01*
X244604Y261188D01*
X244572Y260950D01*
X244571Y260874D01*
X244564Y260798D01*
X244569Y260558D01*
X244568Y260318D01*
X244577Y260242D01*
X244579Y260166D01*
X244615Y259929D01*
X244643Y259691D01*
X244662Y259617D01*
X244673Y259541D01*
X244739Y259310D01*
X244797Y259078D01*
X244825Y259006D01*
X244846Y258933D01*
X244940Y258713D01*
X245027Y258489D01*
X245064Y258422D01*
X245094Y258351D01*
X245215Y258145D01*
X245330Y257934D01*
X245375Y257872D01*
X245414Y257806D01*
X245560Y257616D01*
X245700Y257422D01*
X245753Y257366D01*
X245799Y257305D01*
X245968Y257135D01*
X246132Y256960D01*
X246191Y256912D01*
X246245Y256857D01*
X246434Y256710D01*
X246619Y256557D01*
X246691Y256510D01*
X246744Y256469D01*
X246863Y256399D01*
X247059Y256271D01*
X247761Y255866D01*
X249117Y254826D01*
X250326Y253617D01*
X251366Y252261D01*
X252221Y250780D01*
X252544Y249999D01*
X230000Y249999D01*
X230000Y249999D01*
G37*
%LPD*%
%LPC*%
G36*
X217159Y203229D02*
X217159Y203229D01*
X212832Y205021D01*
X209521Y208332D01*
X207729Y212659D01*
X207729Y217341D01*
X209521Y221668D01*
X212904Y225050D01*
X212922Y225059D01*
X213122Y225191D01*
X213326Y225316D01*
X213385Y225364D01*
X213449Y225407D01*
X213632Y225563D01*
X213818Y225713D01*
X213871Y225768D01*
X213929Y225818D01*
X214090Y225996D01*
X214256Y226169D01*
X214302Y226230D01*
X214353Y226287D01*
X214490Y226484D01*
X214633Y226676D01*
X214671Y226743D01*
X214715Y226805D01*
X214826Y227018D01*
X214944Y227227D01*
X214972Y227298D01*
X215008Y227365D01*
X215091Y227590D01*
X215182Y227812D01*
X215201Y227886D01*
X215228Y227958D01*
X215282Y228191D01*
X215344Y228423D01*
X215354Y228499D01*
X215372Y228574D01*
X215396Y228812D01*
X215428Y229050D01*
X215429Y229126D01*
X215436Y229202D01*
X215431Y229442D01*
X215432Y229682D01*
X215423Y229758D01*
X215421Y229834D01*
X215385Y230071D01*
X215357Y230309D01*
X215338Y230383D01*
X215327Y230459D01*
X215261Y230689D01*
X215203Y230922D01*
X215175Y230994D01*
X215154Y231067D01*
X215060Y231287D01*
X214973Y231511D01*
X214936Y231578D01*
X214906Y231649D01*
X214785Y231855D01*
X214670Y232066D01*
X214625Y232128D01*
X214586Y232194D01*
X214440Y232384D01*
X214300Y232578D01*
X214247Y232634D01*
X214201Y232695D01*
X214032Y232864D01*
X213868Y233040D01*
X213809Y233088D01*
X213755Y233143D01*
X213566Y233290D01*
X213381Y233443D01*
X213309Y233490D01*
X213256Y233531D01*
X213137Y233601D01*
X212941Y233729D01*
X212239Y234134D01*
X210883Y235174D01*
X209674Y236383D01*
X208634Y237739D01*
X207779Y239220D01*
X207456Y240001D01*
X230000Y240001D01*
X252544Y240001D01*
X252221Y239220D01*
X251366Y237739D01*
X250326Y236383D01*
X249117Y235174D01*
X247761Y234134D01*
X247059Y233729D01*
X246860Y233596D01*
X246656Y233470D01*
X246597Y233421D01*
X246533Y233379D01*
X246352Y233222D01*
X246166Y233071D01*
X246113Y233015D01*
X246055Y232965D01*
X245895Y232787D01*
X245730Y232613D01*
X245684Y232552D01*
X245633Y232495D01*
X245497Y232297D01*
X245355Y232104D01*
X245317Y232038D01*
X245274Y231975D01*
X245164Y231762D01*
X245047Y231552D01*
X245018Y231481D01*
X244983Y231413D01*
X244901Y231188D01*
X244811Y230966D01*
X244792Y230892D01*
X244766Y230820D01*
X244712Y230586D01*
X244652Y230354D01*
X244642Y230278D01*
X244625Y230204D01*
X244601Y229965D01*
X244570Y229727D01*
X244570Y229651D01*
X244563Y229575D01*
X244569Y229335D01*
X244569Y229095D01*
X244578Y229019D01*
X244581Y228943D01*
X244617Y228706D01*
X244647Y228468D01*
X244666Y228394D01*
X244678Y228318D01*
X244744Y228088D01*
X244804Y227856D01*
X244832Y227784D01*
X244853Y227711D01*
X244948Y227491D01*
X245037Y227268D01*
X245074Y227201D01*
X245104Y227131D01*
X245226Y226924D01*
X245342Y226714D01*
X245387Y226652D01*
X245426Y226587D01*
X245573Y226398D01*
X245714Y226204D01*
X245767Y226148D01*
X245814Y226088D01*
X245984Y225919D01*
X246148Y225744D01*
X246208Y225695D01*
X246262Y225642D01*
X246451Y225495D01*
X246637Y225343D01*
X246702Y225302D01*
X246762Y225256D01*
X246969Y225134D01*
X247085Y225062D01*
X250479Y221668D01*
X252271Y217341D01*
X252271Y212659D01*
X250479Y208332D01*
X247168Y205021D01*
X242841Y203229D01*
X217159Y203229D01*
G37*
%LPD*%
%LPC*%
G36*
X-33253Y-43261D02*
X-33253Y-43261D01*
X-33720Y-43067D01*
X-34077Y-42710D01*
X-34271Y-42243D01*
X-34271Y-19737D01*
X-34077Y-19270D01*
X-33720Y-18913D01*
X-33253Y-18719D01*
X3253Y-18719D01*
X3720Y-18913D01*
X4077Y-19270D01*
X4271Y-19737D01*
X4271Y-42243D01*
X4077Y-42710D01*
X3720Y-43067D01*
X3253Y-43261D01*
X-33253Y-43261D01*
G37*
%LPD*%
%LPC*%
G36*
X185499Y349959D02*
X185499Y349959D01*
X185499Y360000D01*
X185499Y370041D01*
X187250Y370041D01*
X187741Y369943D01*
X188204Y369752D01*
X188627Y369469D01*
X188879Y369322D01*
X189133Y369172D01*
X189154Y369163D01*
X189173Y369152D01*
X189444Y369038D01*
X189713Y368921D01*
X189735Y368915D01*
X189756Y368906D01*
X190039Y368827D01*
X190321Y368745D01*
X190343Y368742D01*
X190364Y368736D01*
X190655Y368693D01*
X190945Y368647D01*
X190967Y368647D01*
X190990Y368643D01*
X191284Y368638D01*
X191577Y368629D01*
X191599Y368631D01*
X191622Y368631D01*
X191913Y368662D01*
X192206Y368691D01*
X192228Y368696D01*
X192250Y368698D01*
X192535Y368766D01*
X192555Y368771D01*
X206253Y368771D01*
X206720Y368577D01*
X207195Y368102D01*
X207334Y367980D01*
X207466Y367850D01*
X207571Y367771D01*
X207670Y367684D01*
X207823Y367580D01*
X207970Y367469D01*
X208084Y367403D01*
X208193Y367329D01*
X208358Y367246D01*
X208518Y367154D01*
X208639Y367103D01*
X208757Y367044D01*
X208931Y366982D01*
X209102Y366910D01*
X209229Y366875D01*
X209352Y366831D01*
X209533Y366792D01*
X209711Y366743D01*
X209841Y366724D01*
X209969Y366696D01*
X210153Y366679D01*
X210337Y366653D01*
X210468Y366651D01*
X210599Y366639D01*
X210784Y366646D01*
X210969Y366643D01*
X211099Y366658D01*
X211231Y366663D01*
X211413Y366693D01*
X211597Y366713D01*
X211725Y366744D01*
X211854Y366766D01*
X212032Y366819D01*
X212211Y366862D01*
X212334Y366909D01*
X212460Y366946D01*
X212629Y367021D01*
X212802Y367087D01*
X212918Y367149D01*
X213038Y367202D01*
X213197Y367298D01*
X213360Y367385D01*
X213466Y367461D01*
X213579Y367529D01*
X213724Y367644D01*
X213875Y367751D01*
X213989Y367853D01*
X214016Y367875D01*
X220562Y367875D01*
X226465Y361972D01*
X226604Y361849D01*
X226736Y361720D01*
X226841Y361641D01*
X226939Y361554D01*
X227092Y361450D01*
X227240Y361338D01*
X227354Y361273D01*
X227463Y361199D01*
X227627Y361116D01*
X227788Y361023D01*
X227909Y360973D01*
X228026Y360913D01*
X228201Y360851D01*
X228371Y360780D01*
X228498Y360745D01*
X228622Y360701D01*
X228802Y360661D01*
X228981Y360612D01*
X229111Y360594D01*
X229239Y360566D01*
X229423Y360549D01*
X229606Y360523D01*
X229738Y360521D01*
X229869Y360509D01*
X230054Y360516D01*
X230238Y360513D01*
X230369Y360528D01*
X230500Y360532D01*
X230683Y360562D01*
X230867Y360583D01*
X230994Y360614D01*
X231124Y360635D01*
X231301Y360688D01*
X231481Y360732D01*
X231604Y360778D01*
X231730Y360816D01*
X231899Y360891D01*
X232072Y360957D01*
X232188Y361019D01*
X232308Y361072D01*
X232466Y361167D01*
X232629Y361255D01*
X232736Y361331D01*
X232849Y361398D01*
X232994Y361513D01*
X233145Y361620D01*
X233259Y361723D01*
X233344Y361791D01*
X233421Y361869D01*
X233535Y361972D01*
X239438Y367875D01*
X245962Y367875D01*
X250575Y363262D01*
X250575Y356738D01*
X245962Y352125D01*
X239438Y352125D01*
X233535Y358028D01*
X233396Y358151D01*
X233264Y358280D01*
X233159Y358360D01*
X233061Y358446D01*
X232908Y358550D01*
X232760Y358662D01*
X232646Y358727D01*
X232537Y358801D01*
X232372Y358884D01*
X232212Y358977D01*
X232091Y359027D01*
X231974Y359087D01*
X231799Y359149D01*
X231629Y359220D01*
X231502Y359255D01*
X231378Y359299D01*
X231198Y359339D01*
X231019Y359388D01*
X230889Y359406D01*
X230761Y359434D01*
X230577Y359451D01*
X230394Y359477D01*
X230262Y359479D01*
X230131Y359491D01*
X229946Y359484D01*
X229762Y359487D01*
X229631Y359472D01*
X229500Y359468D01*
X229317Y359438D01*
X229133Y359417D01*
X229005Y359386D01*
X228876Y359365D01*
X228699Y359312D01*
X228519Y359268D01*
X228396Y359221D01*
X228270Y359184D01*
X228101Y359109D01*
X227928Y359043D01*
X227812Y358981D01*
X227692Y358928D01*
X227534Y358833D01*
X227371Y358745D01*
X227264Y358670D01*
X227151Y358602D01*
X227006Y358487D01*
X226855Y358380D01*
X226741Y358277D01*
X226655Y358209D01*
X226579Y358131D01*
X226465Y358028D01*
X220562Y352125D01*
X214019Y352125D01*
X213994Y352150D01*
X213890Y352229D01*
X213791Y352316D01*
X213638Y352420D01*
X213490Y352531D01*
X213377Y352597D01*
X213268Y352671D01*
X213103Y352754D01*
X212942Y352846D01*
X212821Y352897D01*
X212704Y352956D01*
X212530Y353018D01*
X212359Y353090D01*
X212232Y353125D01*
X212109Y353169D01*
X211928Y353208D01*
X211750Y353257D01*
X211619Y353276D01*
X211491Y353304D01*
X211307Y353321D01*
X211124Y353347D01*
X210992Y353349D01*
X210862Y353361D01*
X210677Y353354D01*
X210492Y353357D01*
X210361Y353342D01*
X210230Y353337D01*
X210048Y353307D01*
X209864Y353287D01*
X209736Y353256D01*
X209606Y353234D01*
X209429Y353182D01*
X209249Y353138D01*
X209127Y353091D01*
X209001Y353054D01*
X208831Y352979D01*
X208659Y352913D01*
X208543Y352851D01*
X208423Y352798D01*
X208264Y352702D01*
X208101Y352615D01*
X207994Y352539D01*
X207881Y352471D01*
X207736Y352356D01*
X207586Y352249D01*
X207472Y352147D01*
X207386Y352079D01*
X207309Y352001D01*
X207195Y351898D01*
X206720Y351423D01*
X206253Y351229D01*
X192565Y351229D01*
X192431Y351257D01*
X192144Y351319D01*
X192122Y351320D01*
X192100Y351325D01*
X191807Y351347D01*
X191515Y351372D01*
X191492Y351372D01*
X191470Y351373D01*
X191178Y351359D01*
X190883Y351346D01*
X190861Y351343D01*
X190838Y351342D01*
X190551Y351290D01*
X190260Y351241D01*
X190238Y351234D01*
X190216Y351231D01*
X189934Y351142D01*
X189655Y351058D01*
X189634Y351049D01*
X189613Y351042D01*
X189344Y350919D01*
X189078Y350800D01*
X189057Y350787D01*
X189038Y350778D01*
X188945Y350720D01*
X188627Y350531D01*
X188204Y350248D01*
X187741Y350057D01*
X187250Y349959D01*
X185499Y349959D01*
G37*
%LPD*%
%LPC*%
G36*
X479599Y13400D02*
X479599Y13400D01*
X479599Y23702D01*
X479667Y23674D01*
X480964Y22925D01*
X482153Y22013D01*
X483213Y20953D01*
X484071Y19834D01*
X484200Y19686D01*
X484322Y19533D01*
X484408Y19448D01*
X484487Y19358D01*
X484634Y19227D01*
X484774Y19090D01*
X484870Y19018D01*
X484960Y18938D01*
X485121Y18827D01*
X485277Y18709D01*
X485382Y18649D01*
X485481Y18581D01*
X485655Y18492D01*
X485825Y18394D01*
X485937Y18347D01*
X486044Y18293D01*
X486228Y18226D01*
X486409Y18151D01*
X486525Y18119D01*
X486638Y18078D01*
X486829Y18035D01*
X487018Y17983D01*
X487138Y17966D01*
X487255Y17939D01*
X487450Y17921D01*
X487644Y17893D01*
X487765Y17891D01*
X487884Y17880D01*
X488080Y17886D01*
X488276Y17883D01*
X488396Y17897D01*
X488516Y17901D01*
X488709Y17932D01*
X488904Y17953D01*
X489022Y17982D01*
X489140Y18001D01*
X489328Y18056D01*
X489519Y18102D01*
X489631Y18145D01*
X489747Y18179D01*
X489926Y18258D01*
X490109Y18327D01*
X490215Y18384D01*
X490326Y18432D01*
X490494Y18533D01*
X490667Y18625D01*
X490765Y18695D01*
X490868Y18756D01*
X491022Y18877D01*
X491182Y18991D01*
X491286Y19084D01*
X491366Y19147D01*
X491447Y19229D01*
X491573Y19342D01*
X494244Y22014D01*
X497979Y23561D01*
X502021Y23561D01*
X505756Y22014D01*
X509165Y18604D01*
X509304Y18482D01*
X509436Y18353D01*
X509541Y18273D01*
X509639Y18187D01*
X509792Y18083D01*
X509940Y17971D01*
X510054Y17906D01*
X510163Y17832D01*
X510328Y17748D01*
X510488Y17656D01*
X510609Y17606D01*
X510726Y17546D01*
X510901Y17484D01*
X511071Y17413D01*
X511198Y17378D01*
X511322Y17334D01*
X511502Y17294D01*
X511681Y17245D01*
X511811Y17227D01*
X511939Y17198D01*
X512123Y17182D01*
X512306Y17156D01*
X512438Y17154D01*
X512569Y17142D01*
X512754Y17149D01*
X512938Y17146D01*
X513069Y17160D01*
X513200Y17165D01*
X513383Y17195D01*
X513567Y17216D01*
X513695Y17247D01*
X513824Y17268D01*
X514001Y17321D01*
X514181Y17365D01*
X514304Y17411D01*
X514430Y17449D01*
X514599Y17524D01*
X514772Y17590D01*
X514888Y17652D01*
X515008Y17705D01*
X515166Y17800D01*
X515329Y17887D01*
X515436Y17963D01*
X515549Y18031D01*
X515694Y18146D01*
X515845Y18253D01*
X515959Y18356D01*
X516045Y18424D01*
X516121Y18501D01*
X516235Y18604D01*
X519644Y22014D01*
X523379Y23561D01*
X527421Y23561D01*
X531156Y22014D01*
X534014Y19156D01*
X535561Y15421D01*
X535561Y11379D01*
X534014Y7644D01*
X531156Y4786D01*
X527421Y3239D01*
X523379Y3239D01*
X519644Y4786D01*
X516235Y8196D01*
X516096Y8318D01*
X515964Y8447D01*
X515859Y8526D01*
X515761Y8613D01*
X515608Y8717D01*
X515460Y8829D01*
X515346Y8894D01*
X515237Y8968D01*
X515073Y9052D01*
X514912Y9144D01*
X514791Y9194D01*
X514674Y9254D01*
X514499Y9316D01*
X514329Y9387D01*
X514202Y9422D01*
X514078Y9466D01*
X513898Y9506D01*
X513719Y9555D01*
X513589Y9573D01*
X513461Y9602D01*
X513277Y9618D01*
X513094Y9644D01*
X512962Y9646D01*
X512831Y9658D01*
X512646Y9651D01*
X512462Y9654D01*
X512331Y9640D01*
X512200Y9635D01*
X512017Y9605D01*
X511833Y9584D01*
X511706Y9553D01*
X511576Y9532D01*
X511399Y9479D01*
X511219Y9435D01*
X511096Y9389D01*
X510970Y9351D01*
X510801Y9276D01*
X510628Y9210D01*
X510513Y9149D01*
X510392Y9095D01*
X510234Y9000D01*
X510071Y8913D01*
X509964Y8837D01*
X509851Y8769D01*
X509706Y8654D01*
X509555Y8547D01*
X509441Y8444D01*
X509356Y8376D01*
X509279Y8298D01*
X509165Y8196D01*
X505756Y4786D01*
X502021Y3239D01*
X497979Y3239D01*
X494244Y4786D01*
X491573Y7458D01*
X491425Y7588D01*
X491285Y7724D01*
X491189Y7796D01*
X491098Y7876D01*
X490936Y7986D01*
X490779Y8103D01*
X490675Y8163D01*
X490575Y8230D01*
X490400Y8319D01*
X490230Y8416D01*
X490118Y8462D01*
X490011Y8516D01*
X489827Y8582D01*
X489646Y8657D01*
X489529Y8688D01*
X489416Y8728D01*
X489225Y8770D01*
X489035Y8822D01*
X488916Y8838D01*
X488798Y8864D01*
X488603Y8882D01*
X488409Y8908D01*
X488289Y8910D01*
X488169Y8921D01*
X487973Y8913D01*
X487777Y8915D01*
X487658Y8902D01*
X487537Y8897D01*
X487344Y8865D01*
X487149Y8843D01*
X487032Y8814D01*
X486914Y8794D01*
X486726Y8738D01*
X486536Y8691D01*
X486423Y8648D01*
X486308Y8613D01*
X486129Y8534D01*
X485946Y8464D01*
X485840Y8407D01*
X485730Y8358D01*
X485562Y8256D01*
X485390Y8163D01*
X485292Y8093D01*
X485189Y8031D01*
X485035Y7910D01*
X484876Y7795D01*
X484787Y7713D01*
X484693Y7639D01*
X484556Y7499D01*
X484412Y7365D01*
X484322Y7260D01*
X484251Y7187D01*
X484180Y7094D01*
X484071Y6966D01*
X483213Y5847D01*
X482153Y4788D01*
X480964Y3875D01*
X479667Y3126D01*
X479599Y3098D01*
X479599Y13400D01*
G37*
%LPD*%
%LPC*%
G36*
X396379Y79439D02*
X396379Y79439D01*
X392644Y80986D01*
X389786Y83844D01*
X388239Y87579D01*
X388239Y91621D01*
X389786Y95356D01*
X393196Y98765D01*
X393318Y98904D01*
X393447Y99036D01*
X393527Y99141D01*
X393613Y99239D01*
X393717Y99392D01*
X393829Y99540D01*
X393894Y99654D01*
X393968Y99763D01*
X394052Y99928D01*
X394144Y100088D01*
X394194Y100209D01*
X394254Y100326D01*
X394316Y100500D01*
X394387Y100671D01*
X394422Y100798D01*
X394466Y100922D01*
X394506Y101102D01*
X394555Y101281D01*
X394573Y101411D01*
X394602Y101539D01*
X394618Y101723D01*
X394644Y101906D01*
X394646Y102038D01*
X394658Y102169D01*
X394651Y102354D01*
X394654Y102538D01*
X394640Y102669D01*
X394635Y102800D01*
X394605Y102983D01*
X394584Y103167D01*
X394553Y103295D01*
X394532Y103424D01*
X394479Y103601D01*
X394435Y103781D01*
X394389Y103904D01*
X394351Y104030D01*
X394276Y104199D01*
X394210Y104372D01*
X394148Y104488D01*
X394095Y104608D01*
X394000Y104766D01*
X393913Y104929D01*
X393837Y105036D01*
X393769Y105149D01*
X393654Y105294D01*
X393547Y105445D01*
X393444Y105559D01*
X393376Y105645D01*
X393299Y105721D01*
X393196Y105835D01*
X389786Y109244D01*
X388239Y112979D01*
X388239Y117021D01*
X389786Y120756D01*
X392458Y123427D01*
X392588Y123575D01*
X392724Y123715D01*
X392796Y123811D01*
X392876Y123902D01*
X392986Y124064D01*
X393103Y124221D01*
X393163Y124325D01*
X393230Y124425D01*
X393319Y124600D01*
X393416Y124770D01*
X393462Y124882D01*
X393516Y124989D01*
X393582Y125173D01*
X393657Y125354D01*
X393688Y125471D01*
X393728Y125584D01*
X393770Y125775D01*
X393822Y125965D01*
X393838Y126084D01*
X393864Y126202D01*
X393882Y126397D01*
X393908Y126591D01*
X393910Y126711D01*
X393921Y126831D01*
X393913Y127027D01*
X393915Y127223D01*
X393902Y127342D01*
X393897Y127463D01*
X393865Y127656D01*
X393843Y127851D01*
X393814Y127968D01*
X393794Y128086D01*
X393738Y128274D01*
X393691Y128464D01*
X393648Y128577D01*
X393613Y128692D01*
X393534Y128871D01*
X393464Y129054D01*
X393407Y129160D01*
X393358Y129270D01*
X393256Y129438D01*
X393163Y129610D01*
X393093Y129708D01*
X393031Y129811D01*
X392910Y129965D01*
X392795Y130124D01*
X392713Y130213D01*
X392639Y130307D01*
X392499Y130444D01*
X392365Y130588D01*
X392260Y130678D01*
X392187Y130749D01*
X392094Y130820D01*
X391966Y130929D01*
X390847Y131787D01*
X389787Y132847D01*
X388875Y134036D01*
X388126Y135333D01*
X388098Y135401D01*
X398400Y135401D01*
X408702Y135401D01*
X408674Y135333D01*
X407925Y134036D01*
X407013Y132847D01*
X405953Y131787D01*
X404834Y130929D01*
X404686Y130800D01*
X404533Y130678D01*
X404448Y130592D01*
X404358Y130513D01*
X404227Y130366D01*
X404090Y130226D01*
X404018Y130130D01*
X403938Y130040D01*
X403827Y129879D01*
X403709Y129723D01*
X403649Y129618D01*
X403581Y129519D01*
X403492Y129345D01*
X403394Y129175D01*
X403347Y129063D01*
X403293Y128956D01*
X403226Y128772D01*
X403151Y128591D01*
X403119Y128475D01*
X403078Y128362D01*
X403035Y128171D01*
X402983Y127982D01*
X402966Y127862D01*
X402939Y127745D01*
X402921Y127550D01*
X402893Y127356D01*
X402891Y127235D01*
X402880Y127116D01*
X402886Y126920D01*
X402883Y126724D01*
X402897Y126604D01*
X402901Y126484D01*
X402932Y126291D01*
X402953Y126096D01*
X402982Y125978D01*
X403001Y125860D01*
X403056Y125672D01*
X403102Y125481D01*
X403145Y125369D01*
X403179Y125253D01*
X403258Y125074D01*
X403327Y124891D01*
X403384Y124785D01*
X403432Y124674D01*
X403533Y124506D01*
X403625Y124333D01*
X403695Y124235D01*
X403756Y124132D01*
X403877Y123978D01*
X403991Y123818D01*
X404084Y123714D01*
X404147Y123634D01*
X404229Y123553D01*
X404342Y123427D01*
X407014Y120756D01*
X408561Y117021D01*
X408561Y112979D01*
X407014Y109244D01*
X403604Y105835D01*
X403482Y105696D01*
X403353Y105564D01*
X403274Y105459D01*
X403187Y105361D01*
X403083Y105208D01*
X402971Y105060D01*
X402906Y104946D01*
X402832Y104837D01*
X402748Y104673D01*
X402656Y104512D01*
X402606Y104391D01*
X402546Y104274D01*
X402484Y104099D01*
X402413Y103929D01*
X402378Y103802D01*
X402334Y103678D01*
X402294Y103498D01*
X402245Y103319D01*
X402227Y103189D01*
X402198Y103061D01*
X402182Y102877D01*
X402156Y102694D01*
X402154Y102562D01*
X402142Y102431D01*
X402149Y102246D01*
X402146Y102062D01*
X402160Y101931D01*
X402165Y101800D01*
X402195Y101617D01*
X402216Y101433D01*
X402247Y101306D01*
X402268Y101176D01*
X402321Y100999D01*
X402365Y100819D01*
X402411Y100696D01*
X402449Y100570D01*
X402524Y100401D01*
X402590Y100228D01*
X402651Y100113D01*
X402705Y99992D01*
X402800Y99834D01*
X402887Y99671D01*
X402963Y99564D01*
X403031Y99451D01*
X403146Y99306D01*
X403253Y99155D01*
X403356Y99041D01*
X403424Y98956D01*
X403502Y98879D01*
X403604Y98765D01*
X407014Y95356D01*
X408561Y91621D01*
X408561Y87579D01*
X407014Y83844D01*
X404156Y80986D01*
X400421Y79439D01*
X396379Y79439D01*
G37*
%LPD*%
%LPC*%
G36*
X-603621Y79439D02*
X-603621Y79439D01*
X-607356Y80986D01*
X-610214Y83844D01*
X-611761Y87579D01*
X-611761Y91621D01*
X-610214Y95356D01*
X-606804Y98765D01*
X-606682Y98904D01*
X-606553Y99036D01*
X-606473Y99141D01*
X-606387Y99239D01*
X-606283Y99392D01*
X-606171Y99540D01*
X-606106Y99654D01*
X-606032Y99763D01*
X-605948Y99928D01*
X-605856Y100088D01*
X-605806Y100209D01*
X-605746Y100326D01*
X-605684Y100500D01*
X-605613Y100671D01*
X-605578Y100798D01*
X-605534Y100922D01*
X-605494Y101102D01*
X-605445Y101281D01*
X-605427Y101411D01*
X-605398Y101539D01*
X-605382Y101723D01*
X-605356Y101906D01*
X-605354Y102038D01*
X-605342Y102169D01*
X-605349Y102354D01*
X-605346Y102538D01*
X-605360Y102669D01*
X-605365Y102800D01*
X-605395Y102983D01*
X-605416Y103167D01*
X-605447Y103295D01*
X-605468Y103424D01*
X-605521Y103601D01*
X-605565Y103781D01*
X-605611Y103904D01*
X-605649Y104030D01*
X-605724Y104199D01*
X-605790Y104372D01*
X-605852Y104488D01*
X-605905Y104608D01*
X-606000Y104766D01*
X-606087Y104929D01*
X-606163Y105036D01*
X-606231Y105149D01*
X-606346Y105294D01*
X-606453Y105445D01*
X-606556Y105559D01*
X-606624Y105645D01*
X-606701Y105721D01*
X-606804Y105835D01*
X-610214Y109244D01*
X-611761Y112979D01*
X-611761Y117021D01*
X-610214Y120756D01*
X-607542Y123427D01*
X-607412Y123575D01*
X-607276Y123715D01*
X-607204Y123811D01*
X-607124Y123902D01*
X-607014Y124064D01*
X-606897Y124221D01*
X-606837Y124325D01*
X-606770Y124425D01*
X-606681Y124600D01*
X-606584Y124770D01*
X-606538Y124882D01*
X-606484Y124989D01*
X-606418Y125173D01*
X-606343Y125354D01*
X-606312Y125471D01*
X-606272Y125584D01*
X-606230Y125775D01*
X-606178Y125965D01*
X-606162Y126084D01*
X-606136Y126202D01*
X-606118Y126397D01*
X-606092Y126591D01*
X-606090Y126711D01*
X-606079Y126831D01*
X-606087Y127027D01*
X-606085Y127223D01*
X-606098Y127342D01*
X-606103Y127463D01*
X-606135Y127656D01*
X-606157Y127851D01*
X-606186Y127968D01*
X-606206Y128086D01*
X-606262Y128274D01*
X-606309Y128464D01*
X-606352Y128577D01*
X-606387Y128692D01*
X-606466Y128871D01*
X-606536Y129054D01*
X-606593Y129160D01*
X-606642Y129270D01*
X-606744Y129438D01*
X-606837Y129610D01*
X-606907Y129708D01*
X-606969Y129811D01*
X-607090Y129965D01*
X-607205Y130124D01*
X-607287Y130213D01*
X-607361Y130307D01*
X-607501Y130444D01*
X-607635Y130588D01*
X-607740Y130678D01*
X-607813Y130749D01*
X-607906Y130820D01*
X-608034Y130929D01*
X-609153Y131787D01*
X-610213Y132847D01*
X-611125Y134036D01*
X-611874Y135333D01*
X-611902Y135401D01*
X-601600Y135401D01*
X-591298Y135401D01*
X-591326Y135333D01*
X-592075Y134036D01*
X-592987Y132847D01*
X-594047Y131787D01*
X-595166Y130929D01*
X-595314Y130800D01*
X-595467Y130678D01*
X-595552Y130592D01*
X-595642Y130513D01*
X-595773Y130366D01*
X-595910Y130226D01*
X-595982Y130130D01*
X-596062Y130040D01*
X-596173Y129879D01*
X-596291Y129723D01*
X-596351Y129618D01*
X-596419Y129519D01*
X-596508Y129345D01*
X-596606Y129175D01*
X-596653Y129063D01*
X-596707Y128956D01*
X-596774Y128772D01*
X-596849Y128591D01*
X-596881Y128475D01*
X-596922Y128362D01*
X-596965Y128171D01*
X-597017Y127982D01*
X-597034Y127862D01*
X-597061Y127745D01*
X-597079Y127550D01*
X-597107Y127356D01*
X-597109Y127235D01*
X-597120Y127116D01*
X-597114Y126920D01*
X-597117Y126724D01*
X-597103Y126604D01*
X-597099Y126484D01*
X-597068Y126291D01*
X-597047Y126096D01*
X-597018Y125978D01*
X-596999Y125860D01*
X-596944Y125672D01*
X-596898Y125481D01*
X-596855Y125369D01*
X-596821Y125253D01*
X-596742Y125074D01*
X-596673Y124891D01*
X-596616Y124785D01*
X-596568Y124674D01*
X-596467Y124506D01*
X-596375Y124333D01*
X-596305Y124235D01*
X-596244Y124132D01*
X-596123Y123978D01*
X-596009Y123818D01*
X-595916Y123714D01*
X-595853Y123634D01*
X-595771Y123553D01*
X-595658Y123427D01*
X-592986Y120756D01*
X-591439Y117021D01*
X-591439Y112979D01*
X-592986Y109244D01*
X-596396Y105835D01*
X-596518Y105696D01*
X-596647Y105564D01*
X-596726Y105459D01*
X-596813Y105361D01*
X-596917Y105208D01*
X-597029Y105060D01*
X-597094Y104946D01*
X-597168Y104837D01*
X-597252Y104673D01*
X-597344Y104512D01*
X-597394Y104391D01*
X-597454Y104274D01*
X-597516Y104099D01*
X-597587Y103929D01*
X-597622Y103802D01*
X-597666Y103678D01*
X-597706Y103498D01*
X-597755Y103319D01*
X-597773Y103189D01*
X-597802Y103061D01*
X-597818Y102877D01*
X-597844Y102694D01*
X-597846Y102562D01*
X-597858Y102431D01*
X-597851Y102246D01*
X-597854Y102062D01*
X-597840Y101931D01*
X-597835Y101800D01*
X-597805Y101617D01*
X-597784Y101433D01*
X-597753Y101306D01*
X-597732Y101176D01*
X-597679Y100999D01*
X-597635Y100819D01*
X-597589Y100696D01*
X-597551Y100570D01*
X-597476Y100401D01*
X-597410Y100228D01*
X-597349Y100113D01*
X-597295Y99992D01*
X-597200Y99834D01*
X-597113Y99671D01*
X-597037Y99564D01*
X-596969Y99451D01*
X-596854Y99306D01*
X-596747Y99155D01*
X-596644Y99041D01*
X-596576Y98956D01*
X-596498Y98879D01*
X-596396Y98765D01*
X-592986Y95356D01*
X-591439Y91621D01*
X-591439Y87579D01*
X-592986Y83844D01*
X-595844Y80986D01*
X-599579Y79439D01*
X-603621Y79439D01*
G37*
%LPD*%
%LPC*%
G36*
X-520401Y13400D02*
X-520401Y13400D01*
X-520401Y23702D01*
X-520333Y23674D01*
X-519036Y22925D01*
X-517847Y22013D01*
X-516787Y20953D01*
X-515929Y19834D01*
X-515800Y19686D01*
X-515678Y19533D01*
X-515592Y19448D01*
X-515513Y19358D01*
X-515366Y19227D01*
X-515226Y19090D01*
X-515130Y19018D01*
X-515040Y18938D01*
X-514879Y18827D01*
X-514723Y18709D01*
X-514618Y18649D01*
X-514519Y18581D01*
X-514345Y18492D01*
X-514175Y18394D01*
X-514063Y18347D01*
X-513956Y18293D01*
X-513772Y18226D01*
X-513591Y18151D01*
X-513475Y18119D01*
X-513362Y18078D01*
X-513171Y18035D01*
X-512982Y17983D01*
X-512862Y17966D01*
X-512745Y17939D01*
X-512550Y17921D01*
X-512356Y17893D01*
X-512235Y17891D01*
X-512116Y17880D01*
X-511920Y17886D01*
X-511724Y17883D01*
X-511604Y17897D01*
X-511484Y17901D01*
X-511291Y17932D01*
X-511096Y17953D01*
X-510978Y17982D01*
X-510860Y18001D01*
X-510672Y18056D01*
X-510481Y18102D01*
X-510369Y18145D01*
X-510253Y18179D01*
X-510074Y18258D01*
X-509891Y18327D01*
X-509785Y18384D01*
X-509674Y18432D01*
X-509506Y18533D01*
X-509333Y18625D01*
X-509235Y18695D01*
X-509132Y18756D01*
X-508978Y18877D01*
X-508818Y18991D01*
X-508714Y19084D01*
X-508634Y19147D01*
X-508553Y19229D01*
X-508427Y19342D01*
X-505756Y22014D01*
X-502021Y23561D01*
X-497979Y23561D01*
X-494244Y22014D01*
X-490835Y18604D01*
X-490696Y18482D01*
X-490564Y18353D01*
X-490459Y18273D01*
X-490361Y18187D01*
X-490208Y18083D01*
X-490060Y17971D01*
X-489946Y17906D01*
X-489837Y17832D01*
X-489672Y17748D01*
X-489512Y17656D01*
X-489391Y17606D01*
X-489274Y17546D01*
X-489099Y17484D01*
X-488929Y17413D01*
X-488802Y17378D01*
X-488678Y17334D01*
X-488498Y17294D01*
X-488319Y17245D01*
X-488189Y17227D01*
X-488061Y17198D01*
X-487877Y17182D01*
X-487694Y17156D01*
X-487562Y17154D01*
X-487431Y17142D01*
X-487246Y17149D01*
X-487062Y17146D01*
X-486931Y17160D01*
X-486800Y17165D01*
X-486617Y17195D01*
X-486433Y17216D01*
X-486305Y17247D01*
X-486176Y17268D01*
X-485999Y17321D01*
X-485819Y17365D01*
X-485696Y17411D01*
X-485570Y17449D01*
X-485401Y17524D01*
X-485228Y17590D01*
X-485112Y17652D01*
X-484992Y17705D01*
X-484834Y17800D01*
X-484671Y17887D01*
X-484564Y17963D01*
X-484451Y18031D01*
X-484306Y18146D01*
X-484155Y18253D01*
X-484041Y18356D01*
X-483955Y18424D01*
X-483879Y18501D01*
X-483765Y18604D01*
X-480356Y22014D01*
X-476621Y23561D01*
X-472579Y23561D01*
X-468844Y22014D01*
X-465986Y19156D01*
X-464439Y15421D01*
X-464439Y11379D01*
X-465986Y7644D01*
X-468844Y4786D01*
X-472579Y3239D01*
X-476621Y3239D01*
X-480356Y4786D01*
X-483765Y8196D01*
X-483904Y8318D01*
X-484036Y8447D01*
X-484141Y8526D01*
X-484239Y8613D01*
X-484392Y8717D01*
X-484540Y8829D01*
X-484654Y8894D01*
X-484763Y8968D01*
X-484927Y9052D01*
X-485088Y9144D01*
X-485209Y9194D01*
X-485326Y9254D01*
X-485501Y9316D01*
X-485671Y9387D01*
X-485798Y9422D01*
X-485922Y9466D01*
X-486102Y9506D01*
X-486281Y9555D01*
X-486411Y9573D01*
X-486539Y9602D01*
X-486723Y9618D01*
X-486906Y9644D01*
X-487038Y9646D01*
X-487169Y9658D01*
X-487354Y9651D01*
X-487538Y9654D01*
X-487669Y9640D01*
X-487800Y9635D01*
X-487983Y9605D01*
X-488167Y9584D01*
X-488294Y9553D01*
X-488424Y9532D01*
X-488601Y9479D01*
X-488781Y9435D01*
X-488904Y9389D01*
X-489030Y9351D01*
X-489199Y9276D01*
X-489372Y9210D01*
X-489487Y9149D01*
X-489608Y9095D01*
X-489766Y9000D01*
X-489929Y8913D01*
X-490036Y8837D01*
X-490149Y8769D01*
X-490294Y8654D01*
X-490445Y8547D01*
X-490559Y8444D01*
X-490644Y8376D01*
X-490721Y8298D01*
X-490835Y8196D01*
X-494244Y4786D01*
X-497979Y3239D01*
X-502021Y3239D01*
X-505756Y4786D01*
X-508427Y7458D01*
X-508575Y7588D01*
X-508715Y7724D01*
X-508811Y7796D01*
X-508902Y7876D01*
X-509064Y7986D01*
X-509221Y8103D01*
X-509325Y8163D01*
X-509425Y8230D01*
X-509600Y8319D01*
X-509770Y8416D01*
X-509882Y8462D01*
X-509989Y8516D01*
X-510173Y8582D01*
X-510354Y8657D01*
X-510471Y8688D01*
X-510584Y8728D01*
X-510775Y8770D01*
X-510965Y8822D01*
X-511084Y8838D01*
X-511202Y8864D01*
X-511397Y8882D01*
X-511591Y8908D01*
X-511711Y8910D01*
X-511831Y8921D01*
X-512027Y8913D01*
X-512223Y8915D01*
X-512342Y8902D01*
X-512463Y8897D01*
X-512656Y8865D01*
X-512851Y8843D01*
X-512968Y8814D01*
X-513086Y8794D01*
X-513274Y8738D01*
X-513464Y8691D01*
X-513577Y8648D01*
X-513692Y8613D01*
X-513871Y8534D01*
X-514054Y8464D01*
X-514160Y8407D01*
X-514270Y8358D01*
X-514438Y8256D01*
X-514610Y8163D01*
X-514708Y8093D01*
X-514811Y8031D01*
X-514965Y7910D01*
X-515124Y7795D01*
X-515213Y7713D01*
X-515307Y7639D01*
X-515444Y7499D01*
X-515588Y7365D01*
X-515678Y7260D01*
X-515749Y7187D01*
X-515820Y7094D01*
X-515929Y6966D01*
X-516787Y5847D01*
X-517847Y4788D01*
X-519036Y3875D01*
X-520333Y3126D01*
X-520401Y3098D01*
X-520401Y13400D01*
G37*
%LPD*%
%LPC*%
G36*
X393100Y-216497D02*
X393100Y-216497D01*
X389832Y-215143D01*
X387331Y-212642D01*
X385977Y-209374D01*
X385977Y-205838D01*
X387331Y-202570D01*
X389832Y-200069D01*
X393100Y-198715D01*
X411876Y-198715D01*
X415144Y-200069D01*
X417645Y-202570D01*
X418999Y-205838D01*
X418999Y-209374D01*
X417645Y-212642D01*
X415144Y-215143D01*
X411876Y-216497D01*
X393100Y-216497D01*
G37*
%LPD*%
%LPC*%
G36*
X458124Y-216497D02*
X458124Y-216497D01*
X454856Y-215143D01*
X452355Y-212642D01*
X451001Y-209374D01*
X451001Y-205838D01*
X452355Y-202570D01*
X454856Y-200069D01*
X458124Y-198715D01*
X476900Y-198715D01*
X480168Y-200069D01*
X482669Y-202570D01*
X484023Y-205838D01*
X484023Y-209374D01*
X482669Y-212642D01*
X480168Y-215143D01*
X476900Y-216497D01*
X458124Y-216497D01*
G37*
%LPD*%
%LPC*%
G36*
X-476900Y-216497D02*
X-476900Y-216497D01*
X-480168Y-215143D01*
X-482669Y-212642D01*
X-484023Y-209374D01*
X-484023Y-205838D01*
X-482669Y-202570D01*
X-480168Y-200069D01*
X-476900Y-198715D01*
X-458124Y-198715D01*
X-454856Y-200069D01*
X-452355Y-202570D01*
X-451001Y-205838D01*
X-451001Y-209374D01*
X-452355Y-212642D01*
X-454856Y-215143D01*
X-458124Y-216497D01*
X-476900Y-216497D01*
G37*
%LPD*%
%LPC*%
G36*
X-411876Y-216497D02*
X-411876Y-216497D01*
X-415144Y-215143D01*
X-417645Y-212642D01*
X-418999Y-209374D01*
X-418999Y-205838D01*
X-417645Y-202570D01*
X-415144Y-200069D01*
X-411876Y-198715D01*
X-393100Y-198715D01*
X-389832Y-200069D01*
X-387331Y-202570D01*
X-385977Y-205838D01*
X-385977Y-209374D01*
X-387331Y-212642D01*
X-389832Y-215143D01*
X-393100Y-216497D01*
X-411876Y-216497D01*
G37*
%LPD*%
%LPC*%
G36*
X393100Y-171285D02*
X393100Y-171285D01*
X389832Y-169931D01*
X387331Y-167430D01*
X385977Y-164162D01*
X385977Y-160626D01*
X387331Y-157358D01*
X389832Y-154857D01*
X393100Y-153503D01*
X411876Y-153503D01*
X415144Y-154857D01*
X417645Y-157358D01*
X418999Y-160626D01*
X418999Y-164162D01*
X417645Y-167430D01*
X415144Y-169931D01*
X411876Y-171285D01*
X393100Y-171285D01*
G37*
%LPD*%
%LPC*%
G36*
X458124Y-171285D02*
X458124Y-171285D01*
X454856Y-169931D01*
X452355Y-167430D01*
X451001Y-164162D01*
X451001Y-160626D01*
X452355Y-157358D01*
X454856Y-154857D01*
X458124Y-153503D01*
X476900Y-153503D01*
X480168Y-154857D01*
X482669Y-157358D01*
X484023Y-160626D01*
X484023Y-164162D01*
X482669Y-167430D01*
X480168Y-169931D01*
X476900Y-171285D01*
X458124Y-171285D01*
G37*
%LPD*%
%LPC*%
G36*
X-476900Y-171285D02*
X-476900Y-171285D01*
X-480168Y-169931D01*
X-482669Y-167430D01*
X-484023Y-164162D01*
X-484023Y-160626D01*
X-482669Y-157358D01*
X-480168Y-154857D01*
X-476900Y-153503D01*
X-458124Y-153503D01*
X-454856Y-154857D01*
X-452355Y-157358D01*
X-451001Y-160626D01*
X-451001Y-164162D01*
X-452355Y-167430D01*
X-454856Y-169931D01*
X-458124Y-171285D01*
X-476900Y-171285D01*
G37*
%LPD*%
%LPC*%
G36*
X-456876Y-281285D02*
X-456876Y-281285D01*
X-460144Y-279931D01*
X-462645Y-277430D01*
X-463999Y-274162D01*
X-463999Y-270626D01*
X-462645Y-267358D01*
X-460144Y-264857D01*
X-456876Y-263503D01*
X-438100Y-263503D01*
X-434832Y-264857D01*
X-432331Y-267358D01*
X-430977Y-270626D01*
X-430977Y-274162D01*
X-432331Y-277430D01*
X-434832Y-279931D01*
X-438100Y-281285D01*
X-456876Y-281285D01*
G37*
%LPD*%
%LPC*%
G36*
X-521900Y-281285D02*
X-521900Y-281285D01*
X-525168Y-279931D01*
X-527669Y-277430D01*
X-529023Y-274162D01*
X-529023Y-270626D01*
X-527669Y-267358D01*
X-525168Y-264857D01*
X-521900Y-263503D01*
X-503124Y-263503D01*
X-499856Y-264857D01*
X-497355Y-267358D01*
X-496001Y-270626D01*
X-496001Y-274162D01*
X-497355Y-277430D01*
X-499856Y-279931D01*
X-503124Y-281285D01*
X-521900Y-281285D01*
G37*
%LPD*%
%LPC*%
G36*
X503124Y-281285D02*
X503124Y-281285D01*
X499856Y-279931D01*
X497355Y-277430D01*
X496001Y-274162D01*
X496001Y-270626D01*
X497355Y-267358D01*
X499856Y-264857D01*
X503124Y-263503D01*
X521900Y-263503D01*
X525168Y-264857D01*
X527669Y-267358D01*
X529023Y-270626D01*
X529023Y-274162D01*
X527669Y-277430D01*
X525168Y-279931D01*
X521900Y-281285D01*
X503124Y-281285D01*
G37*
%LPD*%
%LPC*%
G36*
X438100Y-281285D02*
X438100Y-281285D01*
X434832Y-279931D01*
X432331Y-277430D01*
X430977Y-274162D01*
X430977Y-270626D01*
X432331Y-267358D01*
X434832Y-264857D01*
X438100Y-263503D01*
X456876Y-263503D01*
X460144Y-264857D01*
X462645Y-267358D01*
X463999Y-270626D01*
X463999Y-274162D01*
X462645Y-277430D01*
X460144Y-279931D01*
X456876Y-281285D01*
X438100Y-281285D01*
G37*
%LPD*%
%LPC*%
G36*
X503124Y-326497D02*
X503124Y-326497D01*
X499856Y-325143D01*
X497355Y-322642D01*
X496001Y-319374D01*
X496001Y-315838D01*
X497355Y-312570D01*
X499856Y-310069D01*
X503124Y-308715D01*
X521900Y-308715D01*
X525168Y-310069D01*
X527669Y-312570D01*
X529023Y-315838D01*
X529023Y-319374D01*
X527669Y-322642D01*
X525168Y-325143D01*
X521900Y-326497D01*
X503124Y-326497D01*
G37*
%LPD*%
%LPC*%
G36*
X438100Y-326497D02*
X438100Y-326497D01*
X434832Y-325143D01*
X432331Y-322642D01*
X430977Y-319374D01*
X430977Y-315838D01*
X432331Y-312570D01*
X434832Y-310069D01*
X438100Y-308715D01*
X456876Y-308715D01*
X460144Y-310069D01*
X462645Y-312570D01*
X463999Y-315838D01*
X463999Y-319374D01*
X462645Y-322642D01*
X460144Y-325143D01*
X456876Y-326497D01*
X438100Y-326497D01*
G37*
%LPD*%
%LPC*%
G36*
X-456876Y-326497D02*
X-456876Y-326497D01*
X-460144Y-325143D01*
X-462645Y-322642D01*
X-463999Y-319374D01*
X-463999Y-315838D01*
X-462645Y-312570D01*
X-460144Y-310069D01*
X-456876Y-308715D01*
X-438100Y-308715D01*
X-434832Y-310069D01*
X-432331Y-312570D01*
X-430977Y-315838D01*
X-430977Y-319374D01*
X-432331Y-322642D01*
X-434832Y-325143D01*
X-438100Y-326497D01*
X-456876Y-326497D01*
G37*
%LPD*%
%LPC*%
G36*
X-521900Y-326497D02*
X-521900Y-326497D01*
X-525168Y-325143D01*
X-527669Y-322642D01*
X-529023Y-319374D01*
X-529023Y-315838D01*
X-527669Y-312570D01*
X-525168Y-310069D01*
X-521900Y-308715D01*
X-503124Y-308715D01*
X-499856Y-310069D01*
X-497355Y-312570D01*
X-496001Y-315838D01*
X-496001Y-319374D01*
X-497355Y-322642D01*
X-499856Y-325143D01*
X-503124Y-326497D01*
X-521900Y-326497D01*
G37*
%LPD*%
%LPC*%
G36*
X-411876Y-171285D02*
X-411876Y-171285D01*
X-415144Y-169931D01*
X-417645Y-167430D01*
X-418999Y-164162D01*
X-418999Y-160626D01*
X-417645Y-157358D01*
X-415144Y-154857D01*
X-411876Y-153503D01*
X-393100Y-153503D01*
X-389832Y-154857D01*
X-387331Y-157358D01*
X-385977Y-160626D01*
X-385977Y-164162D01*
X-387331Y-167430D01*
X-389832Y-169931D01*
X-393100Y-171285D01*
X-411876Y-171285D01*
G37*
%LPD*%
%LPC*%
G36*
X573674Y35624D02*
X573674Y35624D01*
X569006Y37558D01*
X565433Y41131D01*
X563499Y45799D01*
X563499Y50851D01*
X565433Y55519D01*
X569006Y59092D01*
X573674Y61026D01*
X578726Y61026D01*
X583394Y59092D01*
X586967Y55519D01*
X588901Y50851D01*
X588901Y45799D01*
X586967Y41131D01*
X583394Y37558D01*
X578726Y35624D01*
X573674Y35624D01*
G37*
%LPD*%
%LPC*%
G36*
X-578726Y35624D02*
X-578726Y35624D01*
X-583394Y37558D01*
X-586967Y41131D01*
X-588901Y45799D01*
X-588901Y50851D01*
X-586967Y55519D01*
X-583394Y59092D01*
X-578726Y61026D01*
X-573674Y61026D01*
X-569006Y59092D01*
X-565433Y55519D01*
X-563499Y50851D01*
X-563499Y45799D01*
X-565433Y41131D01*
X-569006Y37558D01*
X-573674Y35624D01*
X-578726Y35624D01*
G37*
%LPD*%
%LPC*%
G36*
X421274Y35624D02*
X421274Y35624D01*
X416606Y37558D01*
X413033Y41131D01*
X411099Y45799D01*
X411099Y50851D01*
X413033Y55519D01*
X416606Y59092D01*
X421274Y61026D01*
X426326Y61026D01*
X430994Y59092D01*
X434567Y55519D01*
X436501Y50851D01*
X436501Y45799D01*
X434567Y41131D01*
X430994Y37558D01*
X426326Y35624D01*
X421274Y35624D01*
G37*
%LPD*%
%LPC*%
G36*
X-426326Y35624D02*
X-426326Y35624D01*
X-430994Y37558D01*
X-434567Y41131D01*
X-436501Y45799D01*
X-436501Y50851D01*
X-434567Y55519D01*
X-430994Y59092D01*
X-426326Y61026D01*
X-421274Y61026D01*
X-416606Y59092D01*
X-413033Y55519D01*
X-411099Y50851D01*
X-411099Y45799D01*
X-413033Y41131D01*
X-416606Y37558D01*
X-421274Y35624D01*
X-426326Y35624D01*
G37*
%LPD*%
%LPC*%
G36*
X573674Y168974D02*
X573674Y168974D01*
X569006Y170908D01*
X565433Y174481D01*
X563499Y179149D01*
X563499Y184201D01*
X565433Y188869D01*
X569006Y192442D01*
X573674Y194376D01*
X578726Y194376D01*
X583394Y192442D01*
X586967Y188869D01*
X588901Y184201D01*
X588901Y179149D01*
X586967Y174481D01*
X583394Y170908D01*
X578726Y168974D01*
X573674Y168974D01*
G37*
%LPD*%
%LPC*%
G36*
X-578726Y168974D02*
X-578726Y168974D01*
X-583394Y170908D01*
X-586967Y174481D01*
X-588901Y179149D01*
X-588901Y184201D01*
X-586967Y188869D01*
X-583394Y192442D01*
X-578726Y194376D01*
X-573674Y194376D01*
X-569006Y192442D01*
X-565433Y188869D01*
X-563499Y184201D01*
X-563499Y179149D01*
X-565433Y174481D01*
X-569006Y170908D01*
X-573674Y168974D01*
X-578726Y168974D01*
G37*
%LPD*%
%LPC*%
G36*
X-426326Y168974D02*
X-426326Y168974D01*
X-430994Y170908D01*
X-434567Y174481D01*
X-436501Y179149D01*
X-436501Y184201D01*
X-434567Y188869D01*
X-430994Y192442D01*
X-426326Y194376D01*
X-421274Y194376D01*
X-416606Y192442D01*
X-413033Y188869D01*
X-411099Y184201D01*
X-411099Y179149D01*
X-413033Y174481D01*
X-416606Y170908D01*
X-421274Y168974D01*
X-426326Y168974D01*
G37*
%LPD*%
%LPC*%
G36*
X421274Y168974D02*
X421274Y168974D01*
X416606Y170908D01*
X413033Y174481D01*
X411099Y179149D01*
X411099Y184201D01*
X413033Y188869D01*
X416606Y192442D01*
X421274Y194376D01*
X426326Y194376D01*
X430994Y192442D01*
X434567Y188869D01*
X436501Y184201D01*
X436501Y179149D01*
X434567Y174481D01*
X430994Y170908D01*
X426326Y168974D01*
X421274Y168974D01*
G37*
%LPD*%
%LPC*%
G36*
X466229Y181039D02*
X466229Y181039D01*
X462494Y182586D01*
X459636Y185444D01*
X458089Y189179D01*
X458089Y193221D01*
X459636Y196956D01*
X462494Y199814D01*
X466229Y201361D01*
X470271Y201361D01*
X474006Y199814D01*
X476864Y196956D01*
X478411Y193221D01*
X478411Y189179D01*
X476864Y185444D01*
X474006Y182586D01*
X470271Y181039D01*
X466229Y181039D01*
G37*
%LPD*%
%LPC*%
G36*
X529729Y181039D02*
X529729Y181039D01*
X525994Y182586D01*
X523136Y185444D01*
X521589Y189179D01*
X521589Y193221D01*
X523136Y196956D01*
X525994Y199814D01*
X529729Y201361D01*
X533771Y201361D01*
X537506Y199814D01*
X540364Y196956D01*
X541911Y193221D01*
X541911Y189179D01*
X540364Y185444D01*
X537506Y182586D01*
X533771Y181039D01*
X529729Y181039D01*
G37*
%LPD*%
%LPC*%
G36*
X-470271Y181039D02*
X-470271Y181039D01*
X-474006Y182586D01*
X-476864Y185444D01*
X-478411Y189179D01*
X-478411Y193221D01*
X-476864Y196956D01*
X-474006Y199814D01*
X-470271Y201361D01*
X-466229Y201361D01*
X-462494Y199814D01*
X-459636Y196956D01*
X-458089Y193221D01*
X-458089Y189179D01*
X-459636Y185444D01*
X-462494Y182586D01*
X-466229Y181039D01*
X-470271Y181039D01*
G37*
%LPD*%
%LPC*%
G36*
X-533771Y181039D02*
X-533771Y181039D01*
X-537506Y182586D01*
X-540364Y185444D01*
X-541911Y189179D01*
X-541911Y193221D01*
X-540364Y196956D01*
X-537506Y199814D01*
X-533771Y201361D01*
X-529729Y201361D01*
X-525994Y199814D01*
X-523136Y196956D01*
X-521589Y193221D01*
X-521589Y189179D01*
X-523136Y185444D01*
X-525994Y182586D01*
X-529729Y181039D01*
X-533771Y181039D01*
G37*
%LPD*%
%LPC*%
G36*
X-470271Y231839D02*
X-470271Y231839D01*
X-474006Y233386D01*
X-476864Y236244D01*
X-478411Y239979D01*
X-478411Y244021D01*
X-476864Y247756D01*
X-474006Y250614D01*
X-470271Y252161D01*
X-466229Y252161D01*
X-462494Y250614D01*
X-459636Y247756D01*
X-458089Y244021D01*
X-458089Y239979D01*
X-459636Y236244D01*
X-462494Y233386D01*
X-466229Y231839D01*
X-470271Y231839D01*
G37*
%LPD*%
%LPC*%
G36*
X529729Y231839D02*
X529729Y231839D01*
X525994Y233386D01*
X523136Y236244D01*
X521589Y239979D01*
X521589Y244021D01*
X523136Y247756D01*
X525994Y250614D01*
X529729Y252161D01*
X533771Y252161D01*
X537506Y250614D01*
X540364Y247756D01*
X541911Y244021D01*
X541911Y239979D01*
X540364Y236244D01*
X537506Y233386D01*
X533771Y231839D01*
X529729Y231839D01*
G37*
%LPD*%
%LPC*%
G36*
X-418121Y320249D02*
X-418121Y320249D01*
X-418121Y331768D01*
X-417811Y334123D01*
X-417196Y336417D01*
X-416287Y338612D01*
X-415099Y340669D01*
X-413653Y342553D01*
X-411973Y344233D01*
X-410089Y345679D01*
X-408032Y346867D01*
X-405837Y347776D01*
X-405249Y347933D01*
X-405249Y320249D01*
X-418121Y320249D01*
G37*
%LPD*%
%LPC*%
G36*
X405249Y320249D02*
X405249Y320249D01*
X405249Y347933D01*
X405837Y347776D01*
X408032Y346867D01*
X410089Y345679D01*
X411973Y344233D01*
X413653Y342553D01*
X415099Y340669D01*
X416287Y338612D01*
X417196Y336417D01*
X417811Y334123D01*
X418121Y331768D01*
X418121Y320249D01*
X405249Y320249D01*
G37*
%LPD*%
%LPC*%
G36*
X405249Y309751D02*
X405249Y309751D01*
X418121Y309751D01*
X418121Y298232D01*
X417811Y295877D01*
X417196Y293583D01*
X416287Y291388D01*
X415099Y289331D01*
X413653Y287447D01*
X411973Y285767D01*
X410089Y284321D01*
X408032Y283133D01*
X405837Y282224D01*
X405249Y282067D01*
X405249Y309751D01*
G37*
%LPD*%
%LPC*%
G36*
X-405837Y282224D02*
X-405837Y282224D01*
X-408032Y283133D01*
X-410089Y284321D01*
X-411973Y285767D01*
X-413653Y287447D01*
X-415099Y289331D01*
X-416287Y291388D01*
X-417196Y293583D01*
X-417811Y295877D01*
X-418121Y298232D01*
X-418121Y309751D01*
X-405249Y309751D01*
X-405249Y282067D01*
X-405837Y282224D01*
G37*
%LPD*%
%LPC*%
G36*
X381879Y320249D02*
X381879Y320249D01*
X381879Y331768D01*
X382189Y334123D01*
X382804Y336417D01*
X383713Y338612D01*
X384901Y340669D01*
X386347Y342553D01*
X388027Y344233D01*
X389911Y345679D01*
X391968Y346867D01*
X394163Y347776D01*
X394751Y347933D01*
X394751Y320249D01*
X381879Y320249D01*
G37*
%LPD*%
%LPC*%
G36*
X-394751Y320249D02*
X-394751Y320249D01*
X-394751Y347933D01*
X-394163Y347776D01*
X-391968Y346867D01*
X-389911Y345679D01*
X-388027Y344233D01*
X-386347Y342553D01*
X-384901Y340669D01*
X-383713Y338612D01*
X-382804Y336417D01*
X-382189Y334123D01*
X-381879Y331768D01*
X-381879Y320249D01*
X-394751Y320249D01*
G37*
%LPD*%
%LPC*%
G36*
X-394751Y309751D02*
X-394751Y309751D01*
X-381879Y309751D01*
X-381879Y298232D01*
X-382189Y295877D01*
X-382804Y293583D01*
X-383713Y291388D01*
X-384901Y289331D01*
X-386347Y287447D01*
X-388027Y285767D01*
X-389911Y284321D01*
X-391968Y283133D01*
X-394163Y282224D01*
X-394751Y282067D01*
X-394751Y309751D01*
G37*
%LPD*%
%LPC*%
G36*
X394163Y282224D02*
X394163Y282224D01*
X391968Y283133D01*
X389911Y284321D01*
X388027Y285767D01*
X386347Y287447D01*
X384901Y289331D01*
X383713Y291388D01*
X382804Y293583D01*
X382189Y295877D01*
X381879Y298232D01*
X381879Y309751D01*
X394751Y309751D01*
X394751Y282067D01*
X394163Y282224D01*
G37*
%LPD*%
%LPC*%
G36*
X11345Y-288011D02*
X11345Y-288011D01*
X8842Y-286974D01*
X6926Y-285058D01*
X5889Y-282555D01*
X5889Y-279845D01*
X6926Y-277342D01*
X8842Y-275426D01*
X11345Y-274389D01*
X14055Y-274389D01*
X16558Y-275426D01*
X18474Y-277342D01*
X19511Y-279845D01*
X19511Y-282555D01*
X18474Y-285058D01*
X16558Y-286974D01*
X14055Y-288011D01*
X11345Y-288011D01*
G37*
%LPD*%
%LPC*%
G36*
X-141055Y-288011D02*
X-141055Y-288011D01*
X-143558Y-286974D01*
X-145474Y-285058D01*
X-146511Y-282555D01*
X-146511Y-279845D01*
X-145474Y-277342D01*
X-143558Y-275426D01*
X-141055Y-274389D01*
X-138345Y-274389D01*
X-135842Y-275426D01*
X-133926Y-277342D01*
X-132889Y-279845D01*
X-132889Y-282555D01*
X-133926Y-285058D01*
X-135842Y-286974D01*
X-138345Y-288011D01*
X-141055Y-288011D01*
G37*
%LPD*%
%LPC*%
G36*
X-115655Y-288011D02*
X-115655Y-288011D01*
X-118158Y-286974D01*
X-120074Y-285058D01*
X-121111Y-282555D01*
X-121111Y-279845D01*
X-120074Y-277342D01*
X-118158Y-275426D01*
X-115655Y-274389D01*
X-112945Y-274389D01*
X-110442Y-275426D01*
X-108526Y-277342D01*
X-107489Y-279845D01*
X-107489Y-282555D01*
X-108526Y-285058D01*
X-110442Y-286974D01*
X-112945Y-288011D01*
X-115655Y-288011D01*
G37*
%LPD*%
%LPC*%
G36*
X-39455Y-288011D02*
X-39455Y-288011D01*
X-41958Y-286974D01*
X-43874Y-285058D01*
X-44911Y-282555D01*
X-44911Y-279845D01*
X-43874Y-277342D01*
X-41958Y-275426D01*
X-39455Y-274389D01*
X-36745Y-274389D01*
X-34242Y-275426D01*
X-32326Y-277342D01*
X-31289Y-279845D01*
X-31289Y-282555D01*
X-32326Y-285058D01*
X-34242Y-286974D01*
X-36745Y-288011D01*
X-39455Y-288011D01*
G37*
%LPD*%
%LPC*%
G36*
X138345Y-288011D02*
X138345Y-288011D01*
X135842Y-286974D01*
X133926Y-285058D01*
X132889Y-282555D01*
X132889Y-279845D01*
X133926Y-277342D01*
X135842Y-275426D01*
X138345Y-274389D01*
X141055Y-274389D01*
X143558Y-275426D01*
X145474Y-277342D01*
X146511Y-279845D01*
X146511Y-282555D01*
X145474Y-285058D01*
X143558Y-286974D01*
X141055Y-288011D01*
X138345Y-288011D01*
G37*
%LPD*%
%LPC*%
G36*
X-14055Y-288011D02*
X-14055Y-288011D01*
X-16558Y-286974D01*
X-18474Y-285058D01*
X-19511Y-282555D01*
X-19511Y-279845D01*
X-18474Y-277342D01*
X-16558Y-275426D01*
X-14055Y-274389D01*
X-11345Y-274389D01*
X-8842Y-275426D01*
X-6926Y-277342D01*
X-5889Y-279845D01*
X-5889Y-282555D01*
X-6926Y-285058D01*
X-8842Y-286974D01*
X-11345Y-288011D01*
X-14055Y-288011D01*
G37*
%LPD*%
%LPC*%
G36*
X-64855Y-288011D02*
X-64855Y-288011D01*
X-67358Y-286974D01*
X-69274Y-285058D01*
X-70311Y-282555D01*
X-70311Y-279845D01*
X-69274Y-277342D01*
X-67358Y-275426D01*
X-64855Y-274389D01*
X-62145Y-274389D01*
X-59642Y-275426D01*
X-57726Y-277342D01*
X-56689Y-279845D01*
X-56689Y-282555D01*
X-57726Y-285058D01*
X-59642Y-286974D01*
X-62145Y-288011D01*
X-64855Y-288011D01*
G37*
%LPD*%
%LPC*%
G36*
X87545Y-288011D02*
X87545Y-288011D01*
X85042Y-286974D01*
X83126Y-285058D01*
X82089Y-282555D01*
X82089Y-279845D01*
X83126Y-277342D01*
X85042Y-275426D01*
X87545Y-274389D01*
X90255Y-274389D01*
X92758Y-275426D01*
X94674Y-277342D01*
X95711Y-279845D01*
X95711Y-282555D01*
X94674Y-285058D01*
X92758Y-286974D01*
X90255Y-288011D01*
X87545Y-288011D01*
G37*
%LPD*%
%LPC*%
G36*
X112945Y-288011D02*
X112945Y-288011D01*
X110442Y-286974D01*
X108526Y-285058D01*
X107489Y-282555D01*
X107489Y-279845D01*
X108526Y-277342D01*
X110442Y-275426D01*
X112945Y-274389D01*
X115655Y-274389D01*
X118158Y-275426D01*
X120074Y-277342D01*
X121111Y-279845D01*
X121111Y-282555D01*
X120074Y-285058D01*
X118158Y-286974D01*
X115655Y-288011D01*
X112945Y-288011D01*
G37*
%LPD*%
%LPC*%
G36*
X-141055Y-135611D02*
X-141055Y-135611D01*
X-143558Y-134574D01*
X-145474Y-132658D01*
X-146511Y-130155D01*
X-146511Y-127445D01*
X-145474Y-124942D01*
X-143558Y-123026D01*
X-141055Y-121989D01*
X-138345Y-121989D01*
X-135842Y-123026D01*
X-133926Y-124942D01*
X-132889Y-127445D01*
X-132889Y-130155D01*
X-133926Y-132658D01*
X-135842Y-134574D01*
X-138345Y-135611D01*
X-141055Y-135611D01*
G37*
%LPD*%
%LPC*%
G36*
X-115655Y-135611D02*
X-115655Y-135611D01*
X-118158Y-134574D01*
X-120074Y-132658D01*
X-121111Y-130155D01*
X-121111Y-127445D01*
X-120074Y-124942D01*
X-118158Y-123026D01*
X-115655Y-121989D01*
X-112945Y-121989D01*
X-110442Y-123026D01*
X-108526Y-124942D01*
X-107489Y-127445D01*
X-107489Y-130155D01*
X-108526Y-132658D01*
X-110442Y-134574D01*
X-112945Y-135611D01*
X-115655Y-135611D01*
G37*
%LPD*%
%LPC*%
G36*
X-90255Y-135611D02*
X-90255Y-135611D01*
X-92758Y-134574D01*
X-94674Y-132658D01*
X-95711Y-130155D01*
X-95711Y-127445D01*
X-94674Y-124942D01*
X-92758Y-123026D01*
X-90255Y-121989D01*
X-87545Y-121989D01*
X-85042Y-123026D01*
X-83126Y-124942D01*
X-82089Y-127445D01*
X-82089Y-130155D01*
X-83126Y-132658D01*
X-85042Y-134574D01*
X-87545Y-135611D01*
X-90255Y-135611D01*
G37*
%LPD*%
%LPC*%
G36*
X-64855Y-135611D02*
X-64855Y-135611D01*
X-67358Y-134574D01*
X-69274Y-132658D01*
X-70311Y-130155D01*
X-70311Y-127445D01*
X-69274Y-124942D01*
X-67358Y-123026D01*
X-64855Y-121989D01*
X-62145Y-121989D01*
X-59642Y-123026D01*
X-57726Y-124942D01*
X-56689Y-127445D01*
X-56689Y-130155D01*
X-57726Y-132658D01*
X-59642Y-134574D01*
X-62145Y-135611D01*
X-64855Y-135611D01*
G37*
%LPD*%
%LPC*%
G36*
X-39455Y-135611D02*
X-39455Y-135611D01*
X-41958Y-134574D01*
X-43874Y-132658D01*
X-44911Y-130155D01*
X-44911Y-127445D01*
X-43874Y-124942D01*
X-41958Y-123026D01*
X-39455Y-121989D01*
X-36745Y-121989D01*
X-34242Y-123026D01*
X-32326Y-124942D01*
X-31289Y-127445D01*
X-31289Y-130155D01*
X-32326Y-132658D01*
X-34242Y-134574D01*
X-36745Y-135611D01*
X-39455Y-135611D01*
G37*
%LPD*%
%LPC*%
G36*
X62145Y-135611D02*
X62145Y-135611D01*
X59642Y-134574D01*
X57726Y-132658D01*
X56689Y-130155D01*
X56689Y-127445D01*
X57726Y-124942D01*
X59642Y-123026D01*
X62145Y-121989D01*
X64855Y-121989D01*
X67358Y-123026D01*
X69274Y-124942D01*
X70311Y-127445D01*
X70311Y-130155D01*
X69274Y-132658D01*
X67358Y-134574D01*
X64855Y-135611D01*
X62145Y-135611D01*
G37*
%LPD*%
%LPC*%
G36*
X36745Y-288011D02*
X36745Y-288011D01*
X34242Y-286974D01*
X32326Y-285058D01*
X31289Y-282555D01*
X31289Y-279845D01*
X32326Y-277342D01*
X34242Y-275426D01*
X36745Y-274389D01*
X39455Y-274389D01*
X41958Y-275426D01*
X43874Y-277342D01*
X44911Y-279845D01*
X44911Y-282555D01*
X43874Y-285058D01*
X41958Y-286974D01*
X39455Y-288011D01*
X36745Y-288011D01*
G37*
%LPD*%
%LPC*%
G36*
X-90255Y-288011D02*
X-90255Y-288011D01*
X-92758Y-286974D01*
X-94674Y-285058D01*
X-95711Y-282555D01*
X-95711Y-279845D01*
X-94674Y-277342D01*
X-92758Y-275426D01*
X-90255Y-274389D01*
X-87545Y-274389D01*
X-85042Y-275426D01*
X-83126Y-277342D01*
X-82089Y-279845D01*
X-82089Y-282555D01*
X-83126Y-285058D01*
X-85042Y-286974D01*
X-87545Y-288011D01*
X-90255Y-288011D01*
G37*
%LPD*%
%LPC*%
G36*
X-161476Y133099D02*
X-161476Y133099D01*
X-161310Y133425D01*
X-160370Y134719D01*
X-159239Y135850D01*
X-157945Y136790D01*
X-156520Y137516D01*
X-154999Y138011D01*
X-153420Y138261D01*
X-149999Y138261D01*
X-149999Y133099D01*
X-161476Y133099D01*
G37*
%LPD*%
%LPC*%
G36*
X19959Y54499D02*
X19959Y54499D01*
X19959Y56250D01*
X20057Y56741D01*
X20248Y57204D01*
X20526Y57620D01*
X20880Y57974D01*
X21296Y58252D01*
X21759Y58443D01*
X22250Y58541D01*
X25001Y58541D01*
X25001Y54499D01*
X19959Y54499D01*
G37*
%LPD*%
%LPC*%
G36*
X171459Y364999D02*
X171459Y364999D01*
X171459Y367750D01*
X171557Y368241D01*
X171748Y368704D01*
X172026Y369120D01*
X172380Y369474D01*
X172796Y369752D01*
X173259Y369943D01*
X173750Y370041D01*
X175501Y370041D01*
X175501Y364999D01*
X171459Y364999D01*
G37*
%LPD*%
%LPC*%
G36*
X6459Y94999D02*
X6459Y94999D01*
X6459Y97750D01*
X6557Y98241D01*
X6748Y98704D01*
X7026Y99120D01*
X7380Y99474D01*
X7796Y99752D01*
X8259Y99943D01*
X8750Y100041D01*
X10501Y100041D01*
X10501Y94999D01*
X6459Y94999D01*
G37*
%LPD*%
%LPC*%
G36*
X8750Y79959D02*
X8750Y79959D01*
X8259Y80057D01*
X7796Y80248D01*
X7380Y80526D01*
X7026Y80880D01*
X6748Y81296D01*
X6557Y81759D01*
X6459Y82250D01*
X6459Y85001D01*
X10501Y85001D01*
X10501Y79959D01*
X8750Y79959D01*
G37*
%LPD*%
%LPC*%
G36*
X173750Y349959D02*
X173750Y349959D01*
X173259Y350057D01*
X172796Y350248D01*
X172380Y350526D01*
X172026Y350880D01*
X171748Y351296D01*
X171557Y351759D01*
X171459Y352250D01*
X171459Y355001D01*
X175501Y355001D01*
X175501Y349959D01*
X173750Y349959D01*
G37*
%LPD*%
%LPC*%
G36*
X473249Y246999D02*
X473249Y246999D01*
X473249Y252302D01*
X473317Y252274D01*
X474614Y251525D01*
X475803Y250613D01*
X476863Y249553D01*
X477775Y248364D01*
X478524Y247067D01*
X478552Y246999D01*
X473249Y246999D01*
G37*
%LPD*%
%LPC*%
G36*
X403399Y145399D02*
X403399Y145399D01*
X403399Y150702D01*
X403467Y150674D01*
X404764Y149925D01*
X405953Y149013D01*
X407013Y147953D01*
X407925Y146764D01*
X408674Y145467D01*
X408702Y145399D01*
X403399Y145399D01*
G37*
%LPD*%
%LPC*%
G36*
X-542052Y246999D02*
X-542052Y246999D01*
X-542024Y247067D01*
X-541275Y248364D01*
X-540363Y249553D01*
X-539303Y250613D01*
X-538114Y251525D01*
X-536817Y252274D01*
X-536749Y252302D01*
X-536749Y246999D01*
X-542052Y246999D01*
G37*
%LPD*%
%LPC*%
G36*
X-611902Y145399D02*
X-611902Y145399D01*
X-611874Y145467D01*
X-611125Y146764D01*
X-610213Y147953D01*
X-609153Y149013D01*
X-607964Y149925D01*
X-606667Y150674D01*
X-606599Y150702D01*
X-606599Y145399D01*
X-611902Y145399D01*
G37*
%LPD*%
%LPC*%
G36*
X-535702Y18399D02*
X-535702Y18399D01*
X-535674Y18467D01*
X-534925Y19764D01*
X-534013Y20953D01*
X-532953Y22013D01*
X-531764Y22925D01*
X-530467Y23674D01*
X-530399Y23702D01*
X-530399Y18399D01*
X-535702Y18399D01*
G37*
%LPD*%
%LPC*%
G36*
X-526751Y246999D02*
X-526751Y246999D01*
X-526751Y252302D01*
X-526683Y252274D01*
X-525386Y251525D01*
X-524197Y250613D01*
X-523137Y249553D01*
X-522225Y248364D01*
X-521476Y247067D01*
X-521448Y246999D01*
X-526751Y246999D01*
G37*
%LPD*%
%LPC*%
G36*
X457948Y246999D02*
X457948Y246999D01*
X457976Y247067D01*
X458725Y248364D01*
X459637Y249553D01*
X460697Y250613D01*
X461886Y251525D01*
X463183Y252274D01*
X463251Y252302D01*
X463251Y246999D01*
X457948Y246999D01*
G37*
%LPD*%
%LPC*%
G36*
X-536817Y231726D02*
X-536817Y231726D01*
X-538114Y232475D01*
X-539303Y233387D01*
X-540363Y234447D01*
X-541275Y235636D01*
X-542024Y236933D01*
X-542052Y237001D01*
X-536749Y237001D01*
X-536749Y231698D01*
X-536817Y231726D01*
G37*
%LPD*%
%LPC*%
G36*
X464298Y18399D02*
X464298Y18399D01*
X464326Y18467D01*
X465075Y19764D01*
X465987Y20953D01*
X467047Y22013D01*
X468236Y22925D01*
X469533Y23674D01*
X469601Y23702D01*
X469601Y18399D01*
X464298Y18399D01*
G37*
%LPD*%
%LPC*%
G36*
X473249Y237001D02*
X473249Y237001D01*
X478552Y237001D01*
X478524Y236933D01*
X477775Y235636D01*
X476863Y234447D01*
X475803Y233387D01*
X474614Y232475D01*
X473317Y231726D01*
X473249Y231698D01*
X473249Y237001D01*
G37*
%LPD*%
%LPC*%
G36*
X388098Y145399D02*
X388098Y145399D01*
X388126Y145467D01*
X388875Y146764D01*
X389787Y147953D01*
X390847Y149013D01*
X392036Y149925D01*
X393333Y150674D01*
X393401Y150702D01*
X393401Y145399D01*
X388098Y145399D01*
G37*
%LPD*%
%LPC*%
G36*
X-596601Y145399D02*
X-596601Y145399D01*
X-596601Y150702D01*
X-596533Y150674D01*
X-595236Y149925D01*
X-594047Y149013D01*
X-592987Y147953D01*
X-592075Y146764D01*
X-591326Y145467D01*
X-591298Y145399D01*
X-596601Y145399D01*
G37*
%LPD*%
%LPC*%
G36*
X-530467Y3126D02*
X-530467Y3126D01*
X-531764Y3875D01*
X-532953Y4788D01*
X-534013Y5847D01*
X-534925Y7036D01*
X-535674Y8333D01*
X-535702Y8401D01*
X-530399Y8401D01*
X-530399Y3098D01*
X-530467Y3126D01*
G37*
%LPD*%
%LPC*%
G36*
X463183Y231726D02*
X463183Y231726D01*
X461886Y232475D01*
X460697Y233387D01*
X459637Y234447D01*
X458725Y235636D01*
X457976Y236933D01*
X457948Y237001D01*
X463251Y237001D01*
X463251Y231698D01*
X463183Y231726D01*
G37*
%LPD*%
%LPC*%
G36*
X-526751Y237001D02*
X-526751Y237001D01*
X-521448Y237001D01*
X-521476Y236933D01*
X-522225Y235636D01*
X-523137Y234447D01*
X-524197Y233387D01*
X-525386Y232475D01*
X-526683Y231726D01*
X-526751Y231698D01*
X-526751Y237001D01*
G37*
%LPD*%
%LPC*%
G36*
X469533Y3126D02*
X469533Y3126D01*
X468236Y3875D01*
X467047Y4788D01*
X465987Y5847D01*
X465075Y7036D01*
X464326Y8333D01*
X464298Y8401D01*
X469601Y8401D01*
X469601Y3098D01*
X469533Y3126D01*
G37*
%LPD*%
%LPC*%
G36*
X68499Y-286199D02*
X68499Y-286199D01*
X69856Y-286199D01*
X69664Y-286464D01*
X68764Y-287364D01*
X68499Y-287556D01*
X68499Y-286199D01*
G37*
%LPD*%
%LPC*%
G36*
X68499Y-276201D02*
X68499Y-276201D01*
X68499Y-274844D01*
X68764Y-275036D01*
X69664Y-275936D01*
X69856Y-276201D01*
X68499Y-276201D01*
G37*
%LPD*%
%LPC*%
G36*
X58236Y-287364D02*
X58236Y-287364D01*
X57336Y-286464D01*
X57144Y-286199D01*
X58501Y-286199D01*
X58501Y-287556D01*
X58236Y-287364D01*
G37*
%LPD*%
%LPC*%
G36*
X57144Y-276201D02*
X57144Y-276201D01*
X57336Y-275936D01*
X58236Y-275036D01*
X58501Y-274844D01*
X58501Y-276201D01*
X57144Y-276201D01*
G37*
%LPD*%
D10*
X423800Y181675D03*
X576200Y181675D03*
X576200Y48325D03*
X423800Y48325D03*
D11*
X525400Y13400D03*
X500000Y13400D03*
X474600Y13400D03*
X398400Y115000D03*
X398400Y89600D03*
X398400Y140400D03*
X531750Y191200D03*
X468250Y191200D03*
X468250Y242000D03*
X531750Y242000D03*
D10*
X-576200Y181675D03*
X-423800Y181675D03*
X-423800Y48325D03*
X-576200Y48325D03*
D11*
X-474600Y13400D03*
X-500000Y13400D03*
X-525400Y13400D03*
X-601600Y115000D03*
X-601600Y89600D03*
X-601600Y140400D03*
X-468250Y191200D03*
X-531750Y191200D03*
X-531750Y242000D03*
X-468250Y242000D03*
D12*
X139700Y-128800D03*
X114300Y-128800D03*
X88900Y-128800D03*
X63500Y-128800D03*
X38100Y-128800D03*
X12700Y-128800D03*
X-12700Y-128800D03*
X-38100Y-128800D03*
X-63500Y-128800D03*
X-88900Y-128800D03*
X-114300Y-128800D03*
X-139700Y-128800D03*
X139700Y-281200D03*
X114300Y-281200D03*
X88900Y-281200D03*
X63500Y-281200D03*
X38100Y-281200D03*
X12700Y-281200D03*
X-12700Y-281200D03*
X-38100Y-281200D03*
X-63500Y-281200D03*
X-88900Y-281200D03*
X-114300Y-281200D03*
X-139700Y-281200D03*
D13*
X109982Y30000D03*
X109982Y50000D03*
X109982Y70000D03*
X109982Y90000D03*
X109982Y110000D03*
X109982Y130000D03*
X109982Y150000D03*
X109982Y170000D03*
X109982Y190000D03*
X109982Y210000D03*
X-109982Y30000D03*
X-109982Y50000D03*
X-109982Y70000D03*
X-109982Y90000D03*
X-109982Y110000D03*
X-109982Y130000D03*
X-109982Y150000D03*
X-109982Y170000D03*
X-109982Y190000D03*
X-109982Y210000D03*
D14*
X-504892Y-272394D02*
X-520132Y-272394D01*
X-520132Y-317606D02*
X-504892Y-317606D01*
X-455108Y-272394D02*
X-439868Y-272394D01*
X-439868Y-317606D02*
X-455108Y-317606D01*
X-459892Y-162394D02*
X-475132Y-162394D01*
X-475132Y-207606D02*
X-459892Y-207606D01*
X-410108Y-162394D02*
X-394868Y-162394D01*
X-394868Y-207606D02*
X-410108Y-207606D01*
X394868Y-162394D02*
X410108Y-162394D01*
X410108Y-207606D02*
X394868Y-207606D01*
X459892Y-162394D02*
X475132Y-162394D01*
X475132Y-207606D02*
X459892Y-207606D01*
X455108Y-272394D02*
X439868Y-272394D01*
X439868Y-317606D02*
X455108Y-317606D01*
X504892Y-272394D02*
X520132Y-272394D01*
X520132Y-317606D02*
X504892Y-317606D01*
D15*
X-447000Y299420D02*
X-447000Y330580D01*
X-400000Y330580D02*
X-400000Y299420D01*
X-353000Y299420D02*
X-353000Y330580D01*
X447000Y330580D02*
X447000Y299420D01*
X400000Y299420D02*
X400000Y330580D01*
X353000Y330580D02*
X353000Y299420D01*
D16*
X-38114Y30988D03*
X-15000Y30988D03*
X8114Y30988D03*
D17*
X-15000Y-30990D03*
D18*
X55000Y49500D03*
X55000Y30500D03*
X-85000Y49500D03*
X-85000Y30500D03*
D19*
X26988Y125862D02*
X26988Y133638D01*
X26988Y125862D02*
X24012Y125862D01*
X24012Y133638D01*
X26988Y133638D01*
X26988Y128925D02*
X24012Y128925D01*
X24012Y131988D02*
X26988Y131988D01*
X45988Y133638D02*
X45988Y125862D01*
X43012Y125862D01*
X43012Y133638D01*
X45988Y133638D01*
X45988Y128925D02*
X43012Y128925D01*
X43012Y131988D02*
X45988Y131988D01*
X33512Y114138D02*
X33512Y106362D01*
X33512Y114138D02*
X36488Y114138D01*
X36488Y106362D01*
X33512Y106362D01*
X33512Y109425D02*
X36488Y109425D01*
X36488Y112488D02*
X33512Y112488D01*
D20*
X44500Y155000D03*
X25500Y155000D03*
X34500Y90000D03*
X15500Y90000D03*
D18*
X30000Y49500D03*
X30000Y30500D03*
X-60000Y49500D03*
X-60000Y30500D03*
D21*
X219500Y215000D02*
X240500Y215000D01*
X240500Y245000D02*
X219500Y245000D01*
X219500Y275000D02*
X240500Y275000D01*
D22*
X-36000Y393500D03*
X36000Y393500D03*
D23*
X24250Y370540D02*
X24250Y358460D01*
X-24250Y358460D02*
X-24250Y370540D01*
D24*
X217300Y360000D03*
X242700Y360000D03*
D20*
X199500Y360000D03*
X180500Y360000D03*
D14*
X-137380Y51900D02*
X-152620Y51900D01*
X-152620Y77300D02*
X-137380Y77300D01*
X-137380Y102700D02*
X-152620Y102700D01*
X-152620Y128100D02*
X-137380Y128100D01*
D25*
X-60000Y49500D02*
X-30487Y49500D01*
X-60000Y49500D02*
X-85000Y49500D01*
D26*
X-10000Y155000D03*
D25*
X25500Y155000D02*
X25500Y129750D01*
X25500Y155000D02*
X-10000Y155000D01*
X-15000Y150000D01*
X-30487Y49500D02*
X-15000Y34013D01*
X-15000Y30988D01*
X-15000Y150000D01*
X-38114Y30988D02*
X-38602Y30500D01*
X-60000Y30500D01*
X-85000Y30500D01*
X-85000Y15000D01*
D26*
X-85000Y15000D03*
D25*
X30000Y30500D02*
X55000Y30500D01*
X55000Y15000D01*
D26*
X55000Y15000D03*
D25*
X44500Y129750D02*
X44500Y155000D01*
X38270Y161230D01*
X38270Y165097D01*
X33367Y170000D01*
X-109982Y170000D01*
X34500Y90000D02*
X35000Y90135D01*
X35000Y110250D01*
X139252Y-128800D02*
X139700Y-128800D01*
X139252Y-128800D02*
X96172Y-85720D01*
X96172Y63328D02*
X69500Y90000D01*
X34500Y90000D01*
X96172Y63328D02*
X96172Y-85720D01*
D26*
X45000Y70000D03*
D25*
X65000Y70000D01*
X113314Y-128800D02*
X114300Y-128800D01*
X113314Y-128800D02*
X79902Y-95389D01*
X79902Y55098D02*
X65000Y70000D01*
X79902Y55098D02*
X79902Y-95389D01*
D26*
X0Y90000D03*
D25*
X15500Y90000D01*
D26*
X-184038Y-305064D03*
X-136602Y-305257D03*
X-66591Y-305535D03*
X-19145Y-305160D03*
D25*
X8114Y36481D02*
X21133Y49500D01*
X8114Y36481D02*
X8114Y30988D01*
X21133Y49500D02*
X30000Y49500D01*
X199500Y360000D02*
X217300Y360000D01*
X38100Y-118800D02*
X38100Y-128800D01*
X38100Y-118800D02*
X-1900Y-78800D01*
X-51900Y-78800D01*
X-145000Y14300D01*
X-145000Y51900D01*
X-171510Y60790D02*
X-171510Y10410D01*
X-171510Y60790D02*
X-155000Y77300D01*
X-17300Y-98800D02*
X12700Y-128800D01*
X-17300Y-98800D02*
X-62300Y-98800D01*
X-171510Y10410D01*
X-155000Y77300D02*
X-145000Y77300D01*
M02*
