G04 EAGLE Gerber RS-274X export*
G75*
%MOMM*%
%FSLAX34Y34*%
%LPD*%
%IN*%
%IPPOS*%
%AMOC8*
5,1,8,0,0,1.08239X$1,22.5*%
G01*
%ADD10C,0.254000*%


D10*
X-731645Y-278978D02*
X-732539Y-291133D01*
X-732371Y-303319D01*
X-731142Y-315444D01*
X-728860Y-327415D01*
X-725544Y-339143D01*
X-721218Y-350536D01*
X-715916Y-361509D01*
X-709677Y-371979D01*
X-702550Y-381865D01*
X-694588Y-391092D01*
X-685852Y-399590D01*
X-676409Y-407294D01*
X-666331Y-414146D01*
X-655693Y-420093D01*
X-644578Y-425091D01*
X-633069Y-429101D01*
X-621255Y-432093D01*
X-609225Y-434043D01*
X-597071Y-434938D01*
X-592902Y-435000D01*
X592902Y-435000D01*
X605078Y-434468D01*
X617161Y-432878D01*
X629059Y-430240D01*
X640682Y-426575D01*
X651942Y-421911D01*
X662752Y-416284D01*
X673030Y-409736D01*
X682699Y-402317D01*
X691684Y-394083D01*
X699918Y-385098D01*
X707337Y-375429D01*
X713885Y-365150D01*
X719513Y-354340D01*
X724177Y-343081D01*
X727841Y-331458D01*
X730479Y-319559D01*
X732070Y-307476D01*
X732601Y-295301D01*
X732070Y-283125D01*
X731645Y-278978D01*
X671674Y230770D01*
X668761Y248734D01*
X664294Y266375D01*
X658306Y283560D01*
X650844Y300158D01*
X641963Y316042D01*
X631731Y331092D01*
X620227Y345193D01*
X607538Y358237D01*
X593759Y370126D01*
X578998Y380769D01*
X563364Y390084D01*
X546979Y398002D01*
X529965Y404461D01*
X512454Y409413D01*
X494577Y412820D01*
X476472Y414656D01*
X464500Y415000D01*
X-464500Y415000D01*
X-482681Y414206D01*
X-500724Y411831D01*
X-518490Y407892D01*
X-535846Y402420D01*
X-552659Y395456D01*
X-568801Y387053D01*
X-584150Y377275D01*
X-598587Y366196D01*
X-612005Y353902D01*
X-624299Y340485D01*
X-635377Y326047D01*
X-645155Y310699D01*
X-653558Y294557D01*
X-660523Y277744D01*
X-665995Y260388D01*
X-669934Y242621D01*
X-671674Y230771D01*
X-731645Y-278978D01*
X-634000Y-335524D02*
X-634069Y-336569D01*
X-634205Y-337608D01*
X-634410Y-338635D01*
X-634681Y-339647D01*
X-635017Y-340639D01*
X-635418Y-341607D01*
X-635882Y-342546D01*
X-636406Y-343454D01*
X-636988Y-344325D01*
X-637625Y-345156D01*
X-638316Y-345943D01*
X-639057Y-346684D01*
X-639844Y-347375D01*
X-640675Y-348013D01*
X-641546Y-348595D01*
X-642454Y-349118D01*
X-643393Y-349582D01*
X-644361Y-349983D01*
X-645353Y-350319D01*
X-646365Y-350590D01*
X-647392Y-350795D01*
X-648431Y-350932D01*
X-649476Y-351000D01*
X-650524Y-351000D01*
X-651569Y-350932D01*
X-652608Y-350795D01*
X-653635Y-350590D01*
X-654647Y-350319D01*
X-655639Y-349983D01*
X-656607Y-349582D01*
X-657546Y-349118D01*
X-658454Y-348595D01*
X-659325Y-348013D01*
X-660156Y-347375D01*
X-660943Y-346684D01*
X-661684Y-345943D01*
X-662375Y-345156D01*
X-663013Y-344325D01*
X-663595Y-343454D01*
X-664118Y-342546D01*
X-664582Y-341607D01*
X-664983Y-340639D01*
X-665319Y-339647D01*
X-665590Y-338635D01*
X-665795Y-337608D01*
X-665932Y-336569D01*
X-666000Y-335524D01*
X-666000Y-334476D01*
X-665932Y-333431D01*
X-665795Y-332392D01*
X-665590Y-331365D01*
X-665319Y-330353D01*
X-664983Y-329361D01*
X-664582Y-328393D01*
X-664118Y-327454D01*
X-663595Y-326546D01*
X-663013Y-325675D01*
X-662375Y-324844D01*
X-661684Y-324057D01*
X-660943Y-323316D01*
X-660156Y-322625D01*
X-659325Y-321988D01*
X-658454Y-321406D01*
X-657546Y-320882D01*
X-656607Y-320418D01*
X-655639Y-320017D01*
X-654647Y-319681D01*
X-653635Y-319410D01*
X-652608Y-319205D01*
X-651569Y-319069D01*
X-650524Y-319000D01*
X-649476Y-319000D01*
X-648431Y-319069D01*
X-647392Y-319205D01*
X-646365Y-319410D01*
X-645353Y-319681D01*
X-644361Y-320017D01*
X-643393Y-320418D01*
X-642454Y-320882D01*
X-641546Y-321406D01*
X-640675Y-321988D01*
X-639844Y-322625D01*
X-639057Y-323316D01*
X-638316Y-324057D01*
X-637625Y-324844D01*
X-636988Y-325675D01*
X-636406Y-326546D01*
X-635882Y-327454D01*
X-635418Y-328393D01*
X-635017Y-329361D01*
X-634681Y-330353D01*
X-634410Y-331365D01*
X-634205Y-332392D01*
X-634069Y-333431D01*
X-634000Y-334476D01*
X-634000Y-335524D01*
X666000Y-335524D02*
X665932Y-336569D01*
X665795Y-337608D01*
X665590Y-338635D01*
X665319Y-339647D01*
X664983Y-340639D01*
X664582Y-341607D01*
X664118Y-342546D01*
X663595Y-343454D01*
X663013Y-344325D01*
X662375Y-345156D01*
X661684Y-345943D01*
X660943Y-346684D01*
X660156Y-347375D01*
X659325Y-348013D01*
X658454Y-348595D01*
X657546Y-349118D01*
X656607Y-349582D01*
X655639Y-349983D01*
X654647Y-350319D01*
X653635Y-350590D01*
X652608Y-350795D01*
X651569Y-350932D01*
X650524Y-351000D01*
X649476Y-351000D01*
X648431Y-350932D01*
X647392Y-350795D01*
X646365Y-350590D01*
X645353Y-350319D01*
X644361Y-349983D01*
X643393Y-349582D01*
X642454Y-349118D01*
X641546Y-348595D01*
X640675Y-348013D01*
X639844Y-347375D01*
X639057Y-346684D01*
X638316Y-345943D01*
X637625Y-345156D01*
X636988Y-344325D01*
X636406Y-343454D01*
X635882Y-342546D01*
X635418Y-341607D01*
X635017Y-340639D01*
X634681Y-339647D01*
X634410Y-338635D01*
X634205Y-337608D01*
X634069Y-336569D01*
X634000Y-335524D01*
X634000Y-334476D01*
X634069Y-333431D01*
X634205Y-332392D01*
X634410Y-331365D01*
X634681Y-330353D01*
X635017Y-329361D01*
X635418Y-328393D01*
X635882Y-327454D01*
X636406Y-326546D01*
X636988Y-325675D01*
X637625Y-324844D01*
X638316Y-324057D01*
X639057Y-323316D01*
X639844Y-322625D01*
X640675Y-321988D01*
X641546Y-321406D01*
X642454Y-320882D01*
X643393Y-320418D01*
X644361Y-320017D01*
X645353Y-319681D01*
X646365Y-319410D01*
X647392Y-319205D01*
X648431Y-319069D01*
X649476Y-319000D01*
X650524Y-319000D01*
X651569Y-319069D01*
X652608Y-319205D01*
X653635Y-319410D01*
X654647Y-319681D01*
X655639Y-320017D01*
X656607Y-320418D01*
X657546Y-320882D01*
X658454Y-321406D01*
X659325Y-321988D01*
X660156Y-322625D01*
X660943Y-323316D01*
X661684Y-324057D01*
X662375Y-324844D01*
X663013Y-325675D01*
X663595Y-326546D01*
X664118Y-327454D01*
X664582Y-328393D01*
X664983Y-329361D01*
X665319Y-330353D01*
X665590Y-331365D01*
X665795Y-332392D01*
X665932Y-333431D01*
X666000Y-334476D01*
X666000Y-335524D01*
X566000Y314476D02*
X565932Y313431D01*
X565795Y312392D01*
X565590Y311365D01*
X565319Y310353D01*
X564983Y309361D01*
X564582Y308393D01*
X564118Y307454D01*
X563595Y306546D01*
X563013Y305675D01*
X562375Y304844D01*
X561684Y304057D01*
X560943Y303316D01*
X560156Y302625D01*
X559325Y301988D01*
X558454Y301406D01*
X557546Y300882D01*
X556607Y300418D01*
X555639Y300017D01*
X554647Y299681D01*
X553635Y299410D01*
X552608Y299205D01*
X551569Y299069D01*
X550524Y299000D01*
X549476Y299000D01*
X548431Y299069D01*
X547392Y299205D01*
X546365Y299410D01*
X545353Y299681D01*
X544361Y300017D01*
X543393Y300418D01*
X542454Y300882D01*
X541546Y301406D01*
X540675Y301988D01*
X539844Y302625D01*
X539057Y303316D01*
X538316Y304057D01*
X537625Y304844D01*
X536988Y305675D01*
X536406Y306546D01*
X535882Y307454D01*
X535418Y308393D01*
X535017Y309361D01*
X534681Y310353D01*
X534410Y311365D01*
X534205Y312392D01*
X534069Y313431D01*
X534000Y314476D01*
X534000Y315524D01*
X534069Y316569D01*
X534205Y317608D01*
X534410Y318635D01*
X534681Y319647D01*
X535017Y320639D01*
X535418Y321607D01*
X535882Y322546D01*
X536406Y323454D01*
X536988Y324325D01*
X537625Y325156D01*
X538316Y325943D01*
X539057Y326684D01*
X539844Y327375D01*
X540675Y328013D01*
X541546Y328595D01*
X542454Y329118D01*
X543393Y329582D01*
X544361Y329983D01*
X545353Y330319D01*
X546365Y330590D01*
X547392Y330795D01*
X548431Y330932D01*
X549476Y331000D01*
X550524Y331000D01*
X551569Y330932D01*
X552608Y330795D01*
X553635Y330590D01*
X554647Y330319D01*
X555639Y329983D01*
X556607Y329582D01*
X557546Y329118D01*
X558454Y328595D01*
X559325Y328013D01*
X560156Y327375D01*
X560943Y326684D01*
X561684Y325943D01*
X562375Y325156D01*
X563013Y324325D01*
X563595Y323454D01*
X564118Y322546D01*
X564582Y321607D01*
X564983Y320639D01*
X565319Y319647D01*
X565590Y318635D01*
X565795Y317608D01*
X565932Y316569D01*
X566000Y315524D01*
X566000Y314476D01*
X-534000Y314476D02*
X-534069Y313431D01*
X-534205Y312392D01*
X-534410Y311365D01*
X-534681Y310353D01*
X-535017Y309361D01*
X-535418Y308393D01*
X-535882Y307454D01*
X-536406Y306546D01*
X-536988Y305675D01*
X-537625Y304844D01*
X-538316Y304057D01*
X-539057Y303316D01*
X-539844Y302625D01*
X-540675Y301988D01*
X-541546Y301406D01*
X-542454Y300882D01*
X-543393Y300418D01*
X-544361Y300017D01*
X-545353Y299681D01*
X-546365Y299410D01*
X-547392Y299205D01*
X-548431Y299069D01*
X-549476Y299000D01*
X-550524Y299000D01*
X-551569Y299069D01*
X-552608Y299205D01*
X-553635Y299410D01*
X-554647Y299681D01*
X-555639Y300017D01*
X-556607Y300418D01*
X-557546Y300882D01*
X-558454Y301406D01*
X-559325Y301988D01*
X-560156Y302625D01*
X-560943Y303316D01*
X-561684Y304057D01*
X-562375Y304844D01*
X-563013Y305675D01*
X-563595Y306546D01*
X-564118Y307454D01*
X-564582Y308393D01*
X-564983Y309361D01*
X-565319Y310353D01*
X-565590Y311365D01*
X-565795Y312392D01*
X-565932Y313431D01*
X-566000Y314476D01*
X-566000Y315524D01*
X-565932Y316569D01*
X-565795Y317608D01*
X-565590Y318635D01*
X-565319Y319647D01*
X-564983Y320639D01*
X-564582Y321607D01*
X-564118Y322546D01*
X-563595Y323454D01*
X-563013Y324325D01*
X-562375Y325156D01*
X-561684Y325943D01*
X-560943Y326684D01*
X-560156Y327375D01*
X-559325Y328013D01*
X-558454Y328595D01*
X-557546Y329118D01*
X-556607Y329582D01*
X-555639Y329983D01*
X-554647Y330319D01*
X-553635Y330590D01*
X-552608Y330795D01*
X-551569Y330932D01*
X-550524Y331000D01*
X-549476Y331000D01*
X-548431Y330932D01*
X-547392Y330795D01*
X-546365Y330590D01*
X-545353Y330319D01*
X-544361Y329983D01*
X-543393Y329582D01*
X-542454Y329118D01*
X-541546Y328595D01*
X-540675Y328013D01*
X-539844Y327375D01*
X-539057Y326684D01*
X-538316Y325943D01*
X-537625Y325156D01*
X-536988Y324325D01*
X-536406Y323454D01*
X-535882Y322546D01*
X-535418Y321607D01*
X-535017Y320639D01*
X-534681Y319647D01*
X-534410Y318635D01*
X-534205Y317608D01*
X-534069Y316569D01*
X-534000Y315524D01*
X-534000Y314476D01*
M02*
