G04 EAGLE Gerber RS-274X export*
G75*
%MOMM*%
%FSLAX34Y34*%
%LPD*%
%INSilkscreen Bottom*%
%IPPOS*%
%AMOC8*
5,1,8,0,0,1.08239X$1,22.5*%
G01*
%ADD10C,0.152400*%
%ADD11C,0.228600*%
%ADD12C,0.203200*%
%ADD13C,0.120000*%
%ADD14C,0.200000*%
%ADD15C,0.127000*%


D10*
X-142568Y177018D02*
X-142568Y160762D01*
X-140762Y160762D02*
X-144374Y160762D01*
X-144374Y177018D02*
X-140762Y177018D01*
X-155525Y177018D02*
X-155650Y177016D01*
X-155775Y177010D01*
X-155900Y177001D01*
X-156024Y176987D01*
X-156148Y176970D01*
X-156272Y176949D01*
X-156394Y176924D01*
X-156516Y176895D01*
X-156637Y176863D01*
X-156757Y176827D01*
X-156876Y176787D01*
X-156993Y176744D01*
X-157109Y176697D01*
X-157224Y176646D01*
X-157336Y176592D01*
X-157448Y176534D01*
X-157557Y176474D01*
X-157664Y176409D01*
X-157770Y176342D01*
X-157873Y176271D01*
X-157974Y176197D01*
X-158073Y176120D01*
X-158169Y176040D01*
X-158263Y175957D01*
X-158354Y175872D01*
X-158443Y175783D01*
X-158528Y175692D01*
X-158611Y175598D01*
X-158691Y175502D01*
X-158768Y175403D01*
X-158842Y175302D01*
X-158913Y175199D01*
X-158980Y175093D01*
X-159045Y174986D01*
X-159105Y174877D01*
X-159163Y174765D01*
X-159217Y174653D01*
X-159268Y174538D01*
X-159315Y174422D01*
X-159358Y174305D01*
X-159398Y174186D01*
X-159434Y174066D01*
X-159466Y173945D01*
X-159495Y173823D01*
X-159520Y173701D01*
X-159541Y173577D01*
X-159558Y173453D01*
X-159572Y173329D01*
X-159581Y173204D01*
X-159587Y173079D01*
X-159589Y172954D01*
X-155525Y177018D02*
X-155382Y177016D01*
X-155240Y177010D01*
X-155097Y177000D01*
X-154955Y176987D01*
X-154814Y176969D01*
X-154672Y176948D01*
X-154532Y176923D01*
X-154392Y176894D01*
X-154253Y176861D01*
X-154115Y176824D01*
X-153978Y176784D01*
X-153843Y176740D01*
X-153708Y176692D01*
X-153575Y176640D01*
X-153443Y176585D01*
X-153313Y176526D01*
X-153185Y176464D01*
X-153058Y176398D01*
X-152933Y176329D01*
X-152810Y176257D01*
X-152690Y176181D01*
X-152571Y176102D01*
X-152454Y176019D01*
X-152340Y175934D01*
X-152228Y175845D01*
X-152119Y175754D01*
X-152012Y175659D01*
X-151907Y175562D01*
X-151806Y175461D01*
X-151707Y175358D01*
X-151611Y175253D01*
X-151518Y175144D01*
X-151428Y175033D01*
X-151341Y174920D01*
X-151257Y174805D01*
X-151177Y174687D01*
X-151099Y174567D01*
X-151025Y174445D01*
X-150955Y174321D01*
X-150887Y174195D01*
X-150824Y174067D01*
X-150763Y173938D01*
X-150706Y173807D01*
X-150653Y173675D01*
X-150604Y173541D01*
X-150558Y173406D01*
X-158234Y169793D02*
X-158328Y169885D01*
X-158418Y169979D01*
X-158506Y170076D01*
X-158591Y170176D01*
X-158673Y170278D01*
X-158752Y170383D01*
X-158827Y170490D01*
X-158899Y170599D01*
X-158968Y170710D01*
X-159034Y170824D01*
X-159096Y170939D01*
X-159155Y171056D01*
X-159210Y171175D01*
X-159261Y171295D01*
X-159309Y171417D01*
X-159354Y171540D01*
X-159394Y171664D01*
X-159431Y171790D01*
X-159464Y171917D01*
X-159493Y172044D01*
X-159519Y172173D01*
X-159540Y172302D01*
X-159558Y172432D01*
X-159571Y172562D01*
X-159581Y172692D01*
X-159587Y172823D01*
X-159589Y172954D01*
X-158234Y169793D02*
X-150558Y160762D01*
X-159589Y160762D01*
X-169762Y160762D02*
X-173374Y160762D01*
X-169762Y160762D02*
X-169644Y160764D01*
X-169526Y160770D01*
X-169408Y160779D01*
X-169291Y160793D01*
X-169174Y160810D01*
X-169057Y160831D01*
X-168942Y160856D01*
X-168827Y160885D01*
X-168713Y160918D01*
X-168601Y160954D01*
X-168490Y160994D01*
X-168380Y161037D01*
X-168271Y161084D01*
X-168164Y161134D01*
X-168059Y161189D01*
X-167956Y161246D01*
X-167855Y161307D01*
X-167755Y161371D01*
X-167658Y161438D01*
X-167563Y161508D01*
X-167471Y161582D01*
X-167380Y161658D01*
X-167293Y161738D01*
X-167208Y161820D01*
X-167126Y161905D01*
X-167046Y161992D01*
X-166970Y162083D01*
X-166896Y162175D01*
X-166826Y162270D01*
X-166759Y162367D01*
X-166695Y162467D01*
X-166634Y162568D01*
X-166577Y162671D01*
X-166522Y162776D01*
X-166472Y162883D01*
X-166425Y162992D01*
X-166382Y163102D01*
X-166342Y163213D01*
X-166306Y163325D01*
X-166273Y163439D01*
X-166244Y163554D01*
X-166219Y163669D01*
X-166198Y163786D01*
X-166181Y163903D01*
X-166167Y164020D01*
X-166158Y164138D01*
X-166152Y164256D01*
X-166150Y164374D01*
X-166149Y164374D02*
X-166149Y173406D01*
X-166150Y173406D02*
X-166152Y173524D01*
X-166158Y173642D01*
X-166167Y173760D01*
X-166181Y173877D01*
X-166198Y173994D01*
X-166219Y174111D01*
X-166244Y174226D01*
X-166273Y174341D01*
X-166306Y174455D01*
X-166342Y174567D01*
X-166382Y174678D01*
X-166425Y174788D01*
X-166472Y174897D01*
X-166522Y175004D01*
X-166576Y175109D01*
X-166634Y175212D01*
X-166695Y175313D01*
X-166759Y175413D01*
X-166826Y175510D01*
X-166896Y175605D01*
X-166970Y175697D01*
X-167046Y175788D01*
X-167126Y175875D01*
X-167208Y175960D01*
X-167293Y176042D01*
X-167380Y176122D01*
X-167471Y176198D01*
X-167563Y176272D01*
X-167658Y176342D01*
X-167755Y176409D01*
X-167855Y176473D01*
X-167956Y176534D01*
X-168059Y176591D01*
X-168164Y176645D01*
X-168271Y176696D01*
X-168380Y176743D01*
X-168490Y176786D01*
X-168601Y176826D01*
X-168713Y176862D01*
X-168827Y176895D01*
X-168942Y176924D01*
X-169057Y176949D01*
X-169174Y176970D01*
X-169291Y176987D01*
X-169408Y177001D01*
X-169526Y177010D01*
X-169644Y177016D01*
X-169762Y177018D01*
X-173374Y177018D01*
X-188073Y177018D02*
X-188073Y160762D01*
X-188073Y169793D02*
X-197104Y169793D01*
X-197104Y177018D02*
X-197104Y160762D01*
X-204776Y160762D02*
X-212001Y160762D01*
X-204776Y160762D02*
X-204776Y177018D01*
X-212001Y177018D01*
X-210194Y169793D02*
X-204776Y169793D01*
X-216869Y160762D02*
X-222287Y177018D01*
X-227706Y160762D01*
X-226351Y164826D02*
X-218223Y164826D01*
X-233924Y160762D02*
X-233924Y177018D01*
X-238440Y177018D01*
X-238571Y177016D01*
X-238703Y177010D01*
X-238834Y177001D01*
X-238964Y176987D01*
X-239095Y176970D01*
X-239224Y176949D01*
X-239353Y176925D01*
X-239481Y176896D01*
X-239609Y176864D01*
X-239735Y176828D01*
X-239860Y176789D01*
X-239985Y176746D01*
X-240107Y176699D01*
X-240229Y176649D01*
X-240349Y176595D01*
X-240467Y176538D01*
X-240583Y176477D01*
X-240698Y176413D01*
X-240811Y176346D01*
X-240922Y176275D01*
X-241030Y176201D01*
X-241137Y176124D01*
X-241241Y176044D01*
X-241343Y175961D01*
X-241442Y175876D01*
X-241539Y175787D01*
X-241633Y175695D01*
X-241725Y175601D01*
X-241814Y175504D01*
X-241899Y175405D01*
X-241982Y175303D01*
X-242062Y175199D01*
X-242139Y175092D01*
X-242213Y174984D01*
X-242284Y174873D01*
X-242351Y174760D01*
X-242415Y174645D01*
X-242476Y174529D01*
X-242533Y174411D01*
X-242587Y174291D01*
X-242637Y174169D01*
X-242684Y174047D01*
X-242727Y173922D01*
X-242766Y173797D01*
X-242802Y173671D01*
X-242834Y173543D01*
X-242863Y173415D01*
X-242887Y173286D01*
X-242908Y173157D01*
X-242925Y173026D01*
X-242939Y172896D01*
X-242948Y172765D01*
X-242954Y172633D01*
X-242956Y172502D01*
X-242955Y172502D02*
X-242955Y165278D01*
X-242956Y165278D02*
X-242954Y165147D01*
X-242948Y165015D01*
X-242939Y164884D01*
X-242925Y164754D01*
X-242908Y164623D01*
X-242887Y164494D01*
X-242863Y164365D01*
X-242834Y164237D01*
X-242802Y164109D01*
X-242766Y163983D01*
X-242727Y163858D01*
X-242684Y163733D01*
X-242637Y163611D01*
X-242587Y163489D01*
X-242533Y163369D01*
X-242476Y163251D01*
X-242415Y163135D01*
X-242351Y163020D01*
X-242284Y162907D01*
X-242213Y162796D01*
X-242139Y162688D01*
X-242062Y162581D01*
X-241982Y162477D01*
X-241899Y162375D01*
X-241814Y162276D01*
X-241725Y162179D01*
X-241633Y162085D01*
X-241539Y161993D01*
X-241442Y161904D01*
X-241343Y161819D01*
X-241241Y161736D01*
X-241137Y161656D01*
X-241030Y161579D01*
X-240922Y161505D01*
X-240811Y161434D01*
X-240698Y161367D01*
X-240583Y161303D01*
X-240467Y161242D01*
X-240349Y161185D01*
X-240229Y161131D01*
X-240107Y161081D01*
X-239985Y161034D01*
X-239860Y160991D01*
X-239735Y160952D01*
X-239609Y160916D01*
X-239481Y160884D01*
X-239353Y160855D01*
X-239224Y160831D01*
X-239094Y160810D01*
X-238964Y160793D01*
X-238834Y160779D01*
X-238703Y160770D01*
X-238571Y160764D01*
X-238440Y160762D01*
X-233924Y160762D01*
X-250627Y160762D02*
X-257852Y160762D01*
X-250627Y160762D02*
X-250627Y177018D01*
X-257852Y177018D01*
X-256046Y169793D02*
X-250627Y169793D01*
X-264236Y177018D02*
X-264236Y160762D01*
X-264236Y177018D02*
X-268752Y177018D01*
X-268885Y177016D01*
X-269017Y177010D01*
X-269149Y177000D01*
X-269281Y176987D01*
X-269413Y176969D01*
X-269543Y176948D01*
X-269674Y176923D01*
X-269803Y176894D01*
X-269931Y176861D01*
X-270059Y176825D01*
X-270185Y176785D01*
X-270310Y176741D01*
X-270434Y176693D01*
X-270556Y176642D01*
X-270677Y176587D01*
X-270796Y176529D01*
X-270914Y176467D01*
X-271029Y176402D01*
X-271143Y176333D01*
X-271254Y176262D01*
X-271363Y176186D01*
X-271470Y176108D01*
X-271575Y176027D01*
X-271677Y175942D01*
X-271777Y175855D01*
X-271874Y175765D01*
X-271969Y175672D01*
X-272060Y175576D01*
X-272149Y175478D01*
X-272235Y175377D01*
X-272318Y175273D01*
X-272398Y175167D01*
X-272474Y175059D01*
X-272548Y174949D01*
X-272618Y174836D01*
X-272685Y174722D01*
X-272748Y174605D01*
X-272808Y174487D01*
X-272865Y174367D01*
X-272918Y174245D01*
X-272967Y174122D01*
X-273013Y173998D01*
X-273055Y173872D01*
X-273093Y173745D01*
X-273128Y173617D01*
X-273159Y173488D01*
X-273186Y173359D01*
X-273209Y173228D01*
X-273229Y173097D01*
X-273244Y172965D01*
X-273256Y172833D01*
X-273264Y172701D01*
X-273268Y172568D01*
X-273268Y172436D01*
X-273264Y172303D01*
X-273256Y172171D01*
X-273244Y172039D01*
X-273229Y171907D01*
X-273209Y171776D01*
X-273186Y171645D01*
X-273159Y171516D01*
X-273128Y171387D01*
X-273093Y171259D01*
X-273055Y171132D01*
X-273013Y171006D01*
X-272967Y170882D01*
X-272918Y170759D01*
X-272865Y170637D01*
X-272808Y170517D01*
X-272748Y170399D01*
X-272685Y170282D01*
X-272618Y170168D01*
X-272548Y170055D01*
X-272474Y169945D01*
X-272398Y169837D01*
X-272318Y169731D01*
X-272235Y169627D01*
X-272149Y169526D01*
X-272060Y169428D01*
X-271969Y169332D01*
X-271874Y169239D01*
X-271777Y169149D01*
X-271677Y169062D01*
X-271575Y168977D01*
X-271470Y168896D01*
X-271363Y168818D01*
X-271254Y168742D01*
X-271143Y168671D01*
X-271029Y168602D01*
X-270914Y168537D01*
X-270796Y168475D01*
X-270677Y168417D01*
X-270556Y168362D01*
X-270434Y168311D01*
X-270310Y168263D01*
X-270185Y168219D01*
X-270059Y168179D01*
X-269931Y168143D01*
X-269803Y168110D01*
X-269674Y168081D01*
X-269543Y168056D01*
X-269413Y168035D01*
X-269281Y168017D01*
X-269149Y168004D01*
X-269017Y167994D01*
X-268885Y167988D01*
X-268752Y167986D01*
X-268752Y167987D02*
X-264236Y167987D01*
X-269655Y167987D02*
X-273267Y160762D01*
X-200762Y137018D02*
X-206181Y120762D01*
X-211599Y137018D01*
X-220869Y120762D02*
X-224482Y120762D01*
X-220869Y120762D02*
X-220751Y120764D01*
X-220633Y120770D01*
X-220515Y120779D01*
X-220398Y120793D01*
X-220281Y120810D01*
X-220164Y120831D01*
X-220049Y120856D01*
X-219934Y120885D01*
X-219820Y120918D01*
X-219708Y120954D01*
X-219597Y120994D01*
X-219487Y121037D01*
X-219378Y121084D01*
X-219271Y121134D01*
X-219166Y121189D01*
X-219063Y121246D01*
X-218962Y121307D01*
X-218862Y121371D01*
X-218765Y121438D01*
X-218670Y121508D01*
X-218578Y121582D01*
X-218487Y121658D01*
X-218400Y121738D01*
X-218315Y121820D01*
X-218233Y121905D01*
X-218153Y121992D01*
X-218077Y122083D01*
X-218003Y122175D01*
X-217933Y122270D01*
X-217866Y122367D01*
X-217802Y122467D01*
X-217741Y122568D01*
X-217684Y122671D01*
X-217629Y122776D01*
X-217579Y122883D01*
X-217532Y122992D01*
X-217489Y123102D01*
X-217449Y123213D01*
X-217413Y123325D01*
X-217380Y123439D01*
X-217351Y123554D01*
X-217326Y123669D01*
X-217305Y123786D01*
X-217288Y123903D01*
X-217274Y124020D01*
X-217265Y124138D01*
X-217259Y124256D01*
X-217257Y124374D01*
X-217257Y133406D01*
X-217259Y133524D01*
X-217265Y133642D01*
X-217274Y133760D01*
X-217288Y133877D01*
X-217305Y133994D01*
X-217326Y134111D01*
X-217351Y134226D01*
X-217380Y134341D01*
X-217413Y134455D01*
X-217449Y134567D01*
X-217489Y134678D01*
X-217532Y134788D01*
X-217579Y134897D01*
X-217629Y135004D01*
X-217683Y135109D01*
X-217741Y135212D01*
X-217802Y135313D01*
X-217866Y135413D01*
X-217933Y135510D01*
X-218003Y135605D01*
X-218077Y135697D01*
X-218153Y135788D01*
X-218233Y135875D01*
X-218315Y135960D01*
X-218400Y136042D01*
X-218487Y136122D01*
X-218578Y136198D01*
X-218670Y136272D01*
X-218765Y136342D01*
X-218862Y136409D01*
X-218962Y136473D01*
X-219063Y136534D01*
X-219166Y136591D01*
X-219271Y136645D01*
X-219378Y136696D01*
X-219487Y136743D01*
X-219597Y136786D01*
X-219708Y136826D01*
X-219820Y136862D01*
X-219934Y136895D01*
X-220049Y136924D01*
X-220164Y136949D01*
X-220281Y136970D01*
X-220398Y136987D01*
X-220515Y137001D01*
X-220633Y137010D01*
X-220751Y137016D01*
X-220869Y137018D01*
X-224482Y137018D01*
X-233895Y120762D02*
X-237508Y120762D01*
X-233895Y120762D02*
X-233777Y120764D01*
X-233659Y120770D01*
X-233541Y120779D01*
X-233424Y120793D01*
X-233307Y120810D01*
X-233190Y120831D01*
X-233075Y120856D01*
X-232960Y120885D01*
X-232846Y120918D01*
X-232734Y120954D01*
X-232623Y120994D01*
X-232513Y121037D01*
X-232404Y121084D01*
X-232297Y121134D01*
X-232192Y121189D01*
X-232089Y121246D01*
X-231988Y121307D01*
X-231888Y121371D01*
X-231791Y121438D01*
X-231696Y121508D01*
X-231604Y121582D01*
X-231513Y121658D01*
X-231426Y121738D01*
X-231341Y121820D01*
X-231259Y121905D01*
X-231179Y121992D01*
X-231103Y122083D01*
X-231029Y122175D01*
X-230959Y122270D01*
X-230892Y122367D01*
X-230828Y122467D01*
X-230767Y122568D01*
X-230710Y122671D01*
X-230655Y122776D01*
X-230605Y122883D01*
X-230558Y122992D01*
X-230515Y123102D01*
X-230475Y123213D01*
X-230439Y123325D01*
X-230406Y123439D01*
X-230377Y123554D01*
X-230352Y123669D01*
X-230331Y123786D01*
X-230314Y123903D01*
X-230300Y124020D01*
X-230291Y124138D01*
X-230285Y124256D01*
X-230283Y124374D01*
X-230283Y133406D01*
X-230285Y133524D01*
X-230291Y133642D01*
X-230300Y133760D01*
X-230314Y133877D01*
X-230331Y133994D01*
X-230352Y134111D01*
X-230377Y134226D01*
X-230406Y134341D01*
X-230439Y134455D01*
X-230475Y134567D01*
X-230515Y134678D01*
X-230558Y134788D01*
X-230605Y134897D01*
X-230655Y135004D01*
X-230709Y135109D01*
X-230767Y135212D01*
X-230828Y135313D01*
X-230892Y135413D01*
X-230959Y135510D01*
X-231029Y135605D01*
X-231103Y135697D01*
X-231179Y135788D01*
X-231259Y135875D01*
X-231341Y135960D01*
X-231426Y136042D01*
X-231513Y136122D01*
X-231604Y136198D01*
X-231696Y136272D01*
X-231791Y136342D01*
X-231888Y136409D01*
X-231988Y136473D01*
X-232089Y136534D01*
X-232192Y136591D01*
X-232297Y136645D01*
X-232404Y136696D01*
X-232513Y136743D01*
X-232623Y136786D01*
X-232734Y136826D01*
X-232846Y136862D01*
X-232960Y136895D01*
X-233075Y136924D01*
X-233190Y136949D01*
X-233307Y136970D01*
X-233424Y136987D01*
X-233541Y137001D01*
X-233659Y137010D01*
X-233777Y137016D01*
X-233895Y137018D01*
X-237508Y137018D01*
X-209793Y104793D02*
X-207084Y104793D01*
X-209793Y104793D02*
X-209793Y95762D01*
X-204374Y95762D01*
X-204256Y95764D01*
X-204138Y95770D01*
X-204020Y95779D01*
X-203903Y95793D01*
X-203786Y95810D01*
X-203669Y95831D01*
X-203554Y95856D01*
X-203439Y95885D01*
X-203325Y95918D01*
X-203213Y95954D01*
X-203102Y95994D01*
X-202992Y96037D01*
X-202883Y96084D01*
X-202776Y96134D01*
X-202671Y96189D01*
X-202568Y96246D01*
X-202467Y96307D01*
X-202367Y96371D01*
X-202270Y96438D01*
X-202175Y96508D01*
X-202083Y96582D01*
X-201992Y96658D01*
X-201905Y96738D01*
X-201820Y96820D01*
X-201738Y96905D01*
X-201658Y96992D01*
X-201582Y97083D01*
X-201508Y97175D01*
X-201438Y97270D01*
X-201371Y97367D01*
X-201307Y97467D01*
X-201246Y97568D01*
X-201189Y97671D01*
X-201134Y97776D01*
X-201084Y97883D01*
X-201037Y97992D01*
X-200994Y98102D01*
X-200954Y98213D01*
X-200918Y98325D01*
X-200885Y98439D01*
X-200856Y98554D01*
X-200831Y98669D01*
X-200810Y98786D01*
X-200793Y98903D01*
X-200779Y99020D01*
X-200770Y99138D01*
X-200764Y99256D01*
X-200762Y99374D01*
X-200762Y108406D01*
X-200764Y108524D01*
X-200770Y108642D01*
X-200779Y108760D01*
X-200793Y108877D01*
X-200810Y108994D01*
X-200831Y109111D01*
X-200856Y109226D01*
X-200885Y109341D01*
X-200918Y109455D01*
X-200954Y109567D01*
X-200994Y109678D01*
X-201037Y109788D01*
X-201084Y109897D01*
X-201134Y110004D01*
X-201188Y110109D01*
X-201246Y110212D01*
X-201307Y110313D01*
X-201371Y110413D01*
X-201438Y110510D01*
X-201508Y110605D01*
X-201582Y110697D01*
X-201658Y110788D01*
X-201738Y110875D01*
X-201820Y110960D01*
X-201905Y111042D01*
X-201992Y111122D01*
X-202083Y111198D01*
X-202175Y111272D01*
X-202270Y111342D01*
X-202367Y111409D01*
X-202467Y111473D01*
X-202568Y111534D01*
X-202671Y111591D01*
X-202776Y111645D01*
X-202883Y111696D01*
X-202992Y111743D01*
X-203102Y111786D01*
X-203213Y111826D01*
X-203325Y111862D01*
X-203439Y111895D01*
X-203554Y111924D01*
X-203669Y111949D01*
X-203786Y111970D01*
X-203903Y111987D01*
X-204020Y112001D01*
X-204138Y112010D01*
X-204256Y112016D01*
X-204374Y112018D01*
X-209793Y112018D01*
X-217435Y112018D02*
X-217435Y95762D01*
X-226466Y95762D02*
X-217435Y112018D01*
X-226466Y112018D02*
X-226466Y95762D01*
X-234109Y95762D02*
X-234109Y112018D01*
X-238624Y112018D01*
X-238755Y112016D01*
X-238887Y112010D01*
X-239018Y112001D01*
X-239148Y111987D01*
X-239279Y111970D01*
X-239408Y111949D01*
X-239537Y111925D01*
X-239665Y111896D01*
X-239793Y111864D01*
X-239919Y111828D01*
X-240044Y111789D01*
X-240169Y111746D01*
X-240291Y111699D01*
X-240413Y111649D01*
X-240533Y111595D01*
X-240651Y111538D01*
X-240767Y111477D01*
X-240882Y111413D01*
X-240995Y111346D01*
X-241106Y111275D01*
X-241214Y111201D01*
X-241321Y111124D01*
X-241425Y111044D01*
X-241527Y110961D01*
X-241626Y110876D01*
X-241723Y110787D01*
X-241817Y110695D01*
X-241909Y110601D01*
X-241998Y110504D01*
X-242083Y110405D01*
X-242166Y110303D01*
X-242246Y110199D01*
X-242323Y110092D01*
X-242397Y109984D01*
X-242468Y109873D01*
X-242535Y109760D01*
X-242599Y109645D01*
X-242660Y109529D01*
X-242717Y109411D01*
X-242771Y109291D01*
X-242821Y109169D01*
X-242868Y109047D01*
X-242911Y108922D01*
X-242950Y108797D01*
X-242986Y108671D01*
X-243018Y108543D01*
X-243047Y108415D01*
X-243071Y108286D01*
X-243092Y108157D01*
X-243109Y108026D01*
X-243123Y107896D01*
X-243132Y107765D01*
X-243138Y107633D01*
X-243140Y107502D01*
X-243140Y100278D01*
X-243138Y100147D01*
X-243132Y100015D01*
X-243123Y99884D01*
X-243109Y99754D01*
X-243092Y99623D01*
X-243071Y99494D01*
X-243047Y99365D01*
X-243018Y99237D01*
X-242986Y99109D01*
X-242950Y98983D01*
X-242911Y98858D01*
X-242868Y98733D01*
X-242821Y98611D01*
X-242771Y98489D01*
X-242717Y98369D01*
X-242660Y98251D01*
X-242599Y98135D01*
X-242535Y98020D01*
X-242468Y97907D01*
X-242397Y97796D01*
X-242323Y97688D01*
X-242246Y97581D01*
X-242166Y97477D01*
X-242083Y97375D01*
X-241998Y97276D01*
X-241909Y97179D01*
X-241817Y97085D01*
X-241723Y96993D01*
X-241626Y96904D01*
X-241527Y96819D01*
X-241425Y96736D01*
X-241321Y96656D01*
X-241214Y96579D01*
X-241106Y96505D01*
X-240995Y96434D01*
X-240882Y96367D01*
X-240767Y96303D01*
X-240651Y96242D01*
X-240533Y96185D01*
X-240413Y96131D01*
X-240291Y96081D01*
X-240169Y96034D01*
X-240044Y95991D01*
X-239919Y95952D01*
X-239793Y95916D01*
X-239665Y95884D01*
X-239537Y95855D01*
X-239408Y95831D01*
X-239278Y95810D01*
X-239148Y95793D01*
X-239018Y95779D01*
X-238887Y95770D01*
X-238755Y95764D01*
X-238624Y95762D01*
X-234109Y95762D01*
X-209793Y74374D02*
X-209791Y74256D01*
X-209785Y74138D01*
X-209776Y74020D01*
X-209762Y73903D01*
X-209745Y73786D01*
X-209724Y73669D01*
X-209699Y73554D01*
X-209670Y73439D01*
X-209637Y73325D01*
X-209601Y73213D01*
X-209561Y73102D01*
X-209518Y72992D01*
X-209471Y72883D01*
X-209421Y72776D01*
X-209366Y72671D01*
X-209309Y72568D01*
X-209248Y72467D01*
X-209184Y72367D01*
X-209117Y72270D01*
X-209047Y72175D01*
X-208973Y72083D01*
X-208897Y71992D01*
X-208817Y71905D01*
X-208735Y71820D01*
X-208650Y71738D01*
X-208563Y71658D01*
X-208472Y71582D01*
X-208380Y71508D01*
X-208285Y71438D01*
X-208188Y71371D01*
X-208088Y71307D01*
X-207987Y71246D01*
X-207884Y71189D01*
X-207779Y71134D01*
X-207672Y71084D01*
X-207563Y71037D01*
X-207453Y70994D01*
X-207342Y70954D01*
X-207230Y70918D01*
X-207116Y70885D01*
X-207001Y70856D01*
X-206886Y70831D01*
X-206769Y70810D01*
X-206652Y70793D01*
X-206535Y70779D01*
X-206417Y70770D01*
X-206299Y70764D01*
X-206181Y70762D01*
X-205998Y70764D01*
X-205816Y70771D01*
X-205634Y70782D01*
X-205452Y70797D01*
X-205270Y70817D01*
X-205089Y70840D01*
X-204909Y70869D01*
X-204729Y70901D01*
X-204550Y70938D01*
X-204373Y70979D01*
X-204196Y71025D01*
X-204020Y71074D01*
X-203846Y71128D01*
X-203672Y71186D01*
X-203501Y71248D01*
X-203331Y71314D01*
X-203162Y71385D01*
X-202995Y71459D01*
X-202830Y71537D01*
X-202667Y71619D01*
X-202506Y71705D01*
X-202347Y71795D01*
X-202190Y71889D01*
X-202036Y71986D01*
X-201884Y72087D01*
X-201734Y72192D01*
X-201587Y72300D01*
X-201443Y72411D01*
X-201301Y72526D01*
X-201162Y72645D01*
X-201026Y72767D01*
X-200893Y72892D01*
X-200763Y73020D01*
X-201214Y83406D02*
X-201216Y83524D01*
X-201222Y83642D01*
X-201231Y83760D01*
X-201245Y83877D01*
X-201262Y83994D01*
X-201283Y84111D01*
X-201308Y84226D01*
X-201337Y84341D01*
X-201370Y84455D01*
X-201406Y84567D01*
X-201446Y84678D01*
X-201489Y84788D01*
X-201536Y84897D01*
X-201586Y85004D01*
X-201641Y85109D01*
X-201698Y85212D01*
X-201759Y85313D01*
X-201823Y85413D01*
X-201890Y85510D01*
X-201960Y85605D01*
X-202034Y85697D01*
X-202110Y85788D01*
X-202190Y85875D01*
X-202272Y85960D01*
X-202357Y86042D01*
X-202444Y86122D01*
X-202535Y86198D01*
X-202627Y86272D01*
X-202722Y86342D01*
X-202819Y86409D01*
X-202919Y86473D01*
X-203020Y86534D01*
X-203123Y86592D01*
X-203228Y86646D01*
X-203335Y86696D01*
X-203444Y86743D01*
X-203554Y86787D01*
X-203665Y86826D01*
X-203778Y86862D01*
X-203891Y86895D01*
X-204006Y86924D01*
X-204121Y86949D01*
X-204238Y86970D01*
X-204355Y86987D01*
X-204472Y87001D01*
X-204590Y87010D01*
X-204708Y87016D01*
X-204826Y87018D01*
X-204987Y87016D01*
X-205149Y87010D01*
X-205310Y87001D01*
X-205471Y86987D01*
X-205631Y86970D01*
X-205791Y86949D01*
X-205951Y86924D01*
X-206110Y86895D01*
X-206268Y86863D01*
X-206425Y86827D01*
X-206581Y86787D01*
X-206737Y86743D01*
X-206891Y86695D01*
X-207044Y86644D01*
X-207196Y86590D01*
X-207347Y86531D01*
X-207496Y86470D01*
X-207643Y86404D01*
X-207789Y86335D01*
X-207934Y86263D01*
X-208076Y86187D01*
X-208217Y86108D01*
X-208356Y86026D01*
X-208492Y85940D01*
X-208627Y85851D01*
X-208760Y85759D01*
X-208890Y85663D01*
X-203019Y80245D02*
X-202918Y80307D01*
X-202818Y80372D01*
X-202721Y80441D01*
X-202626Y80513D01*
X-202533Y80587D01*
X-202443Y80665D01*
X-202355Y80746D01*
X-202270Y80829D01*
X-202188Y80915D01*
X-202109Y81004D01*
X-202032Y81095D01*
X-201959Y81189D01*
X-201888Y81285D01*
X-201821Y81383D01*
X-201757Y81483D01*
X-201696Y81586D01*
X-201639Y81690D01*
X-201585Y81796D01*
X-201535Y81904D01*
X-201488Y82013D01*
X-201444Y82124D01*
X-201404Y82236D01*
X-201368Y82350D01*
X-201336Y82464D01*
X-201307Y82580D01*
X-201282Y82696D01*
X-201261Y82813D01*
X-201244Y82931D01*
X-201230Y83049D01*
X-201221Y83168D01*
X-201215Y83287D01*
X-201213Y83406D01*
X-207987Y77535D02*
X-208088Y77473D01*
X-208188Y77408D01*
X-208285Y77339D01*
X-208380Y77267D01*
X-208473Y77193D01*
X-208563Y77115D01*
X-208651Y77034D01*
X-208736Y76951D01*
X-208818Y76865D01*
X-208897Y76776D01*
X-208974Y76685D01*
X-209047Y76591D01*
X-209118Y76495D01*
X-209185Y76397D01*
X-209249Y76297D01*
X-209310Y76194D01*
X-209367Y76090D01*
X-209421Y75984D01*
X-209471Y75876D01*
X-209518Y75767D01*
X-209562Y75656D01*
X-209602Y75544D01*
X-209638Y75430D01*
X-209670Y75316D01*
X-209699Y75200D01*
X-209724Y75084D01*
X-209745Y74967D01*
X-209762Y74849D01*
X-209776Y74731D01*
X-209785Y74612D01*
X-209791Y74493D01*
X-209793Y74374D01*
X-207987Y77535D02*
X-203020Y80245D01*
X-219445Y70762D02*
X-223058Y70762D01*
X-219445Y70762D02*
X-219327Y70764D01*
X-219209Y70770D01*
X-219091Y70779D01*
X-218974Y70793D01*
X-218857Y70810D01*
X-218740Y70831D01*
X-218625Y70856D01*
X-218510Y70885D01*
X-218396Y70918D01*
X-218284Y70954D01*
X-218173Y70994D01*
X-218063Y71037D01*
X-217954Y71084D01*
X-217847Y71134D01*
X-217742Y71189D01*
X-217639Y71246D01*
X-217538Y71307D01*
X-217438Y71371D01*
X-217341Y71438D01*
X-217246Y71508D01*
X-217154Y71582D01*
X-217063Y71658D01*
X-216976Y71738D01*
X-216891Y71820D01*
X-216809Y71905D01*
X-216729Y71992D01*
X-216653Y72083D01*
X-216579Y72175D01*
X-216509Y72270D01*
X-216442Y72367D01*
X-216378Y72467D01*
X-216317Y72568D01*
X-216260Y72671D01*
X-216205Y72776D01*
X-216155Y72883D01*
X-216108Y72992D01*
X-216065Y73102D01*
X-216025Y73213D01*
X-215989Y73325D01*
X-215956Y73439D01*
X-215927Y73554D01*
X-215902Y73669D01*
X-215881Y73786D01*
X-215864Y73903D01*
X-215850Y74020D01*
X-215841Y74138D01*
X-215835Y74256D01*
X-215833Y74374D01*
X-215833Y83406D01*
X-215835Y83524D01*
X-215841Y83642D01*
X-215850Y83760D01*
X-215864Y83877D01*
X-215881Y83994D01*
X-215902Y84111D01*
X-215927Y84226D01*
X-215956Y84341D01*
X-215989Y84455D01*
X-216025Y84567D01*
X-216065Y84678D01*
X-216108Y84788D01*
X-216155Y84897D01*
X-216205Y85004D01*
X-216259Y85109D01*
X-216317Y85212D01*
X-216378Y85313D01*
X-216442Y85413D01*
X-216509Y85510D01*
X-216579Y85605D01*
X-216653Y85697D01*
X-216729Y85788D01*
X-216809Y85875D01*
X-216891Y85960D01*
X-216976Y86042D01*
X-217063Y86122D01*
X-217154Y86198D01*
X-217246Y86272D01*
X-217341Y86342D01*
X-217438Y86409D01*
X-217538Y86473D01*
X-217639Y86534D01*
X-217742Y86591D01*
X-217847Y86645D01*
X-217954Y86696D01*
X-218063Y86743D01*
X-218173Y86786D01*
X-218284Y86826D01*
X-218396Y86862D01*
X-218510Y86895D01*
X-218625Y86924D01*
X-218740Y86949D01*
X-218857Y86970D01*
X-218974Y86987D01*
X-219091Y87001D01*
X-219209Y87010D01*
X-219327Y87016D01*
X-219445Y87018D01*
X-223058Y87018D01*
X-229449Y87018D02*
X-229449Y70762D01*
X-236674Y70762D01*
X-209793Y49374D02*
X-209791Y49256D01*
X-209785Y49138D01*
X-209776Y49020D01*
X-209762Y48903D01*
X-209745Y48786D01*
X-209724Y48669D01*
X-209699Y48554D01*
X-209670Y48439D01*
X-209637Y48325D01*
X-209601Y48213D01*
X-209561Y48102D01*
X-209518Y47992D01*
X-209471Y47883D01*
X-209421Y47776D01*
X-209366Y47671D01*
X-209309Y47568D01*
X-209248Y47467D01*
X-209184Y47367D01*
X-209117Y47270D01*
X-209047Y47175D01*
X-208973Y47083D01*
X-208897Y46992D01*
X-208817Y46905D01*
X-208735Y46820D01*
X-208650Y46738D01*
X-208563Y46658D01*
X-208472Y46582D01*
X-208380Y46508D01*
X-208285Y46438D01*
X-208188Y46371D01*
X-208088Y46307D01*
X-207987Y46246D01*
X-207884Y46189D01*
X-207779Y46134D01*
X-207672Y46084D01*
X-207563Y46037D01*
X-207453Y45994D01*
X-207342Y45954D01*
X-207230Y45918D01*
X-207116Y45885D01*
X-207001Y45856D01*
X-206886Y45831D01*
X-206769Y45810D01*
X-206652Y45793D01*
X-206535Y45779D01*
X-206417Y45770D01*
X-206299Y45764D01*
X-206181Y45762D01*
X-205998Y45764D01*
X-205816Y45771D01*
X-205634Y45782D01*
X-205452Y45797D01*
X-205270Y45817D01*
X-205089Y45840D01*
X-204909Y45869D01*
X-204729Y45901D01*
X-204550Y45938D01*
X-204373Y45979D01*
X-204196Y46025D01*
X-204020Y46074D01*
X-203846Y46128D01*
X-203672Y46186D01*
X-203501Y46248D01*
X-203331Y46314D01*
X-203162Y46385D01*
X-202995Y46459D01*
X-202830Y46537D01*
X-202667Y46619D01*
X-202506Y46705D01*
X-202347Y46795D01*
X-202190Y46889D01*
X-202036Y46986D01*
X-201884Y47087D01*
X-201734Y47192D01*
X-201587Y47300D01*
X-201443Y47411D01*
X-201301Y47526D01*
X-201162Y47645D01*
X-201026Y47767D01*
X-200893Y47892D01*
X-200763Y48020D01*
X-201214Y58406D02*
X-201216Y58524D01*
X-201222Y58642D01*
X-201231Y58760D01*
X-201245Y58877D01*
X-201262Y58994D01*
X-201283Y59111D01*
X-201308Y59226D01*
X-201337Y59341D01*
X-201370Y59455D01*
X-201406Y59567D01*
X-201446Y59678D01*
X-201489Y59788D01*
X-201536Y59897D01*
X-201586Y60004D01*
X-201641Y60109D01*
X-201698Y60212D01*
X-201759Y60313D01*
X-201823Y60413D01*
X-201890Y60510D01*
X-201960Y60605D01*
X-202034Y60697D01*
X-202110Y60788D01*
X-202190Y60875D01*
X-202272Y60960D01*
X-202357Y61042D01*
X-202444Y61122D01*
X-202535Y61198D01*
X-202627Y61272D01*
X-202722Y61342D01*
X-202819Y61409D01*
X-202919Y61473D01*
X-203020Y61534D01*
X-203123Y61592D01*
X-203228Y61646D01*
X-203335Y61696D01*
X-203444Y61743D01*
X-203554Y61787D01*
X-203665Y61826D01*
X-203778Y61862D01*
X-203891Y61895D01*
X-204006Y61924D01*
X-204121Y61949D01*
X-204238Y61970D01*
X-204355Y61987D01*
X-204472Y62001D01*
X-204590Y62010D01*
X-204708Y62016D01*
X-204826Y62018D01*
X-204987Y62016D01*
X-205149Y62010D01*
X-205310Y62001D01*
X-205471Y61987D01*
X-205631Y61970D01*
X-205791Y61949D01*
X-205951Y61924D01*
X-206110Y61895D01*
X-206268Y61863D01*
X-206425Y61827D01*
X-206581Y61787D01*
X-206737Y61743D01*
X-206891Y61695D01*
X-207044Y61644D01*
X-207196Y61590D01*
X-207347Y61531D01*
X-207496Y61470D01*
X-207643Y61404D01*
X-207789Y61335D01*
X-207934Y61263D01*
X-208076Y61187D01*
X-208217Y61108D01*
X-208356Y61026D01*
X-208492Y60940D01*
X-208627Y60851D01*
X-208760Y60759D01*
X-208890Y60663D01*
X-203019Y55245D02*
X-202918Y55307D01*
X-202818Y55372D01*
X-202721Y55441D01*
X-202626Y55513D01*
X-202533Y55587D01*
X-202443Y55665D01*
X-202355Y55746D01*
X-202270Y55829D01*
X-202188Y55915D01*
X-202109Y56004D01*
X-202032Y56095D01*
X-201959Y56189D01*
X-201888Y56285D01*
X-201821Y56383D01*
X-201757Y56483D01*
X-201696Y56586D01*
X-201639Y56690D01*
X-201585Y56796D01*
X-201535Y56904D01*
X-201488Y57013D01*
X-201444Y57124D01*
X-201404Y57236D01*
X-201368Y57350D01*
X-201336Y57464D01*
X-201307Y57580D01*
X-201282Y57696D01*
X-201261Y57813D01*
X-201244Y57931D01*
X-201230Y58049D01*
X-201221Y58168D01*
X-201215Y58287D01*
X-201213Y58406D01*
X-207987Y52535D02*
X-208088Y52473D01*
X-208188Y52408D01*
X-208285Y52339D01*
X-208380Y52267D01*
X-208473Y52193D01*
X-208563Y52115D01*
X-208651Y52034D01*
X-208736Y51951D01*
X-208818Y51865D01*
X-208897Y51776D01*
X-208974Y51685D01*
X-209047Y51591D01*
X-209118Y51495D01*
X-209185Y51397D01*
X-209249Y51297D01*
X-209310Y51194D01*
X-209367Y51090D01*
X-209421Y50984D01*
X-209471Y50876D01*
X-209518Y50767D01*
X-209562Y50656D01*
X-209602Y50544D01*
X-209638Y50430D01*
X-209670Y50316D01*
X-209699Y50200D01*
X-209724Y50084D01*
X-209745Y49967D01*
X-209762Y49849D01*
X-209776Y49731D01*
X-209785Y49612D01*
X-209791Y49493D01*
X-209793Y49374D01*
X-207987Y52535D02*
X-203020Y55245D01*
X-216393Y62018D02*
X-216393Y45762D01*
X-216393Y62018D02*
X-220909Y62018D01*
X-221040Y62016D01*
X-221172Y62010D01*
X-221303Y62001D01*
X-221433Y61987D01*
X-221564Y61970D01*
X-221693Y61949D01*
X-221822Y61925D01*
X-221950Y61896D01*
X-222078Y61864D01*
X-222204Y61828D01*
X-222329Y61789D01*
X-222454Y61746D01*
X-222576Y61699D01*
X-222698Y61649D01*
X-222818Y61595D01*
X-222936Y61538D01*
X-223052Y61477D01*
X-223167Y61413D01*
X-223280Y61346D01*
X-223391Y61275D01*
X-223499Y61201D01*
X-223606Y61124D01*
X-223710Y61044D01*
X-223812Y60961D01*
X-223911Y60876D01*
X-224008Y60787D01*
X-224102Y60695D01*
X-224194Y60601D01*
X-224283Y60504D01*
X-224368Y60405D01*
X-224451Y60303D01*
X-224531Y60199D01*
X-224608Y60092D01*
X-224682Y59984D01*
X-224753Y59873D01*
X-224820Y59760D01*
X-224884Y59645D01*
X-224945Y59529D01*
X-225002Y59411D01*
X-225056Y59291D01*
X-225106Y59169D01*
X-225153Y59047D01*
X-225196Y58922D01*
X-225235Y58797D01*
X-225271Y58671D01*
X-225303Y58543D01*
X-225332Y58415D01*
X-225356Y58286D01*
X-225377Y58157D01*
X-225394Y58026D01*
X-225408Y57896D01*
X-225417Y57765D01*
X-225423Y57633D01*
X-225425Y57502D01*
X-225424Y57502D02*
X-225424Y50278D01*
X-225425Y50278D02*
X-225423Y50147D01*
X-225417Y50015D01*
X-225408Y49884D01*
X-225394Y49754D01*
X-225377Y49623D01*
X-225356Y49494D01*
X-225332Y49365D01*
X-225303Y49237D01*
X-225271Y49109D01*
X-225235Y48983D01*
X-225196Y48858D01*
X-225153Y48733D01*
X-225106Y48611D01*
X-225056Y48489D01*
X-225002Y48369D01*
X-224945Y48251D01*
X-224884Y48135D01*
X-224820Y48020D01*
X-224753Y47907D01*
X-224682Y47796D01*
X-224608Y47688D01*
X-224531Y47581D01*
X-224451Y47477D01*
X-224368Y47375D01*
X-224283Y47276D01*
X-224194Y47179D01*
X-224102Y47085D01*
X-224008Y46993D01*
X-223911Y46904D01*
X-223812Y46819D01*
X-223710Y46736D01*
X-223606Y46656D01*
X-223499Y46579D01*
X-223391Y46505D01*
X-223280Y46434D01*
X-223167Y46367D01*
X-223052Y46303D01*
X-222936Y46242D01*
X-222818Y46185D01*
X-222698Y46131D01*
X-222576Y46081D01*
X-222454Y46034D01*
X-222329Y45991D01*
X-222204Y45952D01*
X-222078Y45916D01*
X-221950Y45884D01*
X-221822Y45855D01*
X-221693Y45831D01*
X-221563Y45810D01*
X-221433Y45793D01*
X-221303Y45779D01*
X-221172Y45770D01*
X-221040Y45764D01*
X-220909Y45762D01*
X-216393Y45762D01*
X-231642Y45762D02*
X-237061Y62018D01*
X-242480Y45762D01*
X-241125Y49826D02*
X-232997Y49826D01*
D11*
X81969Y-25956D02*
X82055Y-25958D01*
X82141Y-25963D01*
X82226Y-25973D01*
X82311Y-25986D01*
X82395Y-26003D01*
X82479Y-26023D01*
X82561Y-26047D01*
X82642Y-26075D01*
X82723Y-26106D01*
X82801Y-26140D01*
X82878Y-26178D01*
X82954Y-26220D01*
X83027Y-26264D01*
X83098Y-26312D01*
X83168Y-26363D01*
X83235Y-26417D01*
X83299Y-26473D01*
X83361Y-26533D01*
X83421Y-26595D01*
X83477Y-26659D01*
X83531Y-26726D01*
X83582Y-26796D01*
X83630Y-26867D01*
X83674Y-26941D01*
X83716Y-27016D01*
X83754Y-27093D01*
X83788Y-27171D01*
X83819Y-27252D01*
X83847Y-27333D01*
X83871Y-27415D01*
X83891Y-27499D01*
X83908Y-27583D01*
X83921Y-27668D01*
X83931Y-27753D01*
X83936Y-27839D01*
X83938Y-27925D01*
X83937Y-27925D02*
X83935Y-28024D01*
X83929Y-28124D01*
X83919Y-28222D01*
X83906Y-28321D01*
X83888Y-28419D01*
X83867Y-28516D01*
X83842Y-28612D01*
X83813Y-28707D01*
X83780Y-28801D01*
X83744Y-28894D01*
X83704Y-28985D01*
X83661Y-29074D01*
X83614Y-29162D01*
X83564Y-29247D01*
X83510Y-29331D01*
X83453Y-29412D01*
X83393Y-29492D01*
X83330Y-29568D01*
X83264Y-29643D01*
X83195Y-29714D01*
X83124Y-29783D01*
X83049Y-29849D01*
X82972Y-29912D01*
X82893Y-29972D01*
X82811Y-30029D01*
X82728Y-30082D01*
X82642Y-30133D01*
X82554Y-30179D01*
X82465Y-30223D01*
X82374Y-30262D01*
X82281Y-30298D01*
X82187Y-30331D01*
X80438Y-26612D02*
X80502Y-26548D01*
X80568Y-26487D01*
X80637Y-26429D01*
X80708Y-26374D01*
X80781Y-26321D01*
X80857Y-26272D01*
X80934Y-26227D01*
X81014Y-26184D01*
X81095Y-26145D01*
X81178Y-26110D01*
X81262Y-26078D01*
X81348Y-26049D01*
X81434Y-26025D01*
X81522Y-26004D01*
X81610Y-25987D01*
X81699Y-25973D01*
X81789Y-25964D01*
X81879Y-25958D01*
X81969Y-25956D01*
X80437Y-26612D02*
X76063Y-30331D01*
X76063Y-25956D01*
X83938Y-18781D02*
X83936Y-18695D01*
X83931Y-18609D01*
X83921Y-18524D01*
X83908Y-18439D01*
X83891Y-18355D01*
X83871Y-18271D01*
X83847Y-18189D01*
X83819Y-18108D01*
X83788Y-18027D01*
X83754Y-17949D01*
X83716Y-17872D01*
X83674Y-17797D01*
X83630Y-17723D01*
X83582Y-17652D01*
X83531Y-17582D01*
X83477Y-17515D01*
X83421Y-17451D01*
X83361Y-17389D01*
X83299Y-17329D01*
X83235Y-17273D01*
X83168Y-17219D01*
X83098Y-17168D01*
X83027Y-17120D01*
X82954Y-17076D01*
X82878Y-17034D01*
X82801Y-16996D01*
X82723Y-16962D01*
X82642Y-16931D01*
X82561Y-16903D01*
X82479Y-16879D01*
X82395Y-16859D01*
X82311Y-16842D01*
X82226Y-16829D01*
X82141Y-16819D01*
X82055Y-16814D01*
X81969Y-16812D01*
X83937Y-18781D02*
X83935Y-18880D01*
X83929Y-18980D01*
X83919Y-19078D01*
X83906Y-19177D01*
X83888Y-19275D01*
X83867Y-19372D01*
X83842Y-19468D01*
X83813Y-19563D01*
X83780Y-19657D01*
X83744Y-19750D01*
X83704Y-19841D01*
X83661Y-19930D01*
X83614Y-20018D01*
X83564Y-20103D01*
X83510Y-20187D01*
X83453Y-20268D01*
X83393Y-20348D01*
X83330Y-20424D01*
X83264Y-20499D01*
X83195Y-20570D01*
X83124Y-20639D01*
X83049Y-20705D01*
X82972Y-20768D01*
X82893Y-20828D01*
X82811Y-20885D01*
X82728Y-20938D01*
X82642Y-20989D01*
X82554Y-21035D01*
X82465Y-21079D01*
X82374Y-21118D01*
X82281Y-21154D01*
X82187Y-21187D01*
X80438Y-17468D02*
X80502Y-17404D01*
X80568Y-17343D01*
X80637Y-17285D01*
X80708Y-17230D01*
X80781Y-17177D01*
X80857Y-17128D01*
X80934Y-17083D01*
X81014Y-17040D01*
X81095Y-17001D01*
X81178Y-16966D01*
X81262Y-16934D01*
X81348Y-16905D01*
X81434Y-16881D01*
X81522Y-16860D01*
X81610Y-16843D01*
X81699Y-16829D01*
X81789Y-16820D01*
X81879Y-16814D01*
X81969Y-16812D01*
X80437Y-17468D02*
X76063Y-21187D01*
X76063Y-16812D01*
X77375Y-11910D02*
X81312Y-11910D01*
X77375Y-11910D02*
X77304Y-11908D01*
X77233Y-11902D01*
X77163Y-11893D01*
X77093Y-11879D01*
X77024Y-11862D01*
X76956Y-11841D01*
X76889Y-11817D01*
X76824Y-11789D01*
X76760Y-11757D01*
X76699Y-11722D01*
X76639Y-11684D01*
X76581Y-11642D01*
X76526Y-11598D01*
X76473Y-11551D01*
X76422Y-11500D01*
X76375Y-11447D01*
X76331Y-11392D01*
X76289Y-11334D01*
X76251Y-11274D01*
X76216Y-11213D01*
X76184Y-11149D01*
X76156Y-11084D01*
X76132Y-11017D01*
X76111Y-10949D01*
X76094Y-10880D01*
X76080Y-10810D01*
X76071Y-10740D01*
X76065Y-10669D01*
X76063Y-10598D01*
X76063Y-8410D01*
X81312Y-8410D01*
X83937Y-3169D02*
X76063Y-3169D01*
X83937Y-3169D02*
X83937Y331D01*
X80437Y331D02*
X80437Y-3169D01*
X57843Y-31504D02*
X57703Y-31570D01*
X57562Y-31633D01*
X57419Y-31692D01*
X57274Y-31748D01*
X57129Y-31801D01*
X56982Y-31850D01*
X56834Y-31896D01*
X56685Y-31938D01*
X56534Y-31976D01*
X56384Y-32011D01*
X56232Y-32042D01*
X56079Y-32070D01*
X55926Y-32094D01*
X55773Y-32114D01*
X55619Y-32130D01*
X55464Y-32143D01*
X55310Y-32153D01*
X55155Y-32158D01*
X55000Y-32160D01*
X57843Y-31503D02*
X57916Y-31477D01*
X57987Y-31446D01*
X58056Y-31413D01*
X58124Y-31376D01*
X58190Y-31336D01*
X58254Y-31293D01*
X58316Y-31247D01*
X58376Y-31198D01*
X58433Y-31146D01*
X58488Y-31091D01*
X58540Y-31034D01*
X58589Y-30975D01*
X58635Y-30913D01*
X58679Y-30849D01*
X58719Y-30783D01*
X58756Y-30715D01*
X58790Y-30646D01*
X58820Y-30575D01*
X58848Y-30503D01*
X58871Y-30429D01*
X58891Y-30355D01*
X58908Y-30279D01*
X58920Y-30203D01*
X58930Y-30126D01*
X58935Y-30049D01*
X58937Y-29972D01*
X58935Y-29895D01*
X58930Y-29818D01*
X58920Y-29741D01*
X58908Y-29665D01*
X58891Y-29589D01*
X58871Y-29515D01*
X58848Y-29441D01*
X58820Y-29369D01*
X58790Y-29298D01*
X58756Y-29229D01*
X58719Y-29161D01*
X58679Y-29095D01*
X58635Y-29031D01*
X58589Y-28969D01*
X58540Y-28910D01*
X58488Y-28853D01*
X58433Y-28798D01*
X58376Y-28746D01*
X58316Y-28697D01*
X58254Y-28651D01*
X58190Y-28608D01*
X58124Y-28568D01*
X58056Y-28531D01*
X57987Y-28498D01*
X57916Y-28467D01*
X57843Y-28441D01*
X57844Y-28440D02*
X57704Y-28374D01*
X57562Y-28311D01*
X57419Y-28252D01*
X57274Y-28196D01*
X57129Y-28143D01*
X56982Y-28094D01*
X56834Y-28048D01*
X56685Y-28006D01*
X56535Y-27968D01*
X56384Y-27933D01*
X56232Y-27902D01*
X56079Y-27874D01*
X55926Y-27850D01*
X55773Y-27830D01*
X55619Y-27814D01*
X55464Y-27801D01*
X55310Y-27791D01*
X55155Y-27786D01*
X55000Y-27784D01*
X55000Y-32159D02*
X54845Y-32157D01*
X54690Y-32152D01*
X54536Y-32142D01*
X54381Y-32129D01*
X54227Y-32113D01*
X54074Y-32093D01*
X53921Y-32069D01*
X53768Y-32041D01*
X53617Y-32010D01*
X53466Y-31975D01*
X53316Y-31937D01*
X53166Y-31895D01*
X53018Y-31849D01*
X52871Y-31800D01*
X52726Y-31747D01*
X52581Y-31691D01*
X52438Y-31632D01*
X52297Y-31569D01*
X52157Y-31503D01*
X52084Y-31477D01*
X52013Y-31446D01*
X51944Y-31413D01*
X51876Y-31376D01*
X51810Y-31336D01*
X51746Y-31293D01*
X51684Y-31247D01*
X51624Y-31198D01*
X51567Y-31146D01*
X51512Y-31091D01*
X51460Y-31034D01*
X51411Y-30975D01*
X51365Y-30913D01*
X51321Y-30849D01*
X51281Y-30783D01*
X51244Y-30715D01*
X51210Y-30646D01*
X51180Y-30575D01*
X51152Y-30503D01*
X51129Y-30429D01*
X51109Y-30355D01*
X51092Y-30279D01*
X51080Y-30203D01*
X51070Y-30126D01*
X51065Y-30049D01*
X51063Y-29972D01*
X52156Y-28441D02*
X52297Y-28375D01*
X52438Y-28312D01*
X52581Y-28253D01*
X52726Y-28197D01*
X52871Y-28144D01*
X53018Y-28095D01*
X53166Y-28049D01*
X53315Y-28007D01*
X53465Y-27969D01*
X53616Y-27934D01*
X53768Y-27903D01*
X53921Y-27875D01*
X54074Y-27851D01*
X54227Y-27831D01*
X54381Y-27815D01*
X54536Y-27802D01*
X54690Y-27792D01*
X54845Y-27787D01*
X55000Y-27785D01*
X52157Y-28441D02*
X52084Y-28467D01*
X52013Y-28498D01*
X51944Y-28531D01*
X51876Y-28568D01*
X51810Y-28608D01*
X51746Y-28651D01*
X51684Y-28697D01*
X51624Y-28746D01*
X51567Y-28798D01*
X51512Y-28853D01*
X51460Y-28910D01*
X51411Y-28969D01*
X51365Y-29031D01*
X51321Y-29095D01*
X51281Y-29161D01*
X51244Y-29229D01*
X51210Y-29298D01*
X51180Y-29369D01*
X51152Y-29441D01*
X51129Y-29515D01*
X51109Y-29589D01*
X51092Y-29665D01*
X51080Y-29741D01*
X51070Y-29818D01*
X51065Y-29895D01*
X51063Y-29972D01*
X52813Y-31722D02*
X57187Y-28222D01*
X51500Y-23790D02*
X51063Y-23790D01*
X51500Y-23790D02*
X51500Y-23353D01*
X51063Y-23353D01*
X51063Y-23790D01*
X57187Y-19358D02*
X58937Y-17171D01*
X51063Y-17171D01*
X51063Y-19358D02*
X51063Y-14983D01*
X52375Y-10081D02*
X56312Y-10081D01*
X52375Y-10081D02*
X52304Y-10079D01*
X52233Y-10073D01*
X52163Y-10064D01*
X52093Y-10050D01*
X52024Y-10033D01*
X51956Y-10012D01*
X51889Y-9988D01*
X51824Y-9960D01*
X51760Y-9928D01*
X51699Y-9893D01*
X51639Y-9855D01*
X51581Y-9813D01*
X51526Y-9769D01*
X51473Y-9722D01*
X51422Y-9671D01*
X51375Y-9618D01*
X51331Y-9563D01*
X51289Y-9505D01*
X51251Y-9445D01*
X51216Y-9384D01*
X51184Y-9320D01*
X51156Y-9255D01*
X51132Y-9188D01*
X51111Y-9120D01*
X51094Y-9051D01*
X51080Y-8981D01*
X51071Y-8911D01*
X51065Y-8840D01*
X51063Y-8769D01*
X51063Y-6582D01*
X56312Y-6582D01*
X58937Y-1340D02*
X51063Y-1340D01*
X58937Y-1340D02*
X58937Y2159D01*
X55437Y2159D02*
X55437Y-1340D01*
X-36063Y-33143D02*
X-37813Y-35331D01*
X-36063Y-33143D02*
X-43937Y-33143D01*
X-43937Y-30956D02*
X-43937Y-35331D01*
X-40000Y-26187D02*
X-39845Y-26185D01*
X-39690Y-26180D01*
X-39536Y-26170D01*
X-39381Y-26157D01*
X-39227Y-26141D01*
X-39074Y-26121D01*
X-38921Y-26097D01*
X-38768Y-26069D01*
X-38616Y-26038D01*
X-38466Y-26003D01*
X-38315Y-25965D01*
X-38166Y-25923D01*
X-38018Y-25877D01*
X-37871Y-25828D01*
X-37726Y-25775D01*
X-37581Y-25719D01*
X-37438Y-25660D01*
X-37297Y-25597D01*
X-37157Y-25531D01*
X-37157Y-25530D02*
X-37084Y-25504D01*
X-37013Y-25473D01*
X-36944Y-25440D01*
X-36876Y-25403D01*
X-36810Y-25363D01*
X-36746Y-25320D01*
X-36684Y-25274D01*
X-36624Y-25225D01*
X-36567Y-25173D01*
X-36512Y-25118D01*
X-36460Y-25061D01*
X-36411Y-25002D01*
X-36365Y-24940D01*
X-36321Y-24876D01*
X-36281Y-24810D01*
X-36244Y-24742D01*
X-36210Y-24673D01*
X-36180Y-24602D01*
X-36152Y-24530D01*
X-36129Y-24456D01*
X-36109Y-24382D01*
X-36092Y-24306D01*
X-36080Y-24230D01*
X-36070Y-24153D01*
X-36065Y-24076D01*
X-36063Y-23999D01*
X-36065Y-23922D01*
X-36070Y-23845D01*
X-36080Y-23768D01*
X-36092Y-23692D01*
X-36109Y-23616D01*
X-36129Y-23542D01*
X-36152Y-23468D01*
X-36180Y-23396D01*
X-36210Y-23325D01*
X-36244Y-23256D01*
X-36281Y-23188D01*
X-36321Y-23122D01*
X-36365Y-23058D01*
X-36411Y-22996D01*
X-36460Y-22937D01*
X-36512Y-22880D01*
X-36567Y-22825D01*
X-36624Y-22773D01*
X-36684Y-22724D01*
X-36746Y-22678D01*
X-36810Y-22635D01*
X-36876Y-22595D01*
X-36944Y-22558D01*
X-37013Y-22525D01*
X-37084Y-22494D01*
X-37157Y-22468D01*
X-37156Y-22468D02*
X-37296Y-22402D01*
X-37438Y-22339D01*
X-37581Y-22280D01*
X-37726Y-22224D01*
X-37871Y-22171D01*
X-38018Y-22122D01*
X-38166Y-22076D01*
X-38315Y-22034D01*
X-38465Y-21996D01*
X-38616Y-21961D01*
X-38768Y-21930D01*
X-38921Y-21902D01*
X-39074Y-21878D01*
X-39227Y-21858D01*
X-39381Y-21842D01*
X-39536Y-21829D01*
X-39690Y-21819D01*
X-39845Y-21814D01*
X-40000Y-21812D01*
X-40000Y-26187D02*
X-40155Y-26185D01*
X-40310Y-26180D01*
X-40464Y-26170D01*
X-40619Y-26157D01*
X-40773Y-26141D01*
X-40926Y-26121D01*
X-41079Y-26097D01*
X-41232Y-26069D01*
X-41384Y-26038D01*
X-41534Y-26003D01*
X-41685Y-25965D01*
X-41834Y-25923D01*
X-41982Y-25877D01*
X-42129Y-25828D01*
X-42274Y-25775D01*
X-42419Y-25719D01*
X-42562Y-25660D01*
X-42703Y-25597D01*
X-42843Y-25531D01*
X-42843Y-25530D02*
X-42916Y-25504D01*
X-42987Y-25473D01*
X-43056Y-25440D01*
X-43124Y-25403D01*
X-43190Y-25363D01*
X-43254Y-25320D01*
X-43316Y-25274D01*
X-43376Y-25225D01*
X-43433Y-25173D01*
X-43488Y-25118D01*
X-43540Y-25061D01*
X-43589Y-25002D01*
X-43635Y-24940D01*
X-43679Y-24876D01*
X-43719Y-24810D01*
X-43756Y-24742D01*
X-43790Y-24673D01*
X-43820Y-24602D01*
X-43848Y-24530D01*
X-43871Y-24456D01*
X-43891Y-24382D01*
X-43908Y-24306D01*
X-43920Y-24230D01*
X-43930Y-24153D01*
X-43935Y-24076D01*
X-43937Y-23999D01*
X-42844Y-22468D02*
X-42704Y-22402D01*
X-42562Y-22339D01*
X-42419Y-22280D01*
X-42274Y-22224D01*
X-42129Y-22171D01*
X-41982Y-22122D01*
X-41834Y-22076D01*
X-41685Y-22034D01*
X-41535Y-21996D01*
X-41384Y-21961D01*
X-41232Y-21930D01*
X-41079Y-21902D01*
X-40926Y-21878D01*
X-40773Y-21858D01*
X-40619Y-21842D01*
X-40464Y-21829D01*
X-40310Y-21819D01*
X-40155Y-21814D01*
X-40000Y-21812D01*
X-42843Y-22468D02*
X-42916Y-22494D01*
X-42987Y-22525D01*
X-43056Y-22558D01*
X-43124Y-22595D01*
X-43190Y-22635D01*
X-43254Y-22678D01*
X-43316Y-22724D01*
X-43376Y-22773D01*
X-43433Y-22825D01*
X-43488Y-22880D01*
X-43540Y-22937D01*
X-43589Y-22996D01*
X-43635Y-23058D01*
X-43679Y-23122D01*
X-43719Y-23188D01*
X-43756Y-23256D01*
X-43790Y-23325D01*
X-43820Y-23396D01*
X-43848Y-23468D01*
X-43871Y-23542D01*
X-43891Y-23616D01*
X-43908Y-23692D01*
X-43920Y-23768D01*
X-43930Y-23845D01*
X-43935Y-23922D01*
X-43937Y-23999D01*
X-42187Y-25749D02*
X-37813Y-22250D01*
X-38688Y-16910D02*
X-42625Y-16910D01*
X-42696Y-16908D01*
X-42767Y-16902D01*
X-42837Y-16893D01*
X-42907Y-16879D01*
X-42976Y-16862D01*
X-43044Y-16841D01*
X-43111Y-16817D01*
X-43176Y-16789D01*
X-43240Y-16757D01*
X-43301Y-16722D01*
X-43361Y-16684D01*
X-43419Y-16642D01*
X-43474Y-16598D01*
X-43527Y-16551D01*
X-43578Y-16500D01*
X-43625Y-16447D01*
X-43669Y-16392D01*
X-43711Y-16334D01*
X-43749Y-16274D01*
X-43784Y-16213D01*
X-43816Y-16149D01*
X-43844Y-16084D01*
X-43868Y-16017D01*
X-43889Y-15949D01*
X-43906Y-15880D01*
X-43920Y-15810D01*
X-43929Y-15740D01*
X-43935Y-15669D01*
X-43937Y-15598D01*
X-43937Y-13410D01*
X-38688Y-13410D01*
X-36063Y-8169D02*
X-43937Y-8169D01*
X-36063Y-8169D02*
X-36063Y-4669D01*
X-39563Y-4669D02*
X-39563Y-8169D01*
X-71063Y-62715D02*
X-72813Y-64903D01*
X-71063Y-62715D02*
X-78937Y-62715D01*
X-78937Y-60528D02*
X-78937Y-64903D01*
X-75000Y-55759D02*
X-74845Y-55757D01*
X-74690Y-55752D01*
X-74536Y-55742D01*
X-74381Y-55729D01*
X-74227Y-55713D01*
X-74074Y-55693D01*
X-73921Y-55669D01*
X-73768Y-55641D01*
X-73616Y-55610D01*
X-73466Y-55575D01*
X-73315Y-55537D01*
X-73166Y-55495D01*
X-73018Y-55449D01*
X-72871Y-55400D01*
X-72726Y-55347D01*
X-72581Y-55291D01*
X-72438Y-55232D01*
X-72297Y-55169D01*
X-72157Y-55103D01*
X-72157Y-55102D02*
X-72084Y-55076D01*
X-72013Y-55045D01*
X-71944Y-55012D01*
X-71876Y-54975D01*
X-71810Y-54935D01*
X-71746Y-54892D01*
X-71684Y-54846D01*
X-71624Y-54797D01*
X-71567Y-54745D01*
X-71512Y-54690D01*
X-71460Y-54633D01*
X-71411Y-54574D01*
X-71365Y-54512D01*
X-71321Y-54448D01*
X-71281Y-54382D01*
X-71244Y-54314D01*
X-71210Y-54245D01*
X-71180Y-54174D01*
X-71152Y-54102D01*
X-71129Y-54028D01*
X-71109Y-53954D01*
X-71092Y-53878D01*
X-71080Y-53802D01*
X-71070Y-53725D01*
X-71065Y-53648D01*
X-71063Y-53571D01*
X-71065Y-53494D01*
X-71070Y-53417D01*
X-71080Y-53340D01*
X-71092Y-53264D01*
X-71109Y-53188D01*
X-71129Y-53114D01*
X-71152Y-53040D01*
X-71180Y-52968D01*
X-71210Y-52897D01*
X-71244Y-52828D01*
X-71281Y-52760D01*
X-71321Y-52694D01*
X-71365Y-52630D01*
X-71411Y-52568D01*
X-71460Y-52509D01*
X-71512Y-52452D01*
X-71567Y-52397D01*
X-71624Y-52345D01*
X-71684Y-52296D01*
X-71746Y-52250D01*
X-71810Y-52207D01*
X-71876Y-52167D01*
X-71944Y-52130D01*
X-72013Y-52097D01*
X-72084Y-52066D01*
X-72157Y-52040D01*
X-72156Y-52040D02*
X-72296Y-51974D01*
X-72438Y-51911D01*
X-72581Y-51852D01*
X-72726Y-51796D01*
X-72871Y-51743D01*
X-73018Y-51694D01*
X-73166Y-51648D01*
X-73315Y-51606D01*
X-73465Y-51568D01*
X-73616Y-51533D01*
X-73768Y-51502D01*
X-73921Y-51474D01*
X-74074Y-51450D01*
X-74227Y-51430D01*
X-74381Y-51414D01*
X-74536Y-51401D01*
X-74690Y-51391D01*
X-74845Y-51386D01*
X-75000Y-51384D01*
X-75000Y-55759D02*
X-75155Y-55757D01*
X-75310Y-55752D01*
X-75464Y-55742D01*
X-75619Y-55729D01*
X-75773Y-55713D01*
X-75926Y-55693D01*
X-76079Y-55669D01*
X-76232Y-55641D01*
X-76384Y-55610D01*
X-76534Y-55575D01*
X-76685Y-55537D01*
X-76834Y-55495D01*
X-76982Y-55449D01*
X-77129Y-55400D01*
X-77274Y-55347D01*
X-77419Y-55291D01*
X-77562Y-55232D01*
X-77703Y-55169D01*
X-77843Y-55103D01*
X-77843Y-55102D02*
X-77916Y-55076D01*
X-77987Y-55045D01*
X-78056Y-55012D01*
X-78124Y-54975D01*
X-78190Y-54935D01*
X-78254Y-54892D01*
X-78316Y-54846D01*
X-78376Y-54797D01*
X-78433Y-54745D01*
X-78488Y-54690D01*
X-78540Y-54633D01*
X-78589Y-54574D01*
X-78635Y-54512D01*
X-78679Y-54448D01*
X-78719Y-54382D01*
X-78756Y-54314D01*
X-78790Y-54245D01*
X-78820Y-54174D01*
X-78848Y-54102D01*
X-78871Y-54028D01*
X-78891Y-53954D01*
X-78908Y-53878D01*
X-78920Y-53802D01*
X-78930Y-53725D01*
X-78935Y-53648D01*
X-78937Y-53571D01*
X-77844Y-52040D02*
X-77704Y-51974D01*
X-77562Y-51911D01*
X-77419Y-51852D01*
X-77274Y-51796D01*
X-77129Y-51743D01*
X-76982Y-51694D01*
X-76834Y-51648D01*
X-76685Y-51606D01*
X-76535Y-51568D01*
X-76384Y-51533D01*
X-76232Y-51502D01*
X-76079Y-51474D01*
X-75926Y-51450D01*
X-75773Y-51430D01*
X-75619Y-51414D01*
X-75464Y-51401D01*
X-75310Y-51391D01*
X-75155Y-51386D01*
X-75000Y-51384D01*
X-77843Y-52040D02*
X-77916Y-52066D01*
X-77987Y-52097D01*
X-78056Y-52130D01*
X-78124Y-52167D01*
X-78190Y-52207D01*
X-78254Y-52250D01*
X-78316Y-52296D01*
X-78376Y-52345D01*
X-78433Y-52397D01*
X-78488Y-52452D01*
X-78540Y-52509D01*
X-78589Y-52568D01*
X-78635Y-52630D01*
X-78679Y-52694D01*
X-78719Y-52760D01*
X-78756Y-52828D01*
X-78790Y-52897D01*
X-78820Y-52968D01*
X-78848Y-53040D01*
X-78871Y-53114D01*
X-78891Y-53188D01*
X-78908Y-53264D01*
X-78920Y-53340D01*
X-78930Y-53417D01*
X-78935Y-53494D01*
X-78937Y-53571D01*
X-77187Y-55321D02*
X-72813Y-51822D01*
X-75000Y-46615D02*
X-74845Y-46613D01*
X-74690Y-46608D01*
X-74536Y-46598D01*
X-74381Y-46585D01*
X-74227Y-46569D01*
X-74074Y-46549D01*
X-73921Y-46525D01*
X-73768Y-46497D01*
X-73616Y-46466D01*
X-73466Y-46431D01*
X-73315Y-46393D01*
X-73166Y-46351D01*
X-73018Y-46305D01*
X-72871Y-46256D01*
X-72726Y-46203D01*
X-72581Y-46147D01*
X-72438Y-46088D01*
X-72297Y-46025D01*
X-72157Y-45959D01*
X-72157Y-45958D02*
X-72084Y-45932D01*
X-72013Y-45901D01*
X-71944Y-45868D01*
X-71876Y-45831D01*
X-71810Y-45791D01*
X-71746Y-45748D01*
X-71684Y-45702D01*
X-71624Y-45653D01*
X-71567Y-45601D01*
X-71512Y-45546D01*
X-71460Y-45489D01*
X-71411Y-45430D01*
X-71365Y-45368D01*
X-71321Y-45304D01*
X-71281Y-45238D01*
X-71244Y-45170D01*
X-71210Y-45101D01*
X-71180Y-45030D01*
X-71152Y-44958D01*
X-71129Y-44884D01*
X-71109Y-44810D01*
X-71092Y-44734D01*
X-71080Y-44658D01*
X-71070Y-44581D01*
X-71065Y-44504D01*
X-71063Y-44427D01*
X-71065Y-44350D01*
X-71070Y-44273D01*
X-71080Y-44196D01*
X-71092Y-44120D01*
X-71109Y-44044D01*
X-71129Y-43970D01*
X-71152Y-43896D01*
X-71180Y-43824D01*
X-71210Y-43753D01*
X-71244Y-43684D01*
X-71281Y-43616D01*
X-71321Y-43550D01*
X-71365Y-43486D01*
X-71411Y-43424D01*
X-71460Y-43365D01*
X-71512Y-43308D01*
X-71567Y-43253D01*
X-71624Y-43201D01*
X-71684Y-43152D01*
X-71746Y-43106D01*
X-71810Y-43063D01*
X-71876Y-43023D01*
X-71944Y-42986D01*
X-72013Y-42953D01*
X-72084Y-42922D01*
X-72157Y-42896D01*
X-72156Y-42896D02*
X-72296Y-42830D01*
X-72438Y-42767D01*
X-72581Y-42708D01*
X-72726Y-42652D01*
X-72871Y-42599D01*
X-73018Y-42550D01*
X-73166Y-42504D01*
X-73315Y-42462D01*
X-73465Y-42424D01*
X-73616Y-42389D01*
X-73768Y-42358D01*
X-73921Y-42330D01*
X-74074Y-42306D01*
X-74227Y-42286D01*
X-74381Y-42270D01*
X-74536Y-42257D01*
X-74690Y-42247D01*
X-74845Y-42242D01*
X-75000Y-42240D01*
X-75000Y-46615D02*
X-75155Y-46613D01*
X-75310Y-46608D01*
X-75464Y-46598D01*
X-75619Y-46585D01*
X-75773Y-46569D01*
X-75926Y-46549D01*
X-76079Y-46525D01*
X-76232Y-46497D01*
X-76384Y-46466D01*
X-76534Y-46431D01*
X-76685Y-46393D01*
X-76834Y-46351D01*
X-76982Y-46305D01*
X-77129Y-46256D01*
X-77274Y-46203D01*
X-77419Y-46147D01*
X-77562Y-46088D01*
X-77703Y-46025D01*
X-77843Y-45959D01*
X-77843Y-45958D02*
X-77916Y-45932D01*
X-77987Y-45901D01*
X-78056Y-45868D01*
X-78124Y-45831D01*
X-78190Y-45791D01*
X-78254Y-45748D01*
X-78316Y-45702D01*
X-78376Y-45653D01*
X-78433Y-45601D01*
X-78488Y-45546D01*
X-78540Y-45489D01*
X-78589Y-45430D01*
X-78635Y-45368D01*
X-78679Y-45304D01*
X-78719Y-45238D01*
X-78756Y-45170D01*
X-78790Y-45101D01*
X-78820Y-45030D01*
X-78848Y-44958D01*
X-78871Y-44884D01*
X-78891Y-44810D01*
X-78908Y-44734D01*
X-78920Y-44658D01*
X-78930Y-44581D01*
X-78935Y-44504D01*
X-78937Y-44427D01*
X-77844Y-42896D02*
X-77704Y-42830D01*
X-77562Y-42767D01*
X-77419Y-42708D01*
X-77274Y-42652D01*
X-77129Y-42599D01*
X-76982Y-42550D01*
X-76834Y-42504D01*
X-76685Y-42462D01*
X-76535Y-42424D01*
X-76384Y-42389D01*
X-76232Y-42358D01*
X-76079Y-42330D01*
X-75926Y-42306D01*
X-75773Y-42286D01*
X-75619Y-42270D01*
X-75464Y-42257D01*
X-75310Y-42247D01*
X-75155Y-42242D01*
X-75000Y-42240D01*
X-77843Y-42896D02*
X-77916Y-42922D01*
X-77987Y-42953D01*
X-78056Y-42986D01*
X-78124Y-43023D01*
X-78190Y-43063D01*
X-78254Y-43106D01*
X-78316Y-43152D01*
X-78376Y-43201D01*
X-78433Y-43253D01*
X-78488Y-43308D01*
X-78540Y-43365D01*
X-78589Y-43424D01*
X-78635Y-43486D01*
X-78679Y-43550D01*
X-78719Y-43616D01*
X-78756Y-43684D01*
X-78790Y-43753D01*
X-78820Y-43824D01*
X-78848Y-43896D01*
X-78871Y-43970D01*
X-78891Y-44044D01*
X-78908Y-44120D01*
X-78920Y-44196D01*
X-78930Y-44273D01*
X-78935Y-44350D01*
X-78937Y-44427D01*
X-77187Y-46177D02*
X-72813Y-42678D01*
X-73688Y-37338D02*
X-78937Y-37338D01*
X-73688Y-37338D02*
X-73688Y-35151D01*
X-73690Y-35080D01*
X-73696Y-35009D01*
X-73705Y-34939D01*
X-73719Y-34869D01*
X-73736Y-34800D01*
X-73757Y-34732D01*
X-73781Y-34665D01*
X-73809Y-34600D01*
X-73841Y-34536D01*
X-73876Y-34475D01*
X-73914Y-34415D01*
X-73956Y-34357D01*
X-74000Y-34302D01*
X-74047Y-34249D01*
X-74098Y-34198D01*
X-74151Y-34151D01*
X-74206Y-34107D01*
X-74264Y-34065D01*
X-74324Y-34027D01*
X-74385Y-33992D01*
X-74449Y-33960D01*
X-74514Y-33932D01*
X-74581Y-33908D01*
X-74649Y-33887D01*
X-74718Y-33870D01*
X-74788Y-33856D01*
X-74858Y-33847D01*
X-74929Y-33841D01*
X-75000Y-33839D01*
X-75000Y-33838D02*
X-78937Y-33838D01*
X-78937Y-28597D02*
X-71063Y-28597D01*
X-71063Y-25097D01*
X-74563Y-25097D02*
X-74563Y-28597D01*
X206112Y377813D02*
X204362Y383937D01*
X206112Y377813D02*
X201737Y377813D01*
X203050Y379563D02*
X203050Y376063D01*
X196968Y383062D02*
X196968Y383937D01*
X192593Y383937D01*
X194781Y376063D01*
X187824Y380000D02*
X187822Y380155D01*
X187817Y380310D01*
X187807Y380464D01*
X187794Y380619D01*
X187778Y380773D01*
X187758Y380926D01*
X187734Y381079D01*
X187706Y381232D01*
X187675Y381384D01*
X187640Y381534D01*
X187602Y381685D01*
X187560Y381834D01*
X187514Y381982D01*
X187465Y382129D01*
X187412Y382274D01*
X187356Y382419D01*
X187297Y382562D01*
X187234Y382703D01*
X187168Y382843D01*
X187142Y382916D01*
X187111Y382987D01*
X187078Y383056D01*
X187041Y383124D01*
X187001Y383190D01*
X186958Y383254D01*
X186912Y383316D01*
X186863Y383376D01*
X186811Y383433D01*
X186756Y383488D01*
X186699Y383540D01*
X186640Y383589D01*
X186578Y383635D01*
X186514Y383679D01*
X186448Y383719D01*
X186380Y383756D01*
X186311Y383790D01*
X186240Y383820D01*
X186168Y383848D01*
X186094Y383871D01*
X186020Y383891D01*
X185944Y383908D01*
X185868Y383920D01*
X185791Y383930D01*
X185714Y383935D01*
X185637Y383937D01*
X185560Y383935D01*
X185483Y383930D01*
X185406Y383920D01*
X185330Y383908D01*
X185254Y383891D01*
X185180Y383871D01*
X185106Y383848D01*
X185034Y383820D01*
X184963Y383790D01*
X184894Y383756D01*
X184826Y383719D01*
X184760Y383679D01*
X184696Y383635D01*
X184634Y383589D01*
X184575Y383540D01*
X184518Y383488D01*
X184463Y383433D01*
X184411Y383376D01*
X184362Y383316D01*
X184316Y383254D01*
X184273Y383190D01*
X184233Y383124D01*
X184196Y383056D01*
X184163Y382987D01*
X184132Y382916D01*
X184106Y382843D01*
X184105Y382844D02*
X184039Y382704D01*
X183976Y382562D01*
X183917Y382419D01*
X183861Y382274D01*
X183808Y382129D01*
X183759Y381982D01*
X183713Y381834D01*
X183671Y381685D01*
X183633Y381535D01*
X183598Y381384D01*
X183567Y381232D01*
X183539Y381079D01*
X183515Y380926D01*
X183495Y380773D01*
X183479Y380619D01*
X183466Y380464D01*
X183456Y380310D01*
X183451Y380155D01*
X183449Y380000D01*
X187824Y380000D02*
X187822Y379845D01*
X187817Y379690D01*
X187807Y379536D01*
X187794Y379381D01*
X187778Y379227D01*
X187758Y379074D01*
X187734Y378921D01*
X187706Y378768D01*
X187675Y378617D01*
X187640Y378466D01*
X187602Y378316D01*
X187560Y378166D01*
X187514Y378018D01*
X187465Y377871D01*
X187412Y377726D01*
X187356Y377581D01*
X187297Y377438D01*
X187234Y377297D01*
X187168Y377157D01*
X187142Y377084D01*
X187111Y377013D01*
X187078Y376944D01*
X187041Y376876D01*
X187001Y376810D01*
X186958Y376746D01*
X186912Y376684D01*
X186863Y376624D01*
X186811Y376567D01*
X186756Y376512D01*
X186699Y376460D01*
X186640Y376411D01*
X186578Y376365D01*
X186514Y376321D01*
X186448Y376281D01*
X186380Y376244D01*
X186311Y376210D01*
X186240Y376180D01*
X186168Y376152D01*
X186094Y376129D01*
X186020Y376109D01*
X185944Y376092D01*
X185868Y376080D01*
X185791Y376070D01*
X185714Y376065D01*
X185637Y376063D01*
X184105Y377156D02*
X184039Y377297D01*
X183976Y377438D01*
X183917Y377581D01*
X183861Y377726D01*
X183808Y377871D01*
X183759Y378018D01*
X183713Y378166D01*
X183671Y378315D01*
X183633Y378465D01*
X183598Y378616D01*
X183567Y378768D01*
X183539Y378921D01*
X183515Y379074D01*
X183495Y379227D01*
X183479Y379381D01*
X183466Y379536D01*
X183456Y379690D01*
X183451Y379845D01*
X183449Y380000D01*
X184106Y377157D02*
X184132Y377084D01*
X184163Y377013D01*
X184196Y376944D01*
X184233Y376876D01*
X184273Y376810D01*
X184316Y376746D01*
X184362Y376684D01*
X184411Y376624D01*
X184463Y376567D01*
X184518Y376512D01*
X184575Y376460D01*
X184634Y376411D01*
X184696Y376365D01*
X184760Y376321D01*
X184826Y376281D01*
X184894Y376244D01*
X184963Y376210D01*
X185034Y376180D01*
X185106Y376152D01*
X185180Y376129D01*
X185254Y376109D01*
X185330Y376092D01*
X185406Y376080D01*
X185483Y376070D01*
X185560Y376065D01*
X185637Y376063D01*
X187386Y377813D02*
X183887Y382187D01*
X178263Y383937D02*
X178263Y376063D01*
X178263Y383937D02*
X176075Y383937D01*
X175982Y383935D01*
X175890Y383929D01*
X175797Y383919D01*
X175705Y383906D01*
X175614Y383888D01*
X175524Y383866D01*
X175435Y383841D01*
X175346Y383812D01*
X175260Y383779D01*
X175174Y383743D01*
X175090Y383703D01*
X175008Y383659D01*
X174928Y383612D01*
X174850Y383562D01*
X174775Y383508D01*
X174701Y383452D01*
X174630Y383392D01*
X174562Y383329D01*
X174496Y383263D01*
X174433Y383195D01*
X174373Y383124D01*
X174317Y383050D01*
X174263Y382975D01*
X174213Y382897D01*
X174166Y382817D01*
X174122Y382735D01*
X174082Y382651D01*
X174046Y382565D01*
X174013Y382479D01*
X173984Y382390D01*
X173959Y382301D01*
X173937Y382211D01*
X173919Y382120D01*
X173906Y382028D01*
X173896Y381935D01*
X173890Y381843D01*
X173888Y381750D01*
X173890Y381657D01*
X173896Y381565D01*
X173906Y381472D01*
X173919Y381380D01*
X173937Y381289D01*
X173959Y381199D01*
X173984Y381110D01*
X174013Y381021D01*
X174046Y380935D01*
X174082Y380849D01*
X174122Y380765D01*
X174166Y380683D01*
X174213Y380603D01*
X174263Y380525D01*
X174317Y380450D01*
X174373Y380376D01*
X174433Y380305D01*
X174496Y380237D01*
X174562Y380171D01*
X174630Y380108D01*
X174701Y380048D01*
X174775Y379992D01*
X174850Y379938D01*
X174928Y379888D01*
X175008Y379841D01*
X175090Y379797D01*
X175174Y379757D01*
X175260Y379721D01*
X175346Y379688D01*
X175435Y379659D01*
X175524Y379634D01*
X175614Y379612D01*
X175705Y379594D01*
X175797Y379581D01*
X175890Y379571D01*
X175982Y379565D01*
X176075Y379563D01*
X178263Y379563D01*
X175638Y379563D02*
X173888Y376063D01*
D12*
X-27766Y46510D02*
X-27766Y13490D01*
X37766Y13490D01*
X37766Y46510D01*
X-27766Y46510D01*
D13*
X24800Y113000D02*
X24800Y127000D01*
X24800Y113000D02*
X35100Y113000D01*
X55200Y113000D02*
X55200Y127000D01*
X55200Y113000D02*
X44900Y113000D01*
D14*
X29000Y140000D02*
X29002Y140063D01*
X29008Y140125D01*
X29018Y140187D01*
X29031Y140249D01*
X29049Y140309D01*
X29070Y140368D01*
X29095Y140426D01*
X29124Y140482D01*
X29156Y140536D01*
X29191Y140588D01*
X29229Y140637D01*
X29271Y140685D01*
X29315Y140729D01*
X29363Y140771D01*
X29412Y140809D01*
X29464Y140844D01*
X29518Y140876D01*
X29574Y140905D01*
X29632Y140930D01*
X29691Y140951D01*
X29751Y140969D01*
X29813Y140982D01*
X29875Y140992D01*
X29937Y140998D01*
X30000Y141000D01*
X30063Y140998D01*
X30125Y140992D01*
X30187Y140982D01*
X30249Y140969D01*
X30309Y140951D01*
X30368Y140930D01*
X30426Y140905D01*
X30482Y140876D01*
X30536Y140844D01*
X30588Y140809D01*
X30637Y140771D01*
X30685Y140729D01*
X30729Y140685D01*
X30771Y140637D01*
X30809Y140588D01*
X30844Y140536D01*
X30876Y140482D01*
X30905Y140426D01*
X30930Y140368D01*
X30951Y140309D01*
X30969Y140249D01*
X30982Y140187D01*
X30992Y140125D01*
X30998Y140063D01*
X31000Y140000D01*
X30998Y139937D01*
X30992Y139875D01*
X30982Y139813D01*
X30969Y139751D01*
X30951Y139691D01*
X30930Y139632D01*
X30905Y139574D01*
X30876Y139518D01*
X30844Y139464D01*
X30809Y139412D01*
X30771Y139363D01*
X30729Y139315D01*
X30685Y139271D01*
X30637Y139229D01*
X30588Y139191D01*
X30536Y139156D01*
X30482Y139124D01*
X30426Y139095D01*
X30368Y139070D01*
X30309Y139049D01*
X30249Y139031D01*
X30187Y139018D01*
X30125Y139008D01*
X30063Y139002D01*
X30000Y139000D01*
X29937Y139002D01*
X29875Y139008D01*
X29813Y139018D01*
X29751Y139031D01*
X29691Y139049D01*
X29632Y139070D01*
X29574Y139095D01*
X29518Y139124D01*
X29464Y139156D01*
X29412Y139191D01*
X29363Y139229D01*
X29315Y139271D01*
X29271Y139315D01*
X29229Y139363D01*
X29191Y139412D01*
X29156Y139464D01*
X29124Y139518D01*
X29095Y139574D01*
X29070Y139632D01*
X29049Y139691D01*
X29031Y139751D01*
X29018Y139813D01*
X29008Y139875D01*
X29002Y139937D01*
X29000Y140000D01*
D10*
X-167300Y58250D02*
X-167300Y45550D01*
X-167300Y58250D02*
X-173650Y64600D01*
X-186350Y64600D02*
X-192700Y58250D01*
X-173650Y64600D02*
X-167300Y70950D01*
X-167300Y83650D01*
X-173650Y90000D01*
X-186350Y90000D02*
X-192700Y83650D01*
X-192700Y70950D01*
X-186350Y64600D01*
X-186350Y39200D02*
X-173650Y39200D01*
X-167300Y45550D01*
X-186350Y39200D02*
X-192700Y45550D01*
X-192700Y58250D01*
X-173650Y90000D02*
X-167300Y96350D01*
X-167300Y109050D01*
X-173650Y115400D01*
X-186350Y115400D02*
X-192700Y109050D01*
X-192700Y96350D01*
X-186350Y90000D01*
X-167300Y121750D02*
X-167300Y134450D01*
X-173650Y140800D01*
X-186350Y140800D01*
X-192700Y134450D01*
X-173650Y115400D02*
X-167300Y121750D01*
X-186350Y115400D02*
X-192700Y121750D01*
X-192700Y134450D01*
D15*
X-174285Y31580D02*
X-176825Y28405D01*
X-174285Y31580D02*
X-185715Y31580D01*
X-185715Y28405D02*
X-185715Y34755D01*
X-183175Y143975D02*
X-174285Y146515D01*
X-183175Y143975D02*
X-183175Y150325D01*
X-180635Y148420D02*
X-185715Y148420D01*
D10*
X80000Y64544D02*
X80000Y56924D01*
X76190Y60734D02*
X83810Y60734D01*
X88890Y31270D02*
X88890Y28730D01*
X71110Y28730D02*
X71110Y31270D01*
X-57982Y60988D02*
X-59506Y60988D01*
X-90494Y-988D02*
X-92018Y-988D01*
X-75000Y-12926D02*
X-75000Y-20546D01*
X-71190Y-16736D02*
X-78810Y-16736D01*
X-92018Y-988D02*
X-92018Y60988D01*
X-90494Y60988D01*
X-57982Y60988D02*
X-57982Y-988D01*
X-59506Y-988D01*
M02*
