G04 EAGLE Gerber RS-274X export*
G75*
%MOMM*%
%FSLAX34Y34*%
%LPD*%
%INSolderpaste Top*%
%IPPOS*%
%AMOC8*
5,1,8,0,0,1.08239X$1,22.5*%
G01*
%ADD10R,1.300000X1.500000*%
%ADD11R,1.500000X1.300000*%
%ADD12R,1.000000X1.100000*%
%ADD13R,0.400000X1.350000*%

G36*
X-23750Y124221D02*
X-23750Y124221D01*
X-23743Y124226D01*
X-23739Y124222D01*
X-23495Y124280D01*
X-23491Y124285D01*
X-23487Y124283D01*
X-23255Y124379D01*
X-23252Y124384D01*
X-23248Y124382D01*
X-23034Y124514D01*
X-23032Y124519D01*
X-23028Y124519D01*
X-22837Y124682D01*
X-22836Y124687D01*
X-22832Y124687D01*
X-22669Y124878D01*
X-22668Y124884D01*
X-22664Y124884D01*
X-22532Y125098D01*
X-22533Y125104D01*
X-22529Y125105D01*
X-22433Y125337D01*
X-22434Y125343D01*
X-22430Y125345D01*
X-22372Y125589D01*
X-22374Y125594D01*
X-22371Y125596D01*
X-22351Y125846D01*
X-22353Y125849D01*
X-22351Y125850D01*
X-22351Y133650D01*
X-22353Y133652D01*
X-22351Y133654D01*
X-22371Y133904D01*
X-22375Y133908D01*
X-22372Y133911D01*
X-22430Y134155D01*
X-22435Y134159D01*
X-22433Y134163D01*
X-22529Y134395D01*
X-22534Y134398D01*
X-22532Y134402D01*
X-22664Y134616D01*
X-22669Y134618D01*
X-22669Y134622D01*
X-22832Y134813D01*
X-22837Y134814D01*
X-22837Y134818D01*
X-23028Y134981D01*
X-23034Y134982D01*
X-23034Y134986D01*
X-23248Y135118D01*
X-23254Y135117D01*
X-23255Y135122D01*
X-23487Y135218D01*
X-23493Y135216D01*
X-23495Y135220D01*
X-23739Y135278D01*
X-23744Y135276D01*
X-23746Y135279D01*
X-23996Y135299D01*
X-23999Y135297D01*
X-24000Y135299D01*
X-27250Y135279D01*
X-27257Y135274D01*
X-27261Y135278D01*
X-27505Y135220D01*
X-27509Y135215D01*
X-27513Y135218D01*
X-27745Y135122D01*
X-27748Y135116D01*
X-27752Y135118D01*
X-27966Y134986D01*
X-27968Y134981D01*
X-27972Y134981D01*
X-28163Y134818D01*
X-28164Y134813D01*
X-28168Y134813D01*
X-28331Y134622D01*
X-28332Y134616D01*
X-28336Y134616D01*
X-28468Y134402D01*
X-28467Y134396D01*
X-28472Y134395D01*
X-28568Y134163D01*
X-28566Y134157D01*
X-28570Y134155D01*
X-28628Y133911D01*
X-28626Y133906D01*
X-28629Y133904D01*
X-28649Y133654D01*
X-28647Y133651D01*
X-28649Y133650D01*
X-28649Y125850D01*
X-28647Y125848D01*
X-28649Y125846D01*
X-28629Y125596D01*
X-28625Y125592D01*
X-28628Y125589D01*
X-28570Y125345D01*
X-28565Y125341D01*
X-28568Y125337D01*
X-28472Y125105D01*
X-28466Y125102D01*
X-28468Y125098D01*
X-28336Y124884D01*
X-28331Y124882D01*
X-28331Y124878D01*
X-28168Y124687D01*
X-28163Y124686D01*
X-28163Y124682D01*
X-27972Y124519D01*
X-27966Y124518D01*
X-27966Y124514D01*
X-27752Y124382D01*
X-27746Y124383D01*
X-27745Y124379D01*
X-27513Y124283D01*
X-27507Y124284D01*
X-27505Y124280D01*
X-27261Y124222D01*
X-27256Y124224D01*
X-27254Y124221D01*
X-27004Y124201D01*
X-27001Y124203D01*
X-27000Y124201D01*
X-23750Y124221D01*
G37*
G36*
X-42750Y124221D02*
X-42750Y124221D01*
X-42743Y124226D01*
X-42739Y124222D01*
X-42495Y124280D01*
X-42491Y124285D01*
X-42487Y124283D01*
X-42255Y124379D01*
X-42252Y124384D01*
X-42248Y124382D01*
X-42034Y124514D01*
X-42032Y124519D01*
X-42028Y124519D01*
X-41837Y124682D01*
X-41836Y124687D01*
X-41832Y124687D01*
X-41669Y124878D01*
X-41668Y124884D01*
X-41664Y124884D01*
X-41532Y125098D01*
X-41533Y125104D01*
X-41529Y125105D01*
X-41433Y125337D01*
X-41434Y125343D01*
X-41430Y125345D01*
X-41372Y125589D01*
X-41374Y125594D01*
X-41371Y125596D01*
X-41351Y125846D01*
X-41353Y125849D01*
X-41351Y125850D01*
X-41351Y133650D01*
X-41353Y133652D01*
X-41351Y133654D01*
X-41371Y133904D01*
X-41375Y133908D01*
X-41372Y133911D01*
X-41430Y134155D01*
X-41435Y134159D01*
X-41433Y134163D01*
X-41529Y134395D01*
X-41534Y134398D01*
X-41532Y134402D01*
X-41664Y134616D01*
X-41669Y134618D01*
X-41669Y134622D01*
X-41832Y134813D01*
X-41837Y134814D01*
X-41837Y134818D01*
X-42028Y134981D01*
X-42034Y134982D01*
X-42034Y134986D01*
X-42248Y135118D01*
X-42254Y135117D01*
X-42255Y135122D01*
X-42487Y135218D01*
X-42493Y135216D01*
X-42495Y135220D01*
X-42739Y135278D01*
X-42744Y135276D01*
X-42746Y135279D01*
X-42996Y135299D01*
X-42999Y135297D01*
X-43000Y135299D01*
X-46250Y135279D01*
X-46257Y135274D01*
X-46261Y135278D01*
X-46505Y135220D01*
X-46509Y135215D01*
X-46513Y135218D01*
X-46745Y135122D01*
X-46748Y135116D01*
X-46752Y135118D01*
X-46966Y134986D01*
X-46968Y134981D01*
X-46972Y134981D01*
X-47163Y134818D01*
X-47164Y134813D01*
X-47168Y134813D01*
X-47331Y134622D01*
X-47332Y134616D01*
X-47336Y134616D01*
X-47468Y134402D01*
X-47467Y134396D01*
X-47472Y134395D01*
X-47568Y134163D01*
X-47566Y134157D01*
X-47570Y134155D01*
X-47628Y133911D01*
X-47626Y133906D01*
X-47629Y133904D01*
X-47649Y133654D01*
X-47647Y133651D01*
X-47649Y133650D01*
X-47649Y125850D01*
X-47647Y125848D01*
X-47649Y125846D01*
X-47629Y125596D01*
X-47625Y125592D01*
X-47628Y125589D01*
X-47570Y125345D01*
X-47565Y125341D01*
X-47568Y125337D01*
X-47472Y125105D01*
X-47466Y125102D01*
X-47468Y125098D01*
X-47336Y124884D01*
X-47331Y124882D01*
X-47331Y124878D01*
X-47168Y124687D01*
X-47163Y124686D01*
X-47163Y124682D01*
X-46972Y124519D01*
X-46966Y124518D01*
X-46966Y124514D01*
X-46752Y124382D01*
X-46746Y124383D01*
X-46745Y124379D01*
X-46513Y124283D01*
X-46507Y124284D01*
X-46505Y124280D01*
X-46261Y124222D01*
X-46256Y124224D01*
X-46254Y124221D01*
X-46004Y124201D01*
X-46001Y124203D01*
X-46000Y124201D01*
X-42750Y124221D01*
G37*
G36*
X-33250Y104721D02*
X-33250Y104721D01*
X-33243Y104726D01*
X-33239Y104722D01*
X-32995Y104780D01*
X-32991Y104785D01*
X-32987Y104783D01*
X-32755Y104879D01*
X-32752Y104884D01*
X-32748Y104882D01*
X-32534Y105014D01*
X-32532Y105019D01*
X-32528Y105019D01*
X-32337Y105182D01*
X-32336Y105187D01*
X-32332Y105187D01*
X-32169Y105378D01*
X-32168Y105384D01*
X-32164Y105384D01*
X-32032Y105598D01*
X-32033Y105604D01*
X-32029Y105605D01*
X-31933Y105837D01*
X-31934Y105843D01*
X-31930Y105845D01*
X-31872Y106089D01*
X-31874Y106094D01*
X-31871Y106096D01*
X-31851Y106346D01*
X-31853Y106349D01*
X-31851Y106350D01*
X-31851Y114150D01*
X-31853Y114152D01*
X-31851Y114154D01*
X-31871Y114404D01*
X-31875Y114408D01*
X-31872Y114411D01*
X-31930Y114655D01*
X-31935Y114659D01*
X-31933Y114663D01*
X-32029Y114895D01*
X-32034Y114898D01*
X-32032Y114902D01*
X-32164Y115116D01*
X-32169Y115118D01*
X-32169Y115122D01*
X-32332Y115313D01*
X-32337Y115314D01*
X-32337Y115318D01*
X-32528Y115481D01*
X-32534Y115482D01*
X-32534Y115486D01*
X-32748Y115618D01*
X-32754Y115617D01*
X-32755Y115622D01*
X-32987Y115718D01*
X-32993Y115716D01*
X-32995Y115720D01*
X-33239Y115778D01*
X-33244Y115776D01*
X-33246Y115779D01*
X-33496Y115799D01*
X-33499Y115797D01*
X-33500Y115799D01*
X-36750Y115779D01*
X-36757Y115774D01*
X-36761Y115778D01*
X-37005Y115720D01*
X-37009Y115715D01*
X-37013Y115718D01*
X-37245Y115622D01*
X-37248Y115616D01*
X-37252Y115618D01*
X-37466Y115486D01*
X-37468Y115481D01*
X-37472Y115481D01*
X-37663Y115318D01*
X-37664Y115313D01*
X-37668Y115313D01*
X-37831Y115122D01*
X-37832Y115116D01*
X-37836Y115116D01*
X-37968Y114902D01*
X-37967Y114896D01*
X-37972Y114895D01*
X-38068Y114663D01*
X-38066Y114657D01*
X-38070Y114655D01*
X-38128Y114411D01*
X-38126Y114406D01*
X-38129Y114404D01*
X-38149Y114154D01*
X-38147Y114151D01*
X-38149Y114150D01*
X-38149Y106350D01*
X-38147Y106348D01*
X-38149Y106346D01*
X-38129Y106096D01*
X-38125Y106092D01*
X-38128Y106089D01*
X-38070Y105845D01*
X-38065Y105841D01*
X-38068Y105837D01*
X-37972Y105605D01*
X-37966Y105602D01*
X-37968Y105598D01*
X-37836Y105384D01*
X-37831Y105382D01*
X-37831Y105378D01*
X-37668Y105187D01*
X-37663Y105186D01*
X-37663Y105182D01*
X-37472Y105019D01*
X-37466Y105018D01*
X-37466Y105014D01*
X-37252Y104882D01*
X-37246Y104883D01*
X-37245Y104879D01*
X-37013Y104783D01*
X-37007Y104784D01*
X-37005Y104780D01*
X-36761Y104722D01*
X-36756Y104724D01*
X-36754Y104721D01*
X-36504Y104701D01*
X-36501Y104703D01*
X-36500Y104701D01*
X-33250Y104721D01*
G37*
D10*
X-44500Y155000D03*
X-25500Y155000D03*
X-34500Y90000D03*
X-15500Y90000D03*
D11*
X-136580Y-339730D03*
X-136580Y-320730D03*
X-114080Y-320730D03*
X-114080Y-339730D03*
D12*
X-114307Y-263500D03*
X-114307Y-246500D03*
D11*
X-184080Y-339730D03*
X-184080Y-320730D03*
X-161580Y-320730D03*
X-161580Y-339730D03*
D12*
X-139615Y-263346D03*
X-139615Y-246346D03*
D11*
X-19080Y-339730D03*
X-19080Y-320730D03*
X-41580Y-320730D03*
X-41580Y-339730D03*
D12*
X-63614Y-263654D03*
X-63614Y-246654D03*
D11*
X-66580Y-339730D03*
X-66580Y-320730D03*
X-89080Y-320730D03*
X-89080Y-339730D03*
D12*
X-89076Y-263423D03*
X-89076Y-246423D03*
D11*
X-38011Y-169500D03*
X-38011Y-150500D03*
X-63416Y-169500D03*
X-63416Y-150500D03*
X-114178Y-169441D03*
X-114178Y-150441D03*
X-89000Y-169500D03*
X-89000Y-150500D03*
X-139703Y-169441D03*
X-139703Y-150441D03*
X-12368Y-169560D03*
X-12368Y-150560D03*
X90000Y-300500D03*
X90000Y-319500D03*
X65000Y-300500D03*
X65000Y-319500D03*
D13*
X13000Y366750D03*
X6500Y366750D03*
X0Y366750D03*
X-6500Y366750D03*
X-13000Y366750D03*
M02*
