G04 EAGLE Gerber RS-274X export*
G75*
%MOMM*%
%FSLAX34Y34*%
%LPD*%
%INSoldermask Bottom*%
%IPPOS*%
%AMOC8*
5,1,8,0,0,1.08239X$1,22.5*%
G01*
%ADD10C,3.403200*%
%ADD11C,2.489200*%
%ADD12C,1.981200*%
%ADD13C,1.311200*%
%ADD14C,1.711200*%
%ADD15C,1.727200*%
%ADD16C,3.319200*%
%ADD17R,1.422400X2.438400*%
%ADD18R,3.803200X2.403200*%
%ADD19R,1.703200X1.503200*%
%ADD20R,1.503200X1.703200*%
%ADD21C,2.303200*%
%ADD22C,2.453200*%
%ADD23C,1.411200*%
%ADD24P,1.649562X8X22.500000*%
%ADD25C,0.959600*%

G36*
X27002Y124203D02*
X27002Y124203D01*
X27004Y124201D01*
X27254Y124221D01*
X27258Y124225D01*
X27261Y124222D01*
X27505Y124280D01*
X27509Y124285D01*
X27513Y124283D01*
X27745Y124379D01*
X27748Y124384D01*
X27752Y124382D01*
X27966Y124514D01*
X27968Y124519D01*
X27972Y124519D01*
X28163Y124682D01*
X28164Y124687D01*
X28168Y124687D01*
X28331Y124878D01*
X28332Y124884D01*
X28336Y124884D01*
X28468Y125098D01*
X28467Y125104D01*
X28472Y125105D01*
X28568Y125337D01*
X28566Y125343D01*
X28570Y125345D01*
X28628Y125589D01*
X28626Y125594D01*
X28629Y125596D01*
X28649Y125846D01*
X28647Y125849D01*
X28649Y125850D01*
X28649Y133650D01*
X28647Y133652D01*
X28649Y133654D01*
X28629Y133904D01*
X28625Y133908D01*
X28628Y133911D01*
X28570Y134155D01*
X28565Y134159D01*
X28568Y134163D01*
X28472Y134395D01*
X28466Y134398D01*
X28468Y134402D01*
X28336Y134616D01*
X28331Y134618D01*
X28331Y134622D01*
X28168Y134813D01*
X28163Y134814D01*
X28163Y134818D01*
X27972Y134981D01*
X27966Y134982D01*
X27966Y134986D01*
X27752Y135118D01*
X27746Y135117D01*
X27745Y135122D01*
X27513Y135218D01*
X27507Y135216D01*
X27505Y135220D01*
X27261Y135278D01*
X27254Y135275D01*
X27250Y135279D01*
X24000Y135299D01*
X23998Y135297D01*
X23996Y135299D01*
X23746Y135279D01*
X23742Y135275D01*
X23739Y135278D01*
X23495Y135220D01*
X23491Y135215D01*
X23487Y135218D01*
X23255Y135122D01*
X23252Y135116D01*
X23248Y135118D01*
X23034Y134986D01*
X23032Y134981D01*
X23028Y134981D01*
X22837Y134818D01*
X22836Y134813D01*
X22832Y134813D01*
X22669Y134622D01*
X22668Y134616D01*
X22664Y134616D01*
X22532Y134402D01*
X22533Y134396D01*
X22529Y134395D01*
X22433Y134163D01*
X22434Y134157D01*
X22430Y134155D01*
X22372Y133911D01*
X22374Y133906D01*
X22371Y133904D01*
X22351Y133654D01*
X22353Y133651D01*
X22351Y133650D01*
X22351Y125850D01*
X22353Y125848D01*
X22351Y125846D01*
X22371Y125596D01*
X22375Y125592D01*
X22372Y125589D01*
X22430Y125345D01*
X22435Y125341D01*
X22433Y125337D01*
X22529Y125105D01*
X22534Y125102D01*
X22532Y125098D01*
X22664Y124884D01*
X22669Y124882D01*
X22669Y124878D01*
X22832Y124687D01*
X22837Y124686D01*
X22837Y124682D01*
X23028Y124519D01*
X23034Y124518D01*
X23034Y124514D01*
X23248Y124382D01*
X23254Y124383D01*
X23255Y124379D01*
X23487Y124283D01*
X23493Y124284D01*
X23495Y124280D01*
X23739Y124222D01*
X23746Y124225D01*
X23750Y124221D01*
X27000Y124201D01*
X27002Y124203D01*
G37*
G36*
X46002Y124203D02*
X46002Y124203D01*
X46004Y124201D01*
X46254Y124221D01*
X46258Y124225D01*
X46261Y124222D01*
X46505Y124280D01*
X46509Y124285D01*
X46513Y124283D01*
X46745Y124379D01*
X46748Y124384D01*
X46752Y124382D01*
X46966Y124514D01*
X46968Y124519D01*
X46972Y124519D01*
X47163Y124682D01*
X47164Y124687D01*
X47168Y124687D01*
X47331Y124878D01*
X47332Y124884D01*
X47336Y124884D01*
X47468Y125098D01*
X47467Y125104D01*
X47472Y125105D01*
X47568Y125337D01*
X47566Y125343D01*
X47570Y125345D01*
X47628Y125589D01*
X47626Y125594D01*
X47629Y125596D01*
X47649Y125846D01*
X47647Y125849D01*
X47649Y125850D01*
X47649Y133650D01*
X47647Y133652D01*
X47649Y133654D01*
X47629Y133904D01*
X47625Y133908D01*
X47628Y133911D01*
X47570Y134155D01*
X47565Y134159D01*
X47568Y134163D01*
X47472Y134395D01*
X47466Y134398D01*
X47468Y134402D01*
X47336Y134616D01*
X47331Y134618D01*
X47331Y134622D01*
X47168Y134813D01*
X47163Y134814D01*
X47163Y134818D01*
X46972Y134981D01*
X46966Y134982D01*
X46966Y134986D01*
X46752Y135118D01*
X46746Y135117D01*
X46745Y135122D01*
X46513Y135218D01*
X46507Y135216D01*
X46505Y135220D01*
X46261Y135278D01*
X46254Y135275D01*
X46250Y135279D01*
X43000Y135299D01*
X42998Y135297D01*
X42996Y135299D01*
X42746Y135279D01*
X42742Y135275D01*
X42739Y135278D01*
X42495Y135220D01*
X42491Y135215D01*
X42487Y135218D01*
X42255Y135122D01*
X42252Y135116D01*
X42248Y135118D01*
X42034Y134986D01*
X42032Y134981D01*
X42028Y134981D01*
X41837Y134818D01*
X41836Y134813D01*
X41832Y134813D01*
X41669Y134622D01*
X41668Y134616D01*
X41664Y134616D01*
X41532Y134402D01*
X41533Y134396D01*
X41529Y134395D01*
X41433Y134163D01*
X41434Y134157D01*
X41430Y134155D01*
X41372Y133911D01*
X41374Y133906D01*
X41371Y133904D01*
X41351Y133654D01*
X41353Y133651D01*
X41351Y133650D01*
X41351Y125850D01*
X41353Y125848D01*
X41351Y125846D01*
X41371Y125596D01*
X41375Y125592D01*
X41372Y125589D01*
X41430Y125345D01*
X41435Y125341D01*
X41433Y125337D01*
X41529Y125105D01*
X41534Y125102D01*
X41532Y125098D01*
X41664Y124884D01*
X41669Y124882D01*
X41669Y124878D01*
X41832Y124687D01*
X41837Y124686D01*
X41837Y124682D01*
X42028Y124519D01*
X42034Y124518D01*
X42034Y124514D01*
X42248Y124382D01*
X42254Y124383D01*
X42255Y124379D01*
X42487Y124283D01*
X42493Y124284D01*
X42495Y124280D01*
X42739Y124222D01*
X42746Y124225D01*
X42750Y124221D01*
X46000Y124201D01*
X46002Y124203D01*
G37*
G36*
X36502Y104703D02*
X36502Y104703D01*
X36504Y104701D01*
X36754Y104721D01*
X36758Y104725D01*
X36761Y104722D01*
X37005Y104780D01*
X37009Y104785D01*
X37013Y104783D01*
X37245Y104879D01*
X37248Y104884D01*
X37252Y104882D01*
X37466Y105014D01*
X37468Y105019D01*
X37472Y105019D01*
X37663Y105182D01*
X37664Y105187D01*
X37668Y105187D01*
X37831Y105378D01*
X37832Y105384D01*
X37836Y105384D01*
X37968Y105598D01*
X37967Y105604D01*
X37972Y105605D01*
X38068Y105837D01*
X38066Y105843D01*
X38070Y105845D01*
X38128Y106089D01*
X38126Y106094D01*
X38129Y106096D01*
X38149Y106346D01*
X38147Y106349D01*
X38149Y106350D01*
X38149Y114150D01*
X38147Y114152D01*
X38149Y114154D01*
X38129Y114404D01*
X38125Y114408D01*
X38128Y114411D01*
X38070Y114655D01*
X38065Y114659D01*
X38068Y114663D01*
X37972Y114895D01*
X37966Y114898D01*
X37968Y114902D01*
X37836Y115116D01*
X37831Y115118D01*
X37831Y115122D01*
X37668Y115313D01*
X37663Y115314D01*
X37663Y115318D01*
X37472Y115481D01*
X37466Y115482D01*
X37466Y115486D01*
X37252Y115618D01*
X37246Y115617D01*
X37245Y115622D01*
X37013Y115718D01*
X37007Y115716D01*
X37005Y115720D01*
X36761Y115778D01*
X36754Y115775D01*
X36750Y115779D01*
X33500Y115799D01*
X33498Y115797D01*
X33496Y115799D01*
X33246Y115779D01*
X33242Y115775D01*
X33239Y115778D01*
X32995Y115720D01*
X32991Y115715D01*
X32987Y115718D01*
X32755Y115622D01*
X32752Y115616D01*
X32748Y115618D01*
X32534Y115486D01*
X32532Y115481D01*
X32528Y115481D01*
X32337Y115318D01*
X32336Y115313D01*
X32332Y115313D01*
X32169Y115122D01*
X32168Y115116D01*
X32164Y115116D01*
X32032Y114902D01*
X32033Y114896D01*
X32029Y114895D01*
X31933Y114663D01*
X31934Y114657D01*
X31930Y114655D01*
X31872Y114411D01*
X31874Y114406D01*
X31871Y114404D01*
X31851Y114154D01*
X31853Y114151D01*
X31851Y114150D01*
X31851Y106350D01*
X31853Y106348D01*
X31851Y106346D01*
X31871Y106096D01*
X31875Y106092D01*
X31872Y106089D01*
X31930Y105845D01*
X31935Y105841D01*
X31933Y105837D01*
X32029Y105605D01*
X32034Y105602D01*
X32032Y105598D01*
X32164Y105384D01*
X32169Y105382D01*
X32169Y105378D01*
X32332Y105187D01*
X32337Y105186D01*
X32337Y105182D01*
X32528Y105019D01*
X32534Y105018D01*
X32534Y105014D01*
X32748Y104882D01*
X32754Y104883D01*
X32755Y104879D01*
X32987Y104783D01*
X32993Y104784D01*
X32995Y104780D01*
X33239Y104722D01*
X33246Y104725D01*
X33250Y104721D01*
X36500Y104701D01*
X36502Y104703D01*
G37*
D10*
X-650000Y-335000D03*
X650000Y-335000D03*
X550000Y315000D03*
X-550000Y315000D03*
D11*
X423800Y181675D03*
X576200Y181675D03*
X576200Y48325D03*
X423800Y48325D03*
D12*
X525400Y13400D03*
X500000Y13400D03*
X474600Y13400D03*
X398400Y115000D03*
X398400Y89600D03*
X398400Y140400D03*
X531750Y191200D03*
X468250Y191200D03*
X468250Y242000D03*
X531750Y242000D03*
D11*
X-576200Y181675D03*
X-423800Y181675D03*
X-423800Y48325D03*
X-576200Y48325D03*
D12*
X-474600Y13400D03*
X-500000Y13400D03*
X-525400Y13400D03*
X-601600Y115000D03*
X-601600Y89600D03*
X-601600Y140400D03*
X-468250Y191200D03*
X-531750Y191200D03*
X-531750Y242000D03*
X-468250Y242000D03*
D13*
X139700Y-128800D03*
X114300Y-128800D03*
X88900Y-128800D03*
X63500Y-128800D03*
X38100Y-128800D03*
X12700Y-128800D03*
X-12700Y-128800D03*
X-38100Y-128800D03*
X-63500Y-128800D03*
X-88900Y-128800D03*
X-114300Y-128800D03*
X-139700Y-128800D03*
X139700Y-281200D03*
X114300Y-281200D03*
X88900Y-281200D03*
X63500Y-281200D03*
X38100Y-281200D03*
X12700Y-281200D03*
X-12700Y-281200D03*
X-38100Y-281200D03*
X-63500Y-281200D03*
X-88900Y-281200D03*
X-114300Y-281200D03*
X-139700Y-281200D03*
D14*
X109982Y30000D03*
X109982Y50000D03*
X109982Y70000D03*
X109982Y90000D03*
X109982Y110000D03*
X109982Y130000D03*
X109982Y150000D03*
X109982Y170000D03*
X109982Y190000D03*
X109982Y210000D03*
X-109982Y30000D03*
X-109982Y50000D03*
X-109982Y70000D03*
X-109982Y90000D03*
X-109982Y110000D03*
X-109982Y130000D03*
X-109982Y150000D03*
X-109982Y170000D03*
X-109982Y190000D03*
X-109982Y210000D03*
D15*
X-504892Y-272394D02*
X-520132Y-272394D01*
X-520132Y-317606D02*
X-504892Y-317606D01*
X-455108Y-272394D02*
X-439868Y-272394D01*
X-439868Y-317606D02*
X-455108Y-317606D01*
X-459892Y-162394D02*
X-475132Y-162394D01*
X-475132Y-207606D02*
X-459892Y-207606D01*
X-410108Y-162394D02*
X-394868Y-162394D01*
X-394868Y-207606D02*
X-410108Y-207606D01*
X394868Y-162394D02*
X410108Y-162394D01*
X410108Y-207606D02*
X394868Y-207606D01*
X459892Y-162394D02*
X475132Y-162394D01*
X475132Y-207606D02*
X459892Y-207606D01*
X455108Y-272394D02*
X439868Y-272394D01*
X439868Y-317606D02*
X455108Y-317606D01*
X504892Y-272394D02*
X520132Y-272394D01*
X520132Y-317606D02*
X504892Y-317606D01*
D16*
X-447000Y299420D02*
X-447000Y330580D01*
X-400000Y330580D02*
X-400000Y299420D01*
X-353000Y299420D02*
X-353000Y330580D01*
X447000Y330580D02*
X447000Y299420D01*
X400000Y299420D02*
X400000Y330580D01*
X353000Y330580D02*
X353000Y299420D01*
D17*
X-38114Y30988D03*
X-15000Y30988D03*
X8114Y30988D03*
D18*
X-15000Y-30990D03*
D19*
X55000Y49500D03*
X55000Y30500D03*
X-85000Y49500D03*
X-85000Y30500D03*
D20*
X44500Y155000D03*
X25500Y155000D03*
X34500Y90000D03*
X15500Y90000D03*
D19*
X30000Y49500D03*
X30000Y30500D03*
X-60000Y49500D03*
X-60000Y30500D03*
D21*
X219500Y215000D02*
X240500Y215000D01*
X240500Y245000D02*
X219500Y245000D01*
X219500Y275000D02*
X240500Y275000D01*
D22*
X-36000Y393500D03*
X36000Y393500D03*
D23*
X24250Y370540D02*
X24250Y358460D01*
X-24250Y358460D02*
X-24250Y370540D01*
D24*
X217300Y360000D03*
X242700Y360000D03*
D20*
X199500Y360000D03*
X180500Y360000D03*
D15*
X-137380Y51900D02*
X-152620Y51900D01*
X-152620Y77300D02*
X-137380Y77300D01*
X-137380Y102700D02*
X-152620Y102700D01*
X-152620Y128100D02*
X-137380Y128100D01*
D25*
X-10000Y155000D03*
X-85000Y15000D03*
X55000Y15000D03*
X45000Y70000D03*
X0Y90000D03*
X-184038Y-305064D03*
X-136602Y-305257D03*
X-66591Y-305535D03*
X-19145Y-305160D03*
M02*
