G04 EAGLE Gerber RS-274X export*
G75*
%MOMM*%
%FSLAX34Y34*%
%LPD*%
%INSolderpaste Bottom*%
%IPPOS*%
%AMOC8*
5,1,8,0,0,1.08239X$1,22.5*%
G01*
%ADD10R,1.219200X2.235200*%
%ADD11R,3.600000X2.200000*%
%ADD12R,1.300000X1.500000*%
%ADD13R,1.500000X1.300000*%
%ADD14R,1.397000X1.447800*%
%ADD15R,2.413000X2.260600*%

G36*
X32002Y124203D02*
X32002Y124203D01*
X32004Y124201D01*
X32254Y124221D01*
X32258Y124225D01*
X32261Y124222D01*
X32505Y124280D01*
X32509Y124285D01*
X32513Y124283D01*
X32745Y124379D01*
X32748Y124384D01*
X32752Y124382D01*
X32966Y124514D01*
X32968Y124519D01*
X32972Y124519D01*
X33163Y124682D01*
X33164Y124687D01*
X33168Y124687D01*
X33331Y124878D01*
X33332Y124884D01*
X33336Y124884D01*
X33468Y125098D01*
X33467Y125104D01*
X33472Y125105D01*
X33568Y125337D01*
X33566Y125343D01*
X33570Y125345D01*
X33628Y125589D01*
X33626Y125594D01*
X33629Y125596D01*
X33649Y125846D01*
X33647Y125849D01*
X33649Y125850D01*
X33649Y133650D01*
X33647Y133652D01*
X33649Y133654D01*
X33629Y133904D01*
X33625Y133908D01*
X33628Y133911D01*
X33570Y134155D01*
X33565Y134159D01*
X33568Y134163D01*
X33472Y134395D01*
X33466Y134398D01*
X33468Y134402D01*
X33336Y134616D01*
X33331Y134618D01*
X33331Y134622D01*
X33168Y134813D01*
X33163Y134814D01*
X33163Y134818D01*
X32972Y134981D01*
X32966Y134982D01*
X32966Y134986D01*
X32752Y135118D01*
X32746Y135117D01*
X32745Y135122D01*
X32513Y135218D01*
X32507Y135216D01*
X32505Y135220D01*
X32261Y135278D01*
X32254Y135275D01*
X32250Y135279D01*
X29000Y135299D01*
X28998Y135297D01*
X28996Y135299D01*
X28746Y135279D01*
X28742Y135275D01*
X28739Y135278D01*
X28495Y135220D01*
X28491Y135215D01*
X28487Y135218D01*
X28255Y135122D01*
X28252Y135116D01*
X28248Y135118D01*
X28034Y134986D01*
X28032Y134981D01*
X28028Y134981D01*
X27837Y134818D01*
X27836Y134813D01*
X27832Y134813D01*
X27669Y134622D01*
X27668Y134616D01*
X27664Y134616D01*
X27532Y134402D01*
X27533Y134396D01*
X27529Y134395D01*
X27433Y134163D01*
X27434Y134157D01*
X27430Y134155D01*
X27372Y133911D01*
X27374Y133906D01*
X27371Y133904D01*
X27351Y133654D01*
X27353Y133651D01*
X27351Y133650D01*
X27351Y125850D01*
X27353Y125848D01*
X27351Y125846D01*
X27371Y125596D01*
X27375Y125592D01*
X27372Y125589D01*
X27430Y125345D01*
X27435Y125341D01*
X27433Y125337D01*
X27529Y125105D01*
X27534Y125102D01*
X27532Y125098D01*
X27664Y124884D01*
X27669Y124882D01*
X27669Y124878D01*
X27832Y124687D01*
X27837Y124686D01*
X27837Y124682D01*
X28028Y124519D01*
X28034Y124518D01*
X28034Y124514D01*
X28248Y124382D01*
X28254Y124383D01*
X28255Y124379D01*
X28487Y124283D01*
X28493Y124284D01*
X28495Y124280D01*
X28739Y124222D01*
X28746Y124225D01*
X28750Y124221D01*
X32000Y124201D01*
X32002Y124203D01*
G37*
G36*
X51002Y124203D02*
X51002Y124203D01*
X51004Y124201D01*
X51254Y124221D01*
X51258Y124225D01*
X51261Y124222D01*
X51505Y124280D01*
X51509Y124285D01*
X51513Y124283D01*
X51745Y124379D01*
X51748Y124384D01*
X51752Y124382D01*
X51966Y124514D01*
X51968Y124519D01*
X51972Y124519D01*
X52163Y124682D01*
X52164Y124687D01*
X52168Y124687D01*
X52331Y124878D01*
X52332Y124884D01*
X52336Y124884D01*
X52468Y125098D01*
X52467Y125104D01*
X52472Y125105D01*
X52568Y125337D01*
X52566Y125343D01*
X52570Y125345D01*
X52628Y125589D01*
X52626Y125594D01*
X52629Y125596D01*
X52649Y125846D01*
X52647Y125849D01*
X52649Y125850D01*
X52649Y133650D01*
X52647Y133652D01*
X52649Y133654D01*
X52629Y133904D01*
X52625Y133908D01*
X52628Y133911D01*
X52570Y134155D01*
X52565Y134159D01*
X52568Y134163D01*
X52472Y134395D01*
X52466Y134398D01*
X52468Y134402D01*
X52336Y134616D01*
X52331Y134618D01*
X52331Y134622D01*
X52168Y134813D01*
X52163Y134814D01*
X52163Y134818D01*
X51972Y134981D01*
X51966Y134982D01*
X51966Y134986D01*
X51752Y135118D01*
X51746Y135117D01*
X51745Y135122D01*
X51513Y135218D01*
X51507Y135216D01*
X51505Y135220D01*
X51261Y135278D01*
X51254Y135275D01*
X51250Y135279D01*
X48000Y135299D01*
X47998Y135297D01*
X47996Y135299D01*
X47746Y135279D01*
X47742Y135275D01*
X47739Y135278D01*
X47495Y135220D01*
X47491Y135215D01*
X47487Y135218D01*
X47255Y135122D01*
X47252Y135116D01*
X47248Y135118D01*
X47034Y134986D01*
X47032Y134981D01*
X47028Y134981D01*
X46837Y134818D01*
X46836Y134813D01*
X46832Y134813D01*
X46669Y134622D01*
X46668Y134616D01*
X46664Y134616D01*
X46532Y134402D01*
X46533Y134396D01*
X46529Y134395D01*
X46433Y134163D01*
X46434Y134157D01*
X46430Y134155D01*
X46372Y133911D01*
X46374Y133906D01*
X46371Y133904D01*
X46351Y133654D01*
X46353Y133651D01*
X46351Y133650D01*
X46351Y125850D01*
X46353Y125848D01*
X46351Y125846D01*
X46371Y125596D01*
X46375Y125592D01*
X46372Y125589D01*
X46430Y125345D01*
X46435Y125341D01*
X46433Y125337D01*
X46529Y125105D01*
X46534Y125102D01*
X46532Y125098D01*
X46664Y124884D01*
X46669Y124882D01*
X46669Y124878D01*
X46832Y124687D01*
X46837Y124686D01*
X46837Y124682D01*
X47028Y124519D01*
X47034Y124518D01*
X47034Y124514D01*
X47248Y124382D01*
X47254Y124383D01*
X47255Y124379D01*
X47487Y124283D01*
X47493Y124284D01*
X47495Y124280D01*
X47739Y124222D01*
X47746Y124225D01*
X47750Y124221D01*
X51000Y124201D01*
X51002Y124203D01*
G37*
G36*
X41502Y104703D02*
X41502Y104703D01*
X41504Y104701D01*
X41754Y104721D01*
X41758Y104725D01*
X41761Y104722D01*
X42005Y104780D01*
X42009Y104785D01*
X42013Y104783D01*
X42245Y104879D01*
X42248Y104884D01*
X42252Y104882D01*
X42466Y105014D01*
X42468Y105019D01*
X42472Y105019D01*
X42663Y105182D01*
X42664Y105187D01*
X42668Y105187D01*
X42831Y105378D01*
X42832Y105384D01*
X42836Y105384D01*
X42968Y105598D01*
X42967Y105604D01*
X42972Y105605D01*
X43068Y105837D01*
X43066Y105843D01*
X43070Y105845D01*
X43128Y106089D01*
X43126Y106094D01*
X43129Y106096D01*
X43149Y106346D01*
X43147Y106349D01*
X43149Y106350D01*
X43149Y114150D01*
X43147Y114152D01*
X43149Y114154D01*
X43129Y114404D01*
X43125Y114408D01*
X43128Y114411D01*
X43070Y114655D01*
X43065Y114659D01*
X43068Y114663D01*
X42972Y114895D01*
X42966Y114898D01*
X42968Y114902D01*
X42836Y115116D01*
X42831Y115118D01*
X42831Y115122D01*
X42668Y115313D01*
X42663Y115314D01*
X42663Y115318D01*
X42472Y115481D01*
X42466Y115482D01*
X42466Y115486D01*
X42252Y115618D01*
X42246Y115617D01*
X42245Y115622D01*
X42013Y115718D01*
X42007Y115716D01*
X42005Y115720D01*
X41761Y115778D01*
X41754Y115775D01*
X41750Y115779D01*
X38500Y115799D01*
X38498Y115797D01*
X38496Y115799D01*
X38246Y115779D01*
X38242Y115775D01*
X38239Y115778D01*
X37995Y115720D01*
X37991Y115715D01*
X37987Y115718D01*
X37755Y115622D01*
X37752Y115616D01*
X37748Y115618D01*
X37534Y115486D01*
X37532Y115481D01*
X37528Y115481D01*
X37337Y115318D01*
X37336Y115313D01*
X37332Y115313D01*
X37169Y115122D01*
X37168Y115116D01*
X37164Y115116D01*
X37032Y114902D01*
X37033Y114896D01*
X37029Y114895D01*
X36933Y114663D01*
X36934Y114657D01*
X36930Y114655D01*
X36872Y114411D01*
X36874Y114406D01*
X36871Y114404D01*
X36851Y114154D01*
X36853Y114151D01*
X36851Y114150D01*
X36851Y106350D01*
X36853Y106348D01*
X36851Y106346D01*
X36871Y106096D01*
X36875Y106092D01*
X36872Y106089D01*
X36930Y105845D01*
X36935Y105841D01*
X36933Y105837D01*
X37029Y105605D01*
X37034Y105602D01*
X37032Y105598D01*
X37164Y105384D01*
X37169Y105382D01*
X37169Y105378D01*
X37332Y105187D01*
X37337Y105186D01*
X37337Y105182D01*
X37528Y105019D01*
X37534Y105018D01*
X37534Y105014D01*
X37748Y104882D01*
X37754Y104883D01*
X37755Y104879D01*
X37987Y104783D01*
X37993Y104784D01*
X37995Y104780D01*
X38239Y104722D01*
X38246Y104725D01*
X38250Y104721D01*
X41500Y104701D01*
X41502Y104703D01*
G37*
D10*
X28114Y-988D03*
X5000Y-988D03*
X-18114Y-988D03*
D11*
X5000Y60990D03*
D12*
X49500Y155000D03*
X30500Y155000D03*
X40500Y90000D03*
X59500Y90000D03*
D13*
X-40000Y20500D03*
X-40000Y39500D03*
X55000Y39500D03*
X55000Y20500D03*
D12*
X199500Y360000D03*
X180500Y360000D03*
D14*
X80000Y41176D03*
X80000Y18824D03*
D15*
X-75000Y8664D03*
X-75000Y51336D03*
M02*
