G04 EAGLE Gerber RS-274X export*
G75*
%MOMM*%
%FSLAX34Y34*%
%LPD*%
%INSolderpaste Top*%
%IPPOS*%
%AMOC8*
5,1,8,0,0,1.08239X$1,22.5*%
G01*
%ADD10R,1.300000X1.500000*%
%ADD11R,1.500000X1.300000*%
%ADD12R,1.000000X1.100000*%
%ADD13R,0.400000X1.350000*%
%ADD14R,0.990600X2.794000*%

G36*
X-28750Y124221D02*
X-28750Y124221D01*
X-28743Y124226D01*
X-28739Y124222D01*
X-28495Y124280D01*
X-28491Y124285D01*
X-28487Y124283D01*
X-28255Y124379D01*
X-28252Y124384D01*
X-28248Y124382D01*
X-28034Y124514D01*
X-28032Y124519D01*
X-28028Y124519D01*
X-27837Y124682D01*
X-27836Y124687D01*
X-27832Y124687D01*
X-27669Y124878D01*
X-27668Y124884D01*
X-27664Y124884D01*
X-27532Y125098D01*
X-27533Y125104D01*
X-27529Y125105D01*
X-27433Y125337D01*
X-27434Y125343D01*
X-27430Y125345D01*
X-27372Y125589D01*
X-27374Y125594D01*
X-27371Y125596D01*
X-27351Y125846D01*
X-27353Y125849D01*
X-27351Y125850D01*
X-27351Y133650D01*
X-27353Y133652D01*
X-27351Y133654D01*
X-27371Y133904D01*
X-27375Y133908D01*
X-27372Y133911D01*
X-27430Y134155D01*
X-27435Y134159D01*
X-27433Y134163D01*
X-27529Y134395D01*
X-27534Y134398D01*
X-27532Y134402D01*
X-27664Y134616D01*
X-27669Y134618D01*
X-27669Y134622D01*
X-27832Y134813D01*
X-27837Y134814D01*
X-27837Y134818D01*
X-28028Y134981D01*
X-28034Y134982D01*
X-28034Y134986D01*
X-28248Y135118D01*
X-28254Y135117D01*
X-28255Y135122D01*
X-28487Y135218D01*
X-28493Y135216D01*
X-28495Y135220D01*
X-28739Y135278D01*
X-28744Y135276D01*
X-28746Y135279D01*
X-28996Y135299D01*
X-28999Y135297D01*
X-29000Y135299D01*
X-32250Y135279D01*
X-32257Y135274D01*
X-32261Y135278D01*
X-32505Y135220D01*
X-32509Y135215D01*
X-32513Y135218D01*
X-32745Y135122D01*
X-32748Y135116D01*
X-32752Y135118D01*
X-32966Y134986D01*
X-32968Y134981D01*
X-32972Y134981D01*
X-33163Y134818D01*
X-33164Y134813D01*
X-33168Y134813D01*
X-33331Y134622D01*
X-33332Y134616D01*
X-33336Y134616D01*
X-33468Y134402D01*
X-33467Y134396D01*
X-33472Y134395D01*
X-33568Y134163D01*
X-33566Y134157D01*
X-33570Y134155D01*
X-33628Y133911D01*
X-33626Y133906D01*
X-33629Y133904D01*
X-33649Y133654D01*
X-33647Y133651D01*
X-33649Y133650D01*
X-33649Y125850D01*
X-33647Y125848D01*
X-33649Y125846D01*
X-33629Y125596D01*
X-33625Y125592D01*
X-33628Y125589D01*
X-33570Y125345D01*
X-33565Y125341D01*
X-33568Y125337D01*
X-33472Y125105D01*
X-33466Y125102D01*
X-33468Y125098D01*
X-33336Y124884D01*
X-33331Y124882D01*
X-33331Y124878D01*
X-33168Y124687D01*
X-33163Y124686D01*
X-33163Y124682D01*
X-32972Y124519D01*
X-32966Y124518D01*
X-32966Y124514D01*
X-32752Y124382D01*
X-32746Y124383D01*
X-32745Y124379D01*
X-32513Y124283D01*
X-32507Y124284D01*
X-32505Y124280D01*
X-32261Y124222D01*
X-32256Y124224D01*
X-32254Y124221D01*
X-32004Y124201D01*
X-32001Y124203D01*
X-32000Y124201D01*
X-28750Y124221D01*
G37*
G36*
X-47750Y124221D02*
X-47750Y124221D01*
X-47743Y124226D01*
X-47739Y124222D01*
X-47495Y124280D01*
X-47491Y124285D01*
X-47487Y124283D01*
X-47255Y124379D01*
X-47252Y124384D01*
X-47248Y124382D01*
X-47034Y124514D01*
X-47032Y124519D01*
X-47028Y124519D01*
X-46837Y124682D01*
X-46836Y124687D01*
X-46832Y124687D01*
X-46669Y124878D01*
X-46668Y124884D01*
X-46664Y124884D01*
X-46532Y125098D01*
X-46533Y125104D01*
X-46529Y125105D01*
X-46433Y125337D01*
X-46434Y125343D01*
X-46430Y125345D01*
X-46372Y125589D01*
X-46374Y125594D01*
X-46371Y125596D01*
X-46351Y125846D01*
X-46353Y125849D01*
X-46351Y125850D01*
X-46351Y133650D01*
X-46353Y133652D01*
X-46351Y133654D01*
X-46371Y133904D01*
X-46375Y133908D01*
X-46372Y133911D01*
X-46430Y134155D01*
X-46435Y134159D01*
X-46433Y134163D01*
X-46529Y134395D01*
X-46534Y134398D01*
X-46532Y134402D01*
X-46664Y134616D01*
X-46669Y134618D01*
X-46669Y134622D01*
X-46832Y134813D01*
X-46837Y134814D01*
X-46837Y134818D01*
X-47028Y134981D01*
X-47034Y134982D01*
X-47034Y134986D01*
X-47248Y135118D01*
X-47254Y135117D01*
X-47255Y135122D01*
X-47487Y135218D01*
X-47493Y135216D01*
X-47495Y135220D01*
X-47739Y135278D01*
X-47744Y135276D01*
X-47746Y135279D01*
X-47996Y135299D01*
X-47999Y135297D01*
X-48000Y135299D01*
X-51250Y135279D01*
X-51257Y135274D01*
X-51261Y135278D01*
X-51505Y135220D01*
X-51509Y135215D01*
X-51513Y135218D01*
X-51745Y135122D01*
X-51748Y135116D01*
X-51752Y135118D01*
X-51966Y134986D01*
X-51968Y134981D01*
X-51972Y134981D01*
X-52163Y134818D01*
X-52164Y134813D01*
X-52168Y134813D01*
X-52331Y134622D01*
X-52332Y134616D01*
X-52336Y134616D01*
X-52468Y134402D01*
X-52467Y134396D01*
X-52472Y134395D01*
X-52568Y134163D01*
X-52566Y134157D01*
X-52570Y134155D01*
X-52628Y133911D01*
X-52626Y133906D01*
X-52629Y133904D01*
X-52649Y133654D01*
X-52647Y133651D01*
X-52649Y133650D01*
X-52649Y125850D01*
X-52647Y125848D01*
X-52649Y125846D01*
X-52629Y125596D01*
X-52625Y125592D01*
X-52628Y125589D01*
X-52570Y125345D01*
X-52565Y125341D01*
X-52568Y125337D01*
X-52472Y125105D01*
X-52466Y125102D01*
X-52468Y125098D01*
X-52336Y124884D01*
X-52331Y124882D01*
X-52331Y124878D01*
X-52168Y124687D01*
X-52163Y124686D01*
X-52163Y124682D01*
X-51972Y124519D01*
X-51966Y124518D01*
X-51966Y124514D01*
X-51752Y124382D01*
X-51746Y124383D01*
X-51745Y124379D01*
X-51513Y124283D01*
X-51507Y124284D01*
X-51505Y124280D01*
X-51261Y124222D01*
X-51256Y124224D01*
X-51254Y124221D01*
X-51004Y124201D01*
X-51001Y124203D01*
X-51000Y124201D01*
X-47750Y124221D01*
G37*
G36*
X-38250Y104721D02*
X-38250Y104721D01*
X-38243Y104726D01*
X-38239Y104722D01*
X-37995Y104780D01*
X-37991Y104785D01*
X-37987Y104783D01*
X-37755Y104879D01*
X-37752Y104884D01*
X-37748Y104882D01*
X-37534Y105014D01*
X-37532Y105019D01*
X-37528Y105019D01*
X-37337Y105182D01*
X-37336Y105187D01*
X-37332Y105187D01*
X-37169Y105378D01*
X-37168Y105384D01*
X-37164Y105384D01*
X-37032Y105598D01*
X-37033Y105604D01*
X-37029Y105605D01*
X-36933Y105837D01*
X-36934Y105843D01*
X-36930Y105845D01*
X-36872Y106089D01*
X-36874Y106094D01*
X-36871Y106096D01*
X-36851Y106346D01*
X-36853Y106349D01*
X-36851Y106350D01*
X-36851Y114150D01*
X-36853Y114152D01*
X-36851Y114154D01*
X-36871Y114404D01*
X-36875Y114408D01*
X-36872Y114411D01*
X-36930Y114655D01*
X-36935Y114659D01*
X-36933Y114663D01*
X-37029Y114895D01*
X-37034Y114898D01*
X-37032Y114902D01*
X-37164Y115116D01*
X-37169Y115118D01*
X-37169Y115122D01*
X-37332Y115313D01*
X-37337Y115314D01*
X-37337Y115318D01*
X-37528Y115481D01*
X-37534Y115482D01*
X-37534Y115486D01*
X-37748Y115618D01*
X-37754Y115617D01*
X-37755Y115622D01*
X-37987Y115718D01*
X-37993Y115716D01*
X-37995Y115720D01*
X-38239Y115778D01*
X-38244Y115776D01*
X-38246Y115779D01*
X-38496Y115799D01*
X-38499Y115797D01*
X-38500Y115799D01*
X-41750Y115779D01*
X-41757Y115774D01*
X-41761Y115778D01*
X-42005Y115720D01*
X-42009Y115715D01*
X-42013Y115718D01*
X-42245Y115622D01*
X-42248Y115616D01*
X-42252Y115618D01*
X-42466Y115486D01*
X-42468Y115481D01*
X-42472Y115481D01*
X-42663Y115318D01*
X-42664Y115313D01*
X-42668Y115313D01*
X-42831Y115122D01*
X-42832Y115116D01*
X-42836Y115116D01*
X-42968Y114902D01*
X-42967Y114896D01*
X-42972Y114895D01*
X-43068Y114663D01*
X-43066Y114657D01*
X-43070Y114655D01*
X-43128Y114411D01*
X-43126Y114406D01*
X-43129Y114404D01*
X-43149Y114154D01*
X-43147Y114151D01*
X-43149Y114150D01*
X-43149Y106350D01*
X-43147Y106348D01*
X-43149Y106346D01*
X-43129Y106096D01*
X-43125Y106092D01*
X-43128Y106089D01*
X-43070Y105845D01*
X-43065Y105841D01*
X-43068Y105837D01*
X-42972Y105605D01*
X-42966Y105602D01*
X-42968Y105598D01*
X-42836Y105384D01*
X-42831Y105382D01*
X-42831Y105378D01*
X-42668Y105187D01*
X-42663Y105186D01*
X-42663Y105182D01*
X-42472Y105019D01*
X-42466Y105018D01*
X-42466Y105014D01*
X-42252Y104882D01*
X-42246Y104883D01*
X-42245Y104879D01*
X-42013Y104783D01*
X-42007Y104784D01*
X-42005Y104780D01*
X-41761Y104722D01*
X-41756Y104724D01*
X-41754Y104721D01*
X-41504Y104701D01*
X-41501Y104703D01*
X-41500Y104701D01*
X-38250Y104721D01*
G37*
D10*
X-49500Y155000D03*
X-30500Y155000D03*
X-39500Y90000D03*
X-20500Y90000D03*
D11*
X-136580Y-339730D03*
X-136580Y-320730D03*
X-114080Y-320730D03*
X-114080Y-339730D03*
D12*
X-114307Y-253500D03*
X-114307Y-236500D03*
D11*
X-184080Y-339730D03*
X-184080Y-320730D03*
X-161580Y-320730D03*
X-161580Y-339730D03*
D12*
X-139615Y-253346D03*
X-139615Y-236346D03*
D11*
X-19080Y-339730D03*
X-19080Y-320730D03*
X-41580Y-320730D03*
X-41580Y-339730D03*
D12*
X-63614Y-253654D03*
X-63614Y-236654D03*
D11*
X-66580Y-339730D03*
X-66580Y-320730D03*
X-89080Y-320730D03*
X-89080Y-339730D03*
D12*
X-89076Y-253423D03*
X-89076Y-236423D03*
D11*
X-38011Y-174500D03*
X-38011Y-155500D03*
X-63416Y-174500D03*
X-63416Y-155500D03*
X-114178Y-174441D03*
X-114178Y-155441D03*
X-89000Y-174500D03*
X-89000Y-155500D03*
X-139703Y-174441D03*
X-139703Y-155441D03*
X-12368Y-174560D03*
X-12368Y-155560D03*
X90000Y-305500D03*
X90000Y-324500D03*
X65000Y-305500D03*
X65000Y-324500D03*
D13*
X13000Y366750D03*
X6500Y366750D03*
X0Y366750D03*
X-6500Y366750D03*
X-13000Y366750D03*
D14*
X174986Y280000D03*
X145014Y280000D03*
M02*
