M48
;GenerationSoftware,Autodesk,EAGLE,9.3.1*%
;CreationDate,2019-09-06T09:50:58Z*%
FMAT,2
ICI,OFF
METRIC,TZ,000.000
T14C0.350
T13C0.600
T12C0.700
T11C0.813
T10C0.889
T9C0.900
T8C1.000
T7C1.016
T6C1.397
T5C1.400
T4C1.500
T3C2.100
T2C3.200
%
G90
M71
T2
X-55000Y31500
X55000Y31500
X-65000Y-33500
X65000Y-33500
T3
X-44700Y31500
X-40000Y31500
X-35300Y31500
X35300Y31500
X40000Y31500
X44700Y31500
T4
X3600Y39350
X-3600Y39350
T5
X23000Y27500
X23000Y21500
X23000Y24500
T6
X-42380Y4833
X-57620Y4833
X42380Y18168
X57620Y18168
X57620Y4833
X42380Y4833
X-42380Y18168
X-57620Y18168
T7
X40249Y-20761
X51251Y-31761
X51251Y-27239
X44749Y-31761
X44749Y-27239
X46751Y-20761
X46751Y-16239
X-51251Y-27239
X40249Y-16239
X-40249Y-20761
X-40249Y-16239
X-46751Y-20761
X-46751Y-16239
X-44749Y-31761
X-44749Y-27239
X-51251Y-31761
X-18000Y5190
X-18000Y7730
X-18000Y10270
X-18000Y12810
T8
X10998Y19000
X10998Y3000
X10998Y5000
X10998Y7000
X10998Y9000
X10998Y11000
X10998Y13000
X10998Y15000
X10998Y17000
X10998Y21000
X-10998Y3000
X-10998Y5000
X-10998Y7000
X-10998Y9000
X-10998Y11000
X-10998Y13000
X-10998Y15000
X-10998Y17000
X-10998Y19000
X-10998Y21000
T9
X-53175Y19120
X-46825Y19120
X53175Y24200
X46825Y24200
X46825Y19120
X53175Y19120
X-46825Y24200
X-53175Y24200
T10
X50000Y1340
X47460Y1340
X39840Y11500
X39840Y8960
X39840Y14040
X52540Y1340
X-47460Y1340
X-50000Y1340
X-52540Y1340
X-60160Y11500
X-60160Y8960
X-60160Y14040
T11
X21730Y36000
X24270Y36000
T12
X2425Y36450
X-2425Y36450
T13
X-1270Y-28120
X-11430Y-28120
X13970Y-12880
X11430Y-12880
X8890Y-12880
X6350Y-12880
X3810Y-12880
X1270Y-12880
X-1270Y-12880
X-3810Y-12880
X-6350Y-12880
X-8890Y-12880
X-11430Y-12880
X13970Y-28120
X-13970Y-28120
X-8890Y-28120
X-6350Y-28120
X-3810Y-28120
X1270Y-28120
X3810Y-28120
X6350Y-28120
X8890Y-28120
X11430Y-28120
X-13970Y-12880
T14
X-1500Y15500
X8000Y9000
X-1914Y-30516
X-6659Y-30553
X-13660Y-30526
X-18404Y-30506
X7000Y-3000
X9500Y-1000
X4041Y7491
X2826Y-1963
X-7500Y7000
M30